<svg width="140" height="135" viewBox="0 0 140 135" fill="none" xmlns="http://www.w3.org/2000/svg">
<g clip-path="url(#clip0_1385_19395)">
<path d="M59.9169 134.307L0 100.947L64.4465 64.4387L126.628 98.411L59.9169 134.307Z" fill="#E8E4E3"/>
<path fill-rule="evenodd" clip-rule="evenodd" d="M130.902 91.7096C130.794 89.437 130.204 90.0265 128.575 89.5146C125.752 88.6148 106.206 99.5977 103.623 103.553C102.172 105.68 101.406 108.2 101.428 110.774C101.878 119.888 100.94 102.351 101.428 112.551C101.408 113.074 101.523 113.594 101.762 114.06C102.001 114.526 102.357 114.922 102.794 115.211C103.268 115.431 103.791 115.524 104.312 115.481C104.833 115.437 105.333 115.259 105.764 114.963L127.482 102.747C128.683 102.022 129.662 100.981 130.313 99.7373C131.018 98.5173 131.377 97.1283 131.352 95.7196C130.856 85.5201 131.352 100.823 130.918 91.7096H130.902Z" fill="#E8E4E3"/>
<path fill-rule="evenodd" clip-rule="evenodd" d="M103.096 115.351C102.972 115.304 100.49 114.203 100.381 114.141C99.9437 113.852 99.5874 113.456 99.347 112.99C99.1065 112.524 98.99 112.004 99.0086 111.48C98.5122 101.273 99.4507 118.81 99.0086 109.696C98.9838 107.125 99.7472 104.608 101.196 102.483C103.748 98.5042 123.324 87.5369 126.117 88.4211C126.334 88.4909 128.955 89.5923 129.149 89.7009C129.287 89.768 129.41 89.8601 129.514 89.9724C129.224 89.7699 128.905 89.6129 128.568 89.507C125.744 88.6073 106.199 99.5901 103.616 103.546C102.165 105.673 101.399 108.192 101.421 110.767C101.871 119.88 100.932 102.344 101.421 112.543C101.401 113.066 101.516 113.586 101.755 114.052C101.994 114.518 102.349 114.915 102.786 115.203C102.884 115.256 102.985 115.303 103.088 115.343L103.096 115.351Z" fill="#E8E4E3"/>
<path opacity="0.12" d="M66.0058 55.0848L4.21191 91.5934L4.77812 36.2681L67.8828 0L66.0058 55.0848Z" fill="#59A2A2"/>
<path d="M61.7013 124.945L4.77832 91.5856L66.006 55.0847L125.077 89.057L61.7013 124.945Z" fill="#76B1B2"/>
<path opacity="0.33" d="M125.077 89.0571L66.0059 55.0848L67.8829 0L124.806 33.3596L125.077 89.0571Z" fill="#59A2A2"/>
<path d="M62.8258 58.0632C61.1435 58.9187 59.8309 60.3581 59.1338 62.1119C59.1338 60.9563 59.1338 59.7851 59.1338 58.6449C59.8309 56.8911 61.1435 55.4516 62.8258 54.5962C68.0922 51.4937 76.6629 51.4937 81.9681 54.5962C84.6208 56.1474 85.9471 58.133 85.9626 60.1419C85.9626 61.2975 85.9626 62.4687 85.9626 63.6089C85.9626 61.6 84.6208 59.5912 81.9681 58.0632C76.6629 54.9995 68.0922 54.9995 62.8258 58.0632Z" fill="#FFCE55"/>
<path d="M59.1262 62.1121C58.9672 62.5925 58.886 63.0952 58.8857 63.6012V60.1032C58.8893 59.6076 58.9704 59.1155 59.1262 58.645V61.9104C59.1301 61.9776 59.1301 62.0449 59.1262 62.1121V62.1121Z" fill="#FFCE55"/>
<path d="M85.9697 60.1731V63.6479C85.9697 65.6412 84.6589 67.6268 82.0373 69.147C76.7708 72.2108 68.2001 72.2108 62.8949 69.147C60.2267 67.5958 58.8927 65.5792 58.9004 63.5626V60.1033C58.9004 62.1199 60.2267 64.1443 62.9026 65.6878C68.2001 68.7437 76.7708 68.7437 82.0373 65.6878C84.6511 64.1598 85.9619 62.1664 85.9697 60.1731Z" fill="#F3C541"/>
<path d="M85.9551 63.6477C85.9551 62.492 85.9551 61.3208 85.9551 60.1807C85.9628 61.22 85.9628 62.6006 85.9551 63.6477Z" fill="#FFCE55"/>
<path d="M81.9753 54.5961C87.2728 57.6521 87.3038 62.6238 82.0296 65.6798C76.7553 68.7357 68.1924 68.7435 62.8949 65.6798C57.5974 62.6161 57.5587 57.6598 62.8251 54.5961C68.0916 51.5324 76.67 51.5324 81.9753 54.5961Z" fill="#F3C541"/>
<path d="M62.8258 56.5275C68.0923 53.4637 76.6629 53.4637 81.9682 56.5275C84.202 57.8228 85.4973 59.4516 85.8463 61.1269C86.3427 58.8 85.0707 56.3801 81.9682 54.5962C76.6629 51.4937 68.0923 51.4937 62.8258 54.5962C59.7776 56.3646 58.5056 58.769 58.9942 61.0804C59.3588 59.4128 60.6308 57.8072 62.8258 56.5275Z" fill="url(#paint0_linear_1385_19395)"/>
<path d="M89.6621 60.1885V63.6555C89.6621 66.1918 87.9868 68.7281 84.6516 70.6361C77.9502 74.5142 67.0372 74.5142 60.2893 70.6361C56.8921 68.6738 55.1934 66.0987 55.2012 63.5237V60.0876C55.2012 62.6627 56.8921 65.23 60.2893 67.1924C67.0372 71.0705 77.9502 71.0705 84.6516 67.1924C87.9868 65.2611 89.6544 62.7248 89.6621 60.1885Z" fill="url(#paint1_linear_1385_19395)"/>
<path d="M84.543 53.0838C91.2909 56.9619 91.3297 63.2987 84.6205 67.1923C77.9114 71.086 67.0061 71.0705 60.2582 67.1923C53.5103 63.3142 53.518 56.9774 60.2117 53.0838C66.9053 49.1901 77.8261 49.1824 84.543 53.0838ZM62.8953 65.6876C68.1928 68.7436 76.7635 68.7436 82.0299 65.6876C87.2964 62.6317 87.2732 57.6599 81.9757 54.604C76.6781 51.548 68.0997 51.5015 62.8333 54.604C57.5668 57.7065 57.59 62.6317 62.8953 65.6954" fill="#FFCE55"/>
<path d="M62.8257 54.1462C61.1421 54.991 59.826 56.4229 59.126 58.1716C59.126 57.016 59.126 55.8448 59.126 54.7046C59.8282 52.9553 61.1433 51.5215 62.8257 50.6714C68.0922 47.6154 76.6628 47.6154 81.9681 50.6714C84.6207 52.2226 85.947 54.2082 85.9625 56.2171C85.9625 57.3727 85.9625 58.5439 85.9625 59.6841C85.9625 57.683 84.6207 55.6741 81.9681 54.1462C76.6628 51.0824 68.0922 51.0824 62.8257 54.1462Z" fill="#FFCE55"/>
<path d="M59.1262 58.1717C58.9704 58.6423 58.8893 59.1343 58.8857 59.6299V56.1784C58.8893 55.6828 58.9704 55.1907 59.1262 54.7202V57.9933C59.1295 58.0528 59.1295 58.1123 59.1262 58.1717Z" fill="#FFCE55"/>
<path d="M85.9697 56.256V59.7231C85.9697 61.7164 84.6589 63.7098 82.0373 65.23C76.7708 68.3325 68.2001 68.3325 62.8949 65.23C60.2267 63.6787 58.8927 61.6699 58.9004 59.6455V56.1785C58.9004 58.2028 60.2267 60.2195 62.9026 61.763C68.2001 64.8654 76.7708 64.8654 82.0373 61.763C84.6511 60.2427 85.9619 58.2494 85.9697 56.256Z" fill="#F3C541"/>
<path d="M85.9541 59.7229C85.9541 58.5672 85.9541 57.396 85.9541 56.2559C85.9619 57.2952 85.9619 58.6836 85.9541 59.7229Z" fill="#FFCE55"/>
<path d="M81.9753 50.6713C87.2728 53.7738 87.3038 58.699 82.0296 61.7628C76.7553 64.8265 68.1924 64.8652 62.8949 61.7628C57.5974 58.6603 57.5587 53.7351 62.8251 50.6713C68.0916 47.6076 76.67 47.6154 81.9753 50.6713Z" fill="#F3C541"/>
<path d="M62.8258 52.6104C68.0923 49.5467 76.663 49.5467 81.9682 52.6104C84.202 53.898 85.4973 55.5268 85.8463 57.2099C86.3427 54.883 85.0707 52.4553 81.9682 50.6714C76.663 47.6154 68.0923 47.6154 62.8258 50.6714C59.7776 52.4475 58.5056 54.852 58.9942 57.1633C59.3588 55.4957 60.6308 53.8902 62.8258 52.6104Z" fill="url(#paint2_linear_1385_19395)"/>
<path d="M89.6621 56.2637V59.723C89.6621 62.2593 87.9868 64.7878 84.6516 66.7036C77.9502 70.5818 67.0372 70.5818 60.2893 66.7036C56.8921 64.7413 55.1934 62.1662 55.2012 59.5989V56.1707C55.2012 58.738 56.8921 61.313 60.2893 63.2754C67.0372 67.1535 77.9502 67.1535 84.6516 63.2754C87.9868 61.3363 89.6544 58.8078 89.6621 56.2637Z" fill="url(#paint3_linear_1385_19395)"/>
<path d="M84.5429 49.159C91.2908 53.0371 91.3296 59.3739 84.6205 63.2753C77.9113 67.1767 67.0061 67.1534 60.2581 63.2753C53.5102 59.3972 53.4714 53.0604 60.1806 49.159C66.8897 45.2576 77.826 45.2653 84.5429 49.159ZM62.8952 61.7628C68.1928 64.8653 76.7634 64.8653 82.0299 61.7628C87.2964 58.6604 87.2731 53.7351 81.9756 50.6714C76.6781 47.6077 68.0997 47.6155 62.8254 50.6714C57.5512 53.7274 57.5822 58.6991 62.8875 61.7628" fill="#FFCE55"/>
<path d="M62.0503 50.2216C60.3609 51.0813 59.0448 52.5298 58.3506 54.2937C58.3506 53.138 58.3506 51.9668 58.3506 50.8266C59.0448 49.0628 60.3609 47.6143 62.0503 46.7546C67.3168 43.6521 75.8874 43.6521 81.1927 46.7546C83.8453 48.3059 85.1794 50.2914 85.1872 52.3003C85.1872 53.456 85.1872 54.6272 85.1872 55.7673C85.1872 53.7585 83.8453 51.7496 81.1927 50.2216C75.8874 47.1579 67.3168 47.1579 62.0503 50.2216Z" fill="#FFCE55"/>
<path d="M58.3498 54.2937C58.194 54.7642 58.1129 55.2562 58.1094 55.7519V52.2848C58.1103 51.7896 58.1888 51.2976 58.3421 50.8267V54.092C58.3485 54.1591 58.3511 54.2264 58.3498 54.2937V54.2937Z" fill="#FFCE55"/>
<path d="M85.1952 52.3391V55.8449C85.1952 57.8382 83.8766 59.8316 81.2628 61.3518C75.9885 64.4543 67.4179 64.4543 62.1204 61.3518C59.4445 59.8006 58.1182 57.7839 58.1182 55.7673V52.3003C58.1182 54.3169 59.4445 56.3413 62.1126 57.8848C67.4101 60.9407 75.9808 60.9407 81.255 57.8848C83.8766 56.318 85.1874 54.3324 85.1952 52.3391Z" fill="#F3C541"/>
<path d="M85.1875 55.845C85.1875 54.6893 85.1875 53.5181 85.1875 52.3779C85.1953 53.3785 85.1875 54.7669 85.1875 55.845Z" fill="#FFCE55"/>
<path d="M81.1999 46.7546C86.5051 49.8571 86.5284 54.7823 81.2619 57.846C75.9954 60.9097 67.4171 60.9019 62.1195 57.846C56.822 54.79 56.7833 49.8183 62.0497 46.7546C67.3162 43.6909 75.8946 43.6909 81.1999 46.7546Z" fill="#F3C541"/>
<path d="M62.0504 48.6859C67.3169 45.63 75.8876 45.63 81.1928 48.6859C83.4266 49.9812 84.7219 51.61 85.0709 53.2931C85.5673 50.9662 84.2953 48.5385 81.1928 46.7546C75.8876 43.6521 67.3169 43.6521 62.0504 46.7546C59.0022 48.523 57.7302 50.9352 58.2189 53.2388C58.5834 51.579 59.8554 49.9657 62.0504 48.6859Z" fill="url(#paint4_linear_1385_19395)"/>
<path d="M88.8868 52.3469V55.845C88.8868 58.3813 87.2114 60.9176 83.8762 62.8256C77.1748 66.7037 66.2618 66.7037 59.5139 62.8256C56.1167 60.8633 54.4181 58.2882 54.4258 55.7131V52.2461C54.4258 54.8212 56.1089 57.3962 59.5139 59.3586C66.2618 63.2367 77.1671 63.2367 83.8762 59.3586C87.2114 57.3962 88.879 54.8832 88.8868 52.3469Z" fill="url(#paint5_linear_1385_19395)"/>
<path d="M83.8066 45.2422C90.5545 49.1203 90.5855 55.4572 83.8841 59.3586C77.1828 63.26 66.2697 63.2367 59.5218 59.3586C52.7739 55.4804 52.7429 49.1359 59.4365 45.2422C66.1301 41.3486 77.0509 41.3408 83.8066 45.2422ZM62.0891 57.8461C67.3866 60.9021 75.9573 60.9021 81.2315 57.8461C86.5057 54.7901 86.4747 49.8184 81.1695 46.7547C75.8642 43.691 67.2936 43.6522 62.0271 46.7547C56.7606 49.8572 56.7839 54.7824 62.0891 57.8461Z" fill="#FFCE55"/>
<path d="M63.6011 46.3046C61.9136 47.1531 60.5988 48.5949 59.9092 50.3534C59.9092 49.1899 59.9092 48.0265 59.9092 46.8786C60.6042 45.1253 61.9177 43.6877 63.6011 42.8376C68.8754 39.7739 77.446 39.7739 82.7435 42.8376C85.3962 44.3888 86.7302 46.3744 86.738 48.3755C86.738 49.5312 86.738 50.7024 86.738 51.8426C86.738 49.8415 85.3962 47.8326 82.7435 46.3046C77.4305 43.2409 68.8599 43.2409 63.6011 46.3046Z" fill="#FFCE55"/>
<path d="M59.9016 50.3535C59.742 50.823 59.6608 51.3157 59.6611 51.8116V48.3446C59.664 47.8464 59.7451 47.3517 59.9016 46.8787C59.9016 47.4604 59.9016 48.0343 59.9016 48.6161V50.1673C59.9049 50.2293 59.9049 50.2914 59.9016 50.3535V50.3535Z" fill="#FFCE55"/>
<path d="M86.7372 48.4145V51.8816C86.7372 53.8749 85.4264 55.8683 82.8048 57.3885C77.5384 60.491 68.9677 60.491 63.6625 57.3885C60.9943 55.8372 59.6602 53.8284 59.668 51.8118V48.3447C59.668 50.3613 60.9943 52.3857 63.6625 53.9215C68.9677 57.0239 77.5384 57.0239 82.8048 53.9215C85.4264 52.4012 86.7372 50.4156 86.7372 48.4145Z" fill="#F3C541"/>
<path d="M86.7295 51.8816C86.7295 50.7259 86.7295 49.5547 86.7295 48.4146V48.4533C86.7373 49.4539 86.7373 50.8423 86.7295 51.8816Z" fill="#FFCE55"/>
<path d="M82.7428 42.8376C88.0481 45.8936 88.0791 50.8575 82.8049 53.9213C77.5306 56.985 68.9678 57.0237 63.6625 53.9213C58.3572 50.8188 58.334 45.8936 63.6004 42.8376C68.8669 39.7816 77.4453 39.7739 82.7428 42.8376Z" fill="#F3C541"/>
<path d="M63.6012 44.7689C68.8754 41.7052 77.446 41.7052 82.7435 44.7689C84.9851 46.0564 86.2804 47.6852 86.6217 49.3683C87.1181 47.0415 85.846 44.6215 82.7435 42.8376C77.446 39.7739 68.8754 39.7739 63.6012 42.8376C60.553 44.606 59.2809 47.0104 59.7773 49.3218C60.1341 47.6542 61.4061 46.0487 63.6012 44.7689Z" fill="url(#paint6_linear_1385_19395)"/>
<path d="M90.4376 48.4299V51.897C90.4376 54.4333 88.7622 56.9695 85.4348 58.8776C78.7257 62.7557 67.8204 62.7557 61.0725 58.8776C57.6753 56.9153 55.9766 54.3402 55.9844 51.7729V48.3291C55.9844 50.8964 57.6753 53.4715 61.0725 55.4338C67.8204 59.3119 78.7334 59.3119 85.4348 55.4338C88.7622 53.518 90.4298 50.9662 90.4376 48.4299Z" fill="url(#paint7_linear_1385_19395)"/>
<path d="M85.3183 41.3252C92.0663 45.2033 92.105 51.5402 85.3959 55.4338C78.6868 59.3275 67.7815 59.3119 61.0336 55.4338C54.2857 51.5557 54.2934 45.2189 60.9793 41.3252C67.6652 37.4316 78.6014 37.4238 85.3183 41.3252ZM63.6009 53.9214C68.9062 57.0238 77.4768 57.0238 82.7433 53.9214C88.0098 50.8189 87.9865 45.8937 82.6812 42.8377C77.376 39.7817 68.8751 39.774 63.6009 42.8377C58.3267 45.9014 58.3577 50.8654 63.6629 53.9214" fill="#FFCE55"/>
<path d="M62.0503 42.3801C60.3651 43.2341 59.0496 44.6737 58.3506 46.4288C58.3506 45.2732 58.3506 44.102 58.3506 42.9618C59.0496 41.2067 60.3651 39.767 62.0503 38.9131C67.3168 35.8106 75.8874 35.8106 81.1927 38.9131C83.8453 40.4643 85.1794 42.4499 85.1872 44.4588C85.1872 45.6144 85.1872 46.7856 85.1872 47.9258C85.1872 45.9169 83.8453 43.9158 81.1927 42.3801C75.8874 39.3241 67.3168 39.3241 62.0503 42.3801Z" fill="#FFCE55"/>
<path d="M58.3498 46.429C58.194 46.8995 58.1129 47.3915 58.1094 47.8871V44.4201C58.1103 43.9249 58.1888 43.4328 58.3421 42.9619V46.2273C58.3485 46.2943 58.3511 46.3616 58.3498 46.429V46.429Z" fill="#FFCE55"/>
<path d="M85.1952 44.4977V47.9648C85.1952 49.9581 83.8766 51.9515 81.2628 53.4717C75.9885 56.5742 67.4179 56.5742 62.1204 53.4717C59.4445 51.9204 58.1182 49.9116 58.1182 47.8872V44.4202C58.1182 46.4445 59.4445 48.4612 62.1126 50.0047C67.4101 53.1071 75.9808 53.1071 81.255 50.0047C83.8766 48.4844 85.1874 46.4911 85.1952 44.4977Z" fill="#F3C541"/>
<path d="M85.1875 47.9646V47.9258C85.1875 46.7701 85.1875 45.5989 85.1875 44.4587C85.1953 45.5369 85.1875 46.9252 85.1875 47.9646Z" fill="#FFCE55"/>
<path d="M81.1999 38.913C86.5051 41.9767 86.5284 46.9407 81.2619 50.0044C75.9954 53.0681 67.4171 53.1069 62.1195 50.0044C56.822 46.9019 56.7833 41.9767 62.0497 38.913C67.3162 35.8493 75.8946 35.8493 81.1999 38.913Z" fill="#F3C541"/>
<path d="M62.0504 40.8521C67.3169 37.7496 75.8876 37.7496 81.1928 40.8521C83.4266 42.1396 84.7219 43.7685 85.0709 45.4516C85.5673 43.1247 84.2953 40.697 81.1928 38.9131C75.8876 35.8106 67.3169 35.8106 62.0504 38.9131C59.0022 40.6892 57.7302 43.0937 58.2189 45.3973C58.5834 43.7374 59.8554 42.1241 62.0504 40.8521Z" fill="url(#paint8_linear_1385_19395)"/>
<path d="M88.8868 44.5054V47.9725C88.8868 50.5165 87.2114 53.0451 83.8762 54.9531C77.1748 58.8312 66.2618 58.8312 59.5139 54.9531C56.1167 52.9908 54.4181 50.4157 54.4258 47.8484V44.3813C54.4258 46.9487 56.1089 49.5237 59.5139 51.4861C66.2618 55.3642 77.1671 55.3642 83.8762 51.4861C87.2114 49.578 88.879 47.0417 88.8868 44.5054Z" fill="url(#paint9_linear_1385_19395)"/>
<path d="M83.8066 37.4007C90.5545 41.2788 90.5855 47.6156 83.8841 51.517C77.1828 55.4184 66.2697 55.3951 59.5218 51.517C52.7739 47.6389 52.7429 41.3021 59.4365 37.4007C66.1301 33.4993 77.0509 33.507 83.8066 37.4007ZM62.0891 50.0045C67.3866 53.107 75.9573 53.107 81.2315 50.0045C86.5057 46.9021 86.4747 41.9768 81.1695 38.9131C75.8642 35.8494 67.2936 35.8106 62.0271 38.9131C56.7606 42.0156 56.7839 46.9408 62.0891 50.0045Z" fill="#FFCE55"/>
<path d="M62.8258 38.4631C61.1435 39.3185 59.8309 40.758 59.1338 42.5118C59.1338 41.3561 59.1338 40.1849 59.1338 39.0448C59.8309 37.291 61.1435 35.8515 62.8258 34.996C68.0922 31.9323 76.6629 31.9323 81.9681 34.996C84.6208 36.5473 85.9471 38.5329 85.9626 40.5417C85.9626 41.6974 85.9626 42.8686 85.9626 44.0088C85.9626 41.9999 84.6208 39.991 81.9681 38.4631C76.6629 35.3994 68.0922 35.3994 62.8258 38.4631Z" fill="#FFCE55"/>
<path d="M59.1262 42.512C58.9704 42.9825 58.8893 43.4745 58.8857 43.9701V40.5031C58.8893 40.0075 58.9704 39.5154 59.1262 39.0449V42.3103C59.1301 42.3775 59.1301 42.4448 59.1262 42.512V42.512Z" fill="#FFCE55"/>
<path d="M85.9697 40.573V44.0478C85.9697 46.0411 84.6589 48.0267 82.0373 49.5469C76.7708 52.6106 68.2001 52.6106 62.8949 49.5469C60.2267 47.9957 58.8927 45.9791 58.9004 43.9624V40.5032C58.9004 42.5198 60.2267 44.5442 62.9026 46.0877C68.2001 49.1436 76.7708 49.1436 82.0373 46.0877C84.6511 44.5597 85.9619 42.5663 85.9697 40.573Z" fill="#F3C541"/>
<path d="M85.9551 44.0476C85.9551 42.8919 85.9551 41.7207 85.9551 40.5806C85.9628 41.6199 85.9628 43.0005 85.9551 44.0476Z" fill="#FFCE55"/>
<path d="M81.9753 34.996C87.2728 38.052 87.3038 43.0237 82.0296 46.0797C76.7553 49.1356 68.1924 49.1822 62.8949 46.0797C57.5974 42.9772 57.5587 38.0597 62.8251 34.996C68.0916 31.9323 76.67 31.9323 81.9753 34.996Z" fill="#F3C541"/>
<path d="M62.8258 36.9276C68.0923 33.8251 76.6629 33.8251 81.9682 36.9276C84.202 38.2229 85.4973 39.8517 85.8463 41.527C86.3427 39.2002 85.0707 36.7802 81.9682 34.9963C76.6629 31.9326 68.0923 31.9326 62.8258 34.9963C59.7776 36.7647 58.5056 39.1691 58.9942 41.4805C59.3588 39.8129 60.6308 38.2074 62.8258 36.9276Z" fill="url(#paint10_linear_1385_19395)"/>
<path d="M89.6621 40.5884V44.0554C89.6621 46.5917 87.9868 49.128 84.6516 51.036C77.9502 54.9141 67.0372 54.9141 60.2893 51.036C56.8921 49.0737 55.1934 46.4986 55.2012 43.9236V40.4875C55.2012 43.0626 56.8921 45.6299 60.2893 47.5923C67.0372 51.4704 77.9502 51.4704 84.6516 47.5923C87.9868 45.661 89.6544 43.1247 89.6621 40.5884Z" fill="url(#paint11_linear_1385_19395)"/>
<path d="M84.543 33.4837C91.2909 37.3618 91.3297 43.6986 84.6205 47.5923C77.9114 51.4859 67.0061 51.4704 60.2582 47.5923C53.5103 43.7141 53.518 37.3773 60.2117 33.4837C66.9053 29.59 77.8261 29.5823 84.543 33.4837ZM62.8953 46.0876C68.1928 49.1435 76.7635 49.1435 82.0299 46.0876C87.2964 43.0316 87.2732 38.0599 81.9757 35.0039C76.6781 31.9479 68.0997 31.9324 62.8255 34.9961C57.5513 38.0599 57.5823 43.0238 62.8876 46.0876" fill="#FFCE55"/>
<path d="M63.6011 34.903C61.9189 35.7584 60.6063 37.1979 59.9092 38.9517C59.9092 37.796 59.9092 36.6248 59.9092 35.4847C60.611 33.7396 61.9231 32.309 63.6011 31.4592C68.8754 28.3567 77.446 28.3567 82.7435 31.4592C85.3962 33.0104 86.7302 34.996 86.738 37.0049C86.738 38.1606 86.738 39.3318 86.738 40.4719C86.738 38.4631 85.3962 36.462 82.7435 34.9262C77.4305 31.8703 68.8599 31.8703 63.6011 34.903Z" fill="#FFCE55"/>
<path d="M59.9016 38.9751C59.742 39.4447 59.6608 39.9373 59.6611 40.4333V36.9662C59.6647 36.4706 59.7458 35.9786 59.9016 35.5081C59.9016 36.0898 59.9016 36.6637 59.9016 37.2455V38.7967C59.9049 38.8561 59.9049 38.9157 59.9016 38.9751V38.9751Z" fill="#FFCE55"/>
<path d="M86.7372 37.0439V40.5109C86.7372 42.5043 85.4264 44.4976 82.8048 46.0178C77.5384 49.1203 68.9677 49.1203 63.6625 46.0178C60.9943 44.4666 59.6602 42.4577 59.668 40.4333V36.9663C59.668 38.9907 60.9943 41.0073 63.6625 42.5508C68.9677 45.6533 77.5384 45.6533 82.8048 42.5508C85.4264 41.0306 86.7372 39.0372 86.7372 37.0439Z" fill="#F3C541"/>
<path d="M86.7295 40.5107C86.7295 39.3551 86.7295 38.1839 86.7295 37.0437C86.7373 38.083 86.7373 39.4714 86.7295 40.5107Z" fill="#FFCE55"/>
<path d="M82.7428 31.4592C88.0481 34.5229 88.0791 39.4869 82.8049 42.5506C77.5306 45.6143 68.9678 45.6531 63.6625 42.5506C58.3572 39.4481 58.334 34.5229 63.6004 31.4592C68.8669 28.3954 77.4453 28.3954 82.7428 31.4592Z" fill="#F3C541"/>
<path d="M63.6012 33.3983C68.8754 30.2958 77.446 30.2958 82.7435 33.3983C84.9851 34.6858 86.2804 36.3146 86.6217 37.9977C87.1181 35.6708 85.846 33.2431 82.7435 31.4592C77.446 28.3567 68.8754 28.3567 63.6012 31.4592C60.553 33.2354 59.2809 35.6398 59.7773 37.9434C60.1341 36.2836 61.4061 34.6703 63.6012 33.3983Z" fill="url(#paint12_linear_1385_19395)"/>
<path d="M90.4376 37.0516V40.5186C90.4376 43.0627 88.7622 45.5912 85.4348 47.4992C78.7257 51.3773 67.8204 51.3773 61.0725 47.4992C57.6753 45.5369 55.9766 42.9618 55.9844 40.3945V36.9585C55.9844 39.5258 57.6753 42.1009 61.0725 44.0632C67.8204 47.9413 78.7334 47.9413 85.4348 44.0632C88.7622 42.1241 90.4298 39.5568 90.4376 37.0516Z" fill="url(#paint13_linear_1385_19395)"/>
<path d="M85.3183 29.9468C92.0663 33.8249 92.105 40.1618 85.3959 44.0632C78.6868 47.9645 67.7815 47.9413 61.0336 44.0632C54.2857 40.185 54.2934 33.8482 60.9793 29.9468C67.6652 26.0454 78.6014 26.0532 85.3183 29.9468ZM63.6009 42.5507C68.9062 45.6532 77.4768 45.6532 82.7433 42.5507C88.0098 39.4482 87.9865 34.523 82.6812 31.4593C77.376 28.3956 68.8131 28.3568 63.5388 31.4593C58.2646 34.5618 58.2956 39.487 63.6009 42.5507" fill="#FFCE55"/>
<path d="M62.0503 30.6215C60.3651 31.4754 59.0496 32.9151 58.3506 34.6702C58.3506 33.5145 58.3506 32.3433 58.3506 31.2032C59.048 29.4451 60.3637 28.0025 62.0503 27.1467C67.3168 24.0829 75.8874 24.0829 81.1927 27.1467C83.8453 28.6979 85.1794 30.6835 85.1872 32.6924C85.1872 33.848 85.1872 35.0192 85.1872 36.1594C85.1872 34.1505 83.8453 32.1494 81.1927 30.6137C75.8874 27.5577 67.3168 27.5577 62.0503 30.6215Z" fill="#FFCE55"/>
<path d="M58.3498 34.6704C58.194 35.1409 58.1129 35.6329 58.1094 36.1286V32.6615C58.1103 32.1663 58.1888 31.6743 58.3421 31.2034V34.4687C58.3485 34.5358 58.3511 34.6031 58.3498 34.6704V34.6704Z" fill="#FFCE55"/>
<path d="M85.1952 32.7389V36.206C85.1952 38.1993 83.8766 40.1927 81.2628 41.7129C75.9885 44.7766 67.4179 44.7766 62.1204 41.7129C59.4445 40.1617 58.1182 38.145 58.1182 36.1284V32.6614C58.1182 34.678 59.4445 36.7024 62.1126 38.2459C67.4101 41.3018 75.9808 41.3018 81.255 38.2459C83.8766 36.7179 85.1874 34.7323 85.1952 32.7389Z" fill="#F3C541"/>
<path d="M85.1875 36.2061C85.1875 35.0504 85.1875 33.8792 85.1875 32.739V32.7778C85.1953 33.7783 85.1875 35.1667 85.1875 36.2061Z" fill="#FFCE55"/>
<path d="M81.1999 27.1469C86.5051 30.2493 86.5284 35.1746 81.2619 38.2383C75.9954 41.302 67.4171 41.2942 62.1195 38.2383C56.822 35.1823 56.7833 30.2493 62.0497 27.1469C67.3162 24.0444 75.8946 24.0909 81.1999 27.1469Z" fill="#F3C541"/>
<path d="M62.0504 29.0858C67.3169 26.0298 75.8876 26.0298 81.1928 29.0858C83.4266 30.3811 84.7219 32.0099 85.0709 33.693C85.5673 31.3661 84.2953 28.9384 81.1928 27.1545C75.8953 24.0908 67.3247 24.0908 62.0504 27.1467C59.0022 28.9151 57.7302 31.3273 58.2189 33.6309C58.5834 31.9788 59.8554 30.3656 62.0504 29.0858Z" fill="url(#paint14_linear_1385_19395)"/>
<path d="M88.8868 32.7468V36.2139C88.8868 38.7502 87.2114 41.2865 83.8762 43.1945C77.1748 47.0726 66.2618 47.0726 59.5139 43.1945C56.1167 41.2322 54.4181 38.6571 54.4258 36.082V32.615C54.4258 35.1901 56.1089 37.7651 59.5139 39.7275C66.2618 43.6056 77.1671 43.6056 83.8762 39.7275C87.2114 37.8194 88.879 35.2831 88.8868 32.7468Z" fill="url(#paint15_linear_1385_19395)"/>
<path d="M83.8066 25.6421C90.5545 29.5202 90.5855 35.857 83.8841 39.7584C77.1828 43.6598 66.2697 43.6365 59.5218 39.7584C52.7739 35.8803 52.7429 29.5357 59.4365 25.6421C66.1301 21.7484 77.0509 21.7174 83.8066 25.6421ZM62.0891 38.246C67.3866 41.3019 75.9573 41.3019 81.2315 38.246C86.5057 35.19 86.5057 30.2493 81.2005 27.1468C75.8952 24.0443 67.3246 24.0908 62.0503 27.1468C56.7761 30.2027 56.8071 35.1745 62.1124 38.2382" fill="#FFCE55"/>
<path d="M63.6011 26.7048C61.9136 27.5532 60.5988 28.9951 59.9092 30.7535C59.9092 29.5979 59.9092 28.4267 59.9092 27.2787C60.6105 25.5371 61.9233 24.1113 63.6011 23.2688C68.8754 20.1663 77.446 20.1663 82.7435 23.2688C85.3962 24.82 86.7302 26.8056 86.738 28.8067C86.738 29.9624 86.738 31.1336 86.738 32.2815C86.738 30.2726 85.3962 28.2638 82.7435 26.7358C77.4305 23.6411 68.8599 23.6411 63.6011 26.7048Z" fill="#FFCE55"/>
<path d="M59.9016 30.7534C59.742 31.2229 59.6608 31.7156 59.6611 32.2115V28.7445C59.6646 28.2463 59.7457 27.7517 59.9016 27.2786C59.9016 27.8603 59.9016 28.4342 59.9016 29.016V30.5672C59.9049 30.6292 59.9049 30.6914 59.9016 30.7534Z" fill="#FFCE55"/>
<path d="M86.7372 28.8144V32.2815C86.7372 34.2748 85.4264 36.2682 82.8048 37.7884C77.5384 40.8909 68.9677 40.8909 63.6625 37.7884C60.9943 36.2371 59.6602 34.2283 59.668 32.2117V28.7446C59.668 30.7612 60.9943 32.7856 63.6625 34.3214C68.9677 37.4239 77.5384 37.4239 82.8048 34.3214C85.4264 32.8011 86.7372 30.8078 86.7372 28.8144Z" fill="#F3C541"/>
<path d="M86.7295 32.2814C86.7295 31.118 86.7295 29.9546 86.7295 28.8066C86.7373 29.8537 86.7373 31.2421 86.7295 32.2814Z" fill="#FFCE55"/>
<path d="M82.7428 23.2688C88.0481 26.3247 88.0791 31.2887 82.8049 34.3524C77.5306 37.4162 68.9678 37.4549 63.6625 34.3524C58.3572 31.2499 58.334 26.3015 63.6004 23.2688C68.8669 20.2361 77.4453 20.1663 82.7428 23.2688Z" fill="#F3C541"/>
<path d="M63.6012 25.169C68.8754 22.0665 77.446 22.0665 82.7435 25.169C84.9851 26.4566 86.2804 28.0854 86.6217 29.7685C87.1181 27.4416 85.846 25.0217 82.7435 23.2377C77.446 20.1663 68.8754 20.1663 63.6012 23.2688C60.553 25.0372 59.2809 27.4416 59.7773 29.753C60.1341 28.0543 61.4061 26.4488 63.6012 25.169Z" fill="url(#paint16_linear_1385_19395)"/>
<path d="M90.4376 28.8299V32.2969C90.4376 34.8332 88.7622 37.3695 85.4348 39.2775C78.7257 43.1556 67.8204 43.1556 61.0725 39.2775C57.6753 37.3152 55.9766 34.7401 55.9844 32.1728V28.698C55.9844 31.2653 57.6753 33.8404 61.0725 35.8027C67.8204 39.6808 78.7334 39.6808 85.4348 35.8027C88.7622 33.9024 90.4298 31.3661 90.4376 28.8299Z" fill="url(#paint17_linear_1385_19395)"/>
<path d="M85.3183 21.7174C92.0663 25.5955 92.105 31.9324 85.3959 35.826C78.6868 39.7196 67.7815 39.7041 61.0336 35.826C54.2857 31.9479 54.2934 25.5955 60.9793 21.7174C67.6652 17.8393 78.6014 17.8393 85.3183 21.7174ZM63.6009 34.3136C68.9062 37.416 77.4768 37.416 82.7433 34.3136C88.0098 31.2111 87.9865 26.2858 82.6812 23.2299C77.376 20.1739 68.8751 20.1662 63.6009 23.2687C58.3267 26.3712 58.3577 31.2964 63.6629 34.3523" fill="#FFCE55"/>
<path d="M62.4302 22.7802C60.748 23.6356 59.4354 25.0751 58.7383 26.8289C58.7383 25.6732 58.7383 24.5021 58.7383 23.3619C59.4373 21.6068 60.7528 20.1671 62.438 19.3131C67.7122 16.2882 76.2829 16.2882 81.5881 19.3131C84.2408 20.8644 85.5671 22.85 85.5826 24.8588C85.5826 26.0145 85.5826 27.1857 85.5826 28.3259C85.5826 26.317 84.233 24.3159 81.5881 22.7802C76.2751 19.7242 67.7045 19.7242 62.4302 22.7802Z" fill="#FFCE55"/>
<path d="M58.7385 26.8289C58.5827 27.2994 58.5016 27.7914 58.498 28.287V24.82C58.5053 24.3247 58.5864 23.8332 58.7385 23.3618V26.6272C58.7424 26.6944 58.7424 26.7617 58.7385 26.8289Z" fill="#FFCE55"/>
<path d="M85.5829 24.8976V28.3647C85.5829 30.358 84.2643 32.3514 81.6427 33.8716C76.3762 36.9353 67.8056 36.9353 62.5004 33.8716C59.8322 32.3203 58.4981 30.3115 58.5059 28.2871V24.8201C58.5059 26.8444 59.84 28.8611 62.5081 30.4046C67.8056 33.4683 76.3762 33.4683 81.6505 30.4046C84.2643 28.8843 85.5751 26.891 85.5829 24.8976Z" fill="#F3C541"/>
<path d="M85.5752 28.3645C85.5752 27.2088 85.5752 26.0376 85.5752 24.8975V24.9362C85.5829 25.9368 85.5752 27.3252 85.5752 28.3645Z" fill="#FFCE55"/>
<path d="M81.5886 19.313C86.8861 22.4155 86.9171 27.3407 81.6506 30.4045C76.3841 33.4682 67.8057 33.4682 62.5082 30.4045C57.2107 27.3407 57.1719 22.3768 62.4462 19.313C67.7204 16.2493 76.2833 16.2881 81.5886 19.313Z" fill="#F3C541"/>
<path d="M62.4459 21.2522C67.7124 18.1885 76.2831 18.1885 81.5883 21.2522C83.8221 22.5397 85.1174 24.1685 85.4664 25.8516C85.9628 23.5248 84.6908 21.0971 81.5883 19.3131C76.2831 16.2882 67.7124 16.2882 62.4459 19.3131C59.3977 21.0893 58.1257 23.4937 58.6144 25.7973C58.9479 24.1375 60.2432 22.4932 62.4459 21.2522Z" fill="url(#paint18_linear_1385_19395)"/>
<path d="M89.2745 24.9053V28.3724C89.2745 30.9164 87.5991 33.445 84.2639 35.353C77.5625 39.2311 66.6495 39.2311 59.9016 35.353C56.5044 33.3907 54.8057 30.8156 54.8135 28.2483V24.7812C54.8135 27.3486 56.4966 29.9236 59.8938 31.886C66.6495 35.7641 77.5548 35.7641 84.2562 31.886C87.5991 29.9779 89.2667 27.4416 89.2745 24.9053Z" fill="url(#paint19_linear_1385_19395)"/>
<path d="M84.1864 17.8394C90.9421 21.7175 90.9731 28.0543 84.264 31.9557C77.5548 35.8571 66.6573 35.8338 59.9017 31.9557C53.146 28.0776 53.1149 21.7175 59.8241 17.8394C66.5332 13.9613 77.4385 13.907 84.1864 17.8394ZM62.5077 30.4045C67.8052 33.4682 76.3759 33.4682 81.6501 30.4045C86.9244 27.3408 86.8856 22.3768 81.5881 19.3131C76.2906 16.2494 67.7122 16.2881 62.4457 19.3131C57.1792 22.338 57.2025 27.3408 62.5077 30.4045Z" fill="#FFCE55"/>
<path d="M62.8258 18.863C61.1435 19.7185 59.8309 21.1579 59.1338 22.9117C59.1338 21.7561 59.1338 20.5849 59.1338 19.4447C59.8309 17.6909 61.1435 16.2514 62.8258 15.396C68.0922 12.2935 76.6629 12.2935 81.9681 15.396C84.6208 16.9472 85.9471 18.9328 85.9626 20.9417C85.9626 22.0973 85.9626 23.2685 85.9626 24.4087C85.9626 22.3998 84.6208 20.391 81.9681 18.863C76.6629 15.7993 68.0922 15.7993 62.8258 18.863Z" fill="#FFCE55"/>
<path d="M59.1262 22.9119C58.9704 23.3824 58.8893 23.8744 58.8857 24.3701V20.9418C58.8893 20.4462 58.9704 19.9542 59.1262 19.4836V22.749C59.1287 22.8033 59.1287 22.8576 59.1262 22.9119V22.9119Z" fill="#FFCE55"/>
<path d="M85.9697 20.9417V24.4164C85.9697 26.4098 84.6589 28.3954 82.0373 29.9234C76.7708 32.9793 68.2001 32.9793 62.8949 29.9234C60.2267 28.3721 58.8927 26.3555 58.9004 24.3389V20.9417C58.9004 22.9583 60.2267 24.9826 62.9026 26.5261C68.2001 29.5821 76.7708 29.5821 82.0373 26.5261C84.6511 24.9594 85.9619 22.9738 85.9697 20.9417Z" fill="#F3C541"/>
<path d="M85.9551 24.4475V24.4087C85.9551 23.253 85.9551 22.0818 85.9551 20.9417C85.9628 22.0198 85.9628 23.4004 85.9551 24.4475Z" fill="#FFCE55"/>
<path d="M81.9753 15.3959C87.2728 18.4596 87.3038 23.4236 82.0296 26.4796C76.7553 29.5355 68.1924 29.5821 62.8949 26.4796C57.5974 23.3771 57.5587 18.4596 62.8251 15.3959C68.0916 12.3322 76.67 12.3322 81.9753 15.3959Z" fill="#FCCE5B"/>
<path d="M62.8258 17.3273C68.0923 14.2636 76.6629 14.2636 81.9682 17.3273C84.202 18.6226 85.4973 20.2514 85.8463 21.9345C86.3427 19.6076 85.0707 17.1799 81.9682 15.396C76.6629 12.2935 68.0923 12.2935 62.8258 15.396C59.7776 17.1644 58.5056 19.5766 58.9942 21.8802C59.3588 20.2126 60.6308 18.6148 62.8258 17.3273Z" fill="url(#paint20_linear_1385_19395)"/>
<path d="M89.6621 20.9883V24.4553C89.6621 26.9916 87.9868 29.5279 84.6516 31.4359C77.9502 35.314 67.0372 35.314 60.2893 31.4359C56.8921 29.4736 55.1934 26.8985 55.2012 24.3235V20.8875C55.2012 23.4625 56.8921 26.0376 60.2893 27.9922C67.0372 31.8703 77.9502 31.8703 84.6516 27.9922C87.9868 26.0609 89.6544 23.5246 89.6621 20.9883Z" fill="url(#paint21_linear_1385_19395)"/>
<path d="M84.543 13.8836C91.2909 17.7617 91.3297 24.0985 84.6205 27.9922C77.9114 31.8858 67.0061 31.8703 60.2582 27.9922C53.5103 24.1141 53.518 17.7772 60.2117 13.8836C66.9053 9.98995 77.8261 9.98219 84.543 13.8836ZM62.8953 26.4875C68.1928 29.5434 76.7635 29.5434 82.0299 26.4875C87.2964 23.4315 87.2732 18.4675 81.9757 15.4038C76.6781 12.3401 68.0997 12.3013 62.8333 15.4038C57.5668 18.5063 57.59 23.4315 62.8953 26.4952" fill="#FCCE5B"/>
<path d="M44.8227 73.1025C43.1317 73.9535 41.8103 75.3935 41.1074 77.1513C41.1074 75.9956 41.1074 74.8244 41.1074 73.6842C41.8045 71.9304 43.1171 70.4909 44.7994 69.6355C50.0736 66.5795 58.6443 66.5795 63.9418 69.6355C66.5944 71.1867 67.9285 73.1723 67.9362 75.1812C67.9362 76.3369 67.9362 77.508 67.9362 78.6482C67.9362 76.6394 66.5944 74.6382 63.9418 73.1025C58.6598 70.0466 50.0891 70.0466 44.8227 73.1025Z" fill="#FFCE55"/>
<path d="M41.1076 77.1514C40.9481 77.6209 40.8668 78.1136 40.8672 78.6095V75.1425C40.8668 74.6465 40.9481 74.1539 41.1076 73.6843C41.1076 74.266 41.1076 74.84 41.1076 75.4217V76.973C41.1109 77.0324 41.1109 77.0919 41.1076 77.1514V77.1514Z" fill="#FFCE55"/>
<path d="M67.9677 75.2357V78.7027C67.9677 80.696 66.6492 82.6894 64.0353 84.2096C58.7611 87.3121 50.1904 87.3121 44.8929 84.2096C42.2248 82.6584 40.8907 80.6495 40.8985 78.6251V75.1426C40.8985 77.167 42.2248 79.1836 44.8929 80.7271C50.1982 83.8296 58.7688 83.8296 64.0353 80.7271C66.6569 79.2068 67.9677 77.2135 67.9677 75.2357Z" fill="#F3C541"/>
<path d="M67.96 78.687C67.96 77.5313 67.96 76.3601 67.96 75.22C67.9677 76.2593 67.9677 77.6477 67.96 78.687Z" fill="#FFCE55"/>
<path d="M63.9733 69.6355C69.2785 72.7379 69.3096 77.6632 64.0353 80.7269C58.7611 83.7906 50.1982 83.8294 44.8929 80.7269C39.5877 77.6244 39.5567 72.6992 44.8309 69.6355C50.1051 66.5717 58.6758 66.5795 63.9733 69.6355Z" fill="#EAB642"/>
<path d="M44.8307 71.5745C50.1049 68.472 58.6755 68.472 63.973 71.5745C66.2146 72.8621 67.5021 74.4909 67.8512 76.174C68.3476 73.8471 67.0755 71.4194 63.973 69.6355C58.6755 66.5795 50.1049 66.5795 44.8307 69.6355C41.7825 71.4116 40.5104 73.8161 41.0068 76.1197C41.3636 74.4598 42.6589 72.8466 44.8307 71.5745Z" fill="url(#paint22_linear_1385_19395)"/>
<path d="M71.6672 75.2356V78.7026C71.6672 81.2467 69.9918 83.7752 66.6644 85.6832C59.9552 89.5613 49.05 89.5613 42.3021 85.6832C38.8893 83.7674 37.2295 81.1691 37.2295 78.6018V75.1348C37.2295 77.7021 38.9204 80.2771 42.3176 82.2395C49.0655 86.1176 59.9708 86.1176 66.6799 82.2395C69.9918 80.3004 71.6594 77.7641 71.6672 75.2356Z" fill="url(#paint23_linear_1385_19395)"/>
<path d="M66.579 68.1231C73.3269 72.0012 73.3657 78.338 66.6566 82.2394C59.9475 86.1408 49.0422 86.1175 42.2943 82.2394C35.5463 78.3613 35.5076 72.0245 42.2089 68.1231C48.9103 64.2217 59.8311 64.2295 66.579 68.1231ZM44.8616 80.727C50.1668 83.8294 58.7375 83.8294 64.004 80.727C69.2704 77.6245 69.2472 72.6993 63.9419 69.6355C58.6366 66.5718 50.0738 66.5796 44.7995 69.6355C39.5253 72.6915 39.5563 77.6632 44.8616 80.727" fill="#FCCE5B"/>
<path d="M44.8227 65.2685C43.1286 66.1117 41.8056 67.5507 41.1074 69.3095C41.1074 68.1538 41.1074 66.9826 41.1074 65.8425C41.8024 64.0893 43.1159 62.6516 44.7994 61.8015C50.0736 58.699 58.6443 58.699 63.9418 61.8015C66.5944 63.3527 67.9285 65.3383 67.9362 67.3394C67.9362 68.4951 67.9362 69.6663 67.9362 70.8065C67.9362 68.8054 66.5944 66.7965 63.9418 65.2685C58.6598 62.2048 50.0891 62.2048 44.8227 65.2685Z" fill="#FFCE55"/>
<path d="M41.1076 69.3096C40.9487 69.782 40.8675 70.2771 40.8672 70.7755V67.3007C40.8668 66.8047 40.9481 66.3121 41.1076 65.8425C41.1076 66.4242 41.1076 66.9982 41.1076 67.5799V69.1312C41.1109 69.1906 41.1109 69.2501 41.1076 69.3096V69.3096Z" fill="#FFCE55"/>
<path d="M67.9677 67.3783V70.8454C67.9677 72.8387 66.6492 74.8321 64.0353 76.3523C58.7611 79.4548 50.1904 79.4548 44.8929 76.3523C42.2248 74.8011 40.8907 72.7922 40.8985 70.7756V67.3008C40.8985 69.3252 42.2248 71.3495 44.8929 72.8853C50.1982 75.9878 58.7688 75.9878 64.0353 72.8853C66.6569 71.3573 67.9677 69.3717 67.9677 67.3783Z" fill="#F3C541"/>
<path d="M67.96 70.8452C67.96 69.6895 67.96 68.5183 67.96 67.3782V67.417C67.9677 68.4175 67.9677 69.8059 67.96 70.8452Z" fill="#FFCE55"/>
<path d="M63.9733 61.8015C69.2785 64.8574 69.3096 69.8059 64.0353 72.9084C58.7611 76.0109 50.1982 76.0109 44.8929 72.9084C39.5877 69.8059 39.5567 64.8574 44.8309 61.8015C50.1051 58.7455 58.6758 58.7378 63.9733 61.8015Z" fill="#F3C541"/>
<path d="M44.8307 63.7328C50.1049 60.6303 58.6755 60.6303 63.973 63.7328C66.2146 65.0203 67.5021 66.6491 67.8512 68.3322C68.3476 66.0054 67.0755 63.5777 63.973 61.8015C58.6755 58.699 50.1049 58.699 44.8307 61.8015C41.7825 63.6009 40.5104 65.9743 41.0068 68.2547C41.3636 66.6181 42.6589 65.0126 44.8307 63.7328Z" fill="url(#paint24_linear_1385_19395)"/>
<path d="M71.6672 67.3938V70.8608C71.6672 73.3971 69.9918 75.9334 66.6644 77.8414C59.9552 81.7196 49.05 81.7196 42.3021 77.8414C38.8893 75.9024 37.2295 73.3273 37.2295 70.76V67.293C37.2295 69.8603 38.9204 72.4353 42.3176 74.3977C49.0655 78.2758 59.9708 78.2758 66.6799 74.3977C69.9918 72.4586 71.6594 69.9301 71.6672 67.3938Z" fill="url(#paint25_linear_1385_19395)"/>
<path d="M66.579 60.2891C73.3269 64.1672 73.3657 70.504 66.6566 74.3977C59.9475 78.2913 49.0422 78.2758 42.2943 74.3977C35.5463 70.5196 35.5076 64.1827 42.2089 60.2891C48.9103 56.3955 59.8311 56.3877 66.579 60.2891ZM44.8926 72.9085C50.1979 76.011 58.7685 76.011 64.035 72.9085C69.3015 69.806 69.2782 64.8808 63.9729 61.8248C58.6677 58.7689 50.1048 58.7223 44.8306 61.8248C39.5563 64.9273 39.5563 69.806 44.8926 72.9085Z" fill="#FFCE55"/>
<path d="M45.599 61.3439C43.908 62.1949 42.5866 63.635 41.8838 65.3927C41.8838 64.237 41.8838 63.0658 41.8838 61.9257C42.5759 60.1688 43.89 58.7277 45.5758 57.8769C50.8422 54.7744 59.4129 54.7744 64.7181 57.8769C67.3708 59.4282 68.7048 61.4138 68.7126 63.4226C68.7126 64.5783 68.7126 65.7495 68.7126 66.8897C68.7126 64.8808 67.3708 62.8797 64.7181 61.3439C59.4361 58.2802 50.8655 58.2802 45.599 61.3439Z" fill="#FFCE55"/>
<path d="M41.884 65.3928C41.7319 65.8642 41.6508 66.3557 41.6436 66.851V63.384C41.6432 62.888 41.7244 62.3954 41.884 61.9258C41.884 62.4997 41.884 63.0815 41.884 63.6554V65.2067C41.8906 65.2685 41.8906 65.3309 41.884 65.3928V65.3928Z" fill="#FFCE55"/>
<path d="M68.744 63.4616V66.9286C68.744 68.922 67.4254 70.9153 64.8116 72.4356C59.5373 75.5381 50.9667 75.5381 45.6692 72.4356C43.0011 70.8843 41.667 68.8754 41.667 66.8511V63.384C41.667 65.4007 42.9933 67.425 45.6614 68.9685C50.959 72.071 59.5296 72.071 64.8038 68.9685C67.4254 67.4793 68.7362 65.4549 68.744 63.4616Z" fill="#F3C541"/>
<path d="M68.7363 66.9284V66.8896C68.7363 65.734 68.7363 64.5628 68.7363 63.4226C68.7441 64.5007 68.7363 65.9279 68.7363 66.9284Z" fill="#FFCE55"/>
<path d="M64.7497 57.8771C70.0549 60.9408 70.0782 65.9048 64.8117 68.9685C59.5452 72.0322 50.9669 72.071 45.6693 68.9685C40.3718 65.866 40.3331 60.9408 45.6073 57.8771C50.8815 54.8134 59.4444 54.8134 64.7497 57.8771Z" fill="#F3C541"/>
<path d="M45.6071 59.816C50.8736 56.7135 59.4442 56.7135 64.7495 59.816C66.9833 61.1113 68.2786 62.7401 68.6276 64.4232C69.124 62.0964 67.852 59.6687 64.7495 57.8847C59.4442 54.7822 50.8736 54.7822 45.6071 57.8847C42.5589 59.6532 41.2869 62.0498 41.7755 64.3767C42.1323 62.7014 43.4353 61.0881 45.6071 59.816Z" fill="url(#paint26_linear_1385_19395)"/>
<path d="M72.4358 63.4692V66.9363C72.4358 69.4726 70.7604 72.0089 67.4253 73.9169C60.7239 77.795 49.8186 77.795 43.0629 73.9169C39.6579 71.9856 38.0059 69.4105 38.0059 66.8432V63.3684C38.0059 65.9435 39.6967 68.5186 43.0939 70.4809C49.8419 74.359 60.7471 74.359 67.4563 70.4809C70.7604 68.5418 72.428 66.0055 72.4358 63.4692Z" fill="url(#paint27_linear_1385_19395)"/>
<path d="M67.3554 56.3645C74.1033 60.2427 74.1343 66.5795 67.433 70.4809C60.7316 74.3823 49.8186 74.359 43.0706 70.4809C36.3227 66.6028 36.2839 60.2659 42.9853 56.3645C49.6867 52.4632 60.5997 52.4709 67.3554 56.3645ZM45.6379 68.9684C50.9355 72.0709 59.5061 72.0709 64.7803 68.9684C70.0546 65.8659 70.0235 60.9407 64.7183 57.877C59.413 54.8133 50.8424 54.7745 45.5759 57.877C40.3094 60.9795 40.3327 65.928 45.669 68.9684" fill="#FFCE55"/>
<path d="M46.3667 57.8149C44.6786 58.6673 43.3601 60.1072 42.6592 61.8636C42.6592 60.7002 42.6592 59.5368 42.6592 58.3888C43.3598 56.6366 44.6751 55.1999 46.3589 54.3478C51.6254 51.2841 60.196 51.2841 65.5013 54.3478C68.1539 55.8991 69.4802 57.8847 69.4957 59.8858C69.4957 61.0415 69.4957 62.2127 69.4957 63.3528C69.4957 61.3517 68.1462 59.3428 65.5013 57.8149C60.2115 54.7512 51.6409 54.7512 46.3667 57.8149Z" fill="#FFCE55"/>
<path d="M42.6594 61.8637C42.5036 62.3342 42.4225 62.8263 42.4189 63.3219V59.8471C42.4262 59.3518 42.5073 58.8603 42.6594 58.3889V61.662C42.6633 61.7292 42.6633 61.7965 42.6594 61.8637V61.8637Z" fill="#FFCE55"/>
<path d="M69.5194 59.9248V63.3918C69.5194 65.3852 68.2009 67.3785 65.5793 68.8988C60.3128 72.0012 51.7421 72.0012 46.4369 68.8988C43.7687 67.3475 42.4347 65.3386 42.4424 63.322V59.855C42.4424 61.8716 43.7765 63.896 46.4446 65.4317C51.7421 68.5342 60.3128 68.5342 65.587 65.4317C68.2009 63.9115 69.5117 61.9181 69.5194 59.9248Z" fill="#F3C541"/>
<path d="M65.5251 54.3479C70.8226 57.4038 70.8536 62.3678 65.5871 65.4315C60.3206 68.4953 51.7422 68.534 46.4447 65.4315C41.1472 62.329 41.1084 57.3961 46.3827 54.3479C51.6569 51.2997 60.2198 51.2842 65.5251 54.3479Z" fill="#F3C541"/>
<path d="M46.3825 56.2791C51.6489 53.1766 60.2196 53.1766 65.5249 56.2791C67.7586 57.5667 69.0539 59.1955 69.403 60.8786C69.8994 58.5517 68.6273 56.1318 65.5249 54.3478C60.2196 51.2841 51.6489 51.2841 46.3825 54.3478C43.3343 56.1163 42.0622 58.5207 42.5509 60.832C42.9077 59.1644 44.2107 57.5589 46.3825 56.2791Z" fill="url(#paint28_linear_1385_19395)"/>
<path d="M73.211 59.9403V63.4073C73.211 65.9436 71.5356 68.4799 68.2004 70.3879C61.4991 74.266 50.586 74.266 43.8381 70.3879C40.4409 68.4256 38.7423 65.8505 38.75 63.2832V59.8162C38.75 62.3835 40.4331 64.9585 43.8304 66.9209C50.586 70.799 61.4913 70.799 68.1927 66.9209C71.5356 65.0051 73.2032 62.4765 73.211 59.9403Z" fill="url(#paint29_linear_1385_19395)"/>
<path d="M68.1229 52.8355C74.8786 56.7136 74.9096 63.0504 68.2005 66.9441C61.4914 70.8377 50.5939 70.8222 43.8382 66.9441C37.0825 63.066 37.0515 56.7291 43.7606 52.8355C50.4698 48.9419 61.375 48.9341 68.1229 52.8355ZM46.4443 65.4316C51.7418 68.5341 60.3124 68.5341 65.5867 65.4316C70.8609 62.3291 70.8221 57.3961 65.5246 54.3479C60.2271 51.2997 51.6487 51.2842 46.3822 54.3479C41.1157 57.4117 41.108 62.3756 46.4443 65.4316Z" fill="#FFCE55"/>
<path d="M44.8227 53.5179C43.13 54.3592 41.8072 55.7953 41.1074 57.5512C41.1074 56.3955 41.1074 55.2243 41.1074 54.0841C41.8045 52.3303 43.1171 50.8908 44.7994 50.0354C50.0736 46.9794 58.6443 46.9794 63.9418 50.0354C66.5944 51.5866 67.9285 53.5722 67.9362 55.5811C67.9362 56.7368 67.9362 57.9079 67.9362 59.0481C67.9362 57.047 66.5944 55.0381 63.9418 53.5024C58.6598 50.4154 50.0891 50.4154 44.8227 53.5179Z" fill="#FFCE55"/>
<path d="M41.1076 57.5513C40.9481 58.0208 40.8668 58.5135 40.8672 59.0094V55.5424C40.8668 55.0464 40.9481 54.5538 41.1076 54.0842C41.1076 54.6659 41.1076 55.2399 41.1076 55.8216V57.3729C41.1109 57.4323 41.1109 57.4918 41.1076 57.5513V57.5513Z" fill="#FFCE55"/>
<path d="M67.9677 55.62V59.0871C67.9677 61.0804 66.6492 63.0738 64.0353 64.594C58.7611 67.6965 50.1904 67.6965 44.8929 64.594C42.2248 63.0428 40.8907 61.0339 40.8985 59.0095V55.5425C40.8985 57.5669 42.2248 59.5835 44.8929 61.127C50.1982 64.2295 58.7688 64.2295 64.0353 61.127C66.6569 59.6067 67.9677 57.6134 67.9677 55.62Z" fill="#F3C541"/>
<path d="M67.96 59.0869V59.0481C67.96 57.8924 67.96 56.7212 67.96 55.5811C67.9677 56.6592 67.9677 58.0475 67.96 59.0869Z" fill="#FFCE55"/>
<path d="M63.9733 50.0354C69.2785 53.0991 69.3096 58.0631 64.0353 61.1268C58.7611 64.1905 50.1982 64.2293 44.8929 61.1268C39.5877 58.0243 39.5567 53.0991 44.8309 50.0354C50.1051 46.9716 58.6758 46.9794 63.9733 50.0354Z" fill="#F3C541"/>
<path d="M44.8307 51.9669C50.1049 48.8644 58.6755 48.8644 63.973 51.9669C66.2146 53.2544 67.5021 54.8832 67.8512 56.5663C68.3476 54.2394 67.0755 51.8117 63.973 50.0278C58.6755 46.9719 50.1049 46.9719 44.8307 50.0278C41.7825 51.804 40.5104 54.2084 41.0068 56.5198C41.3636 54.8599 42.6589 53.2466 44.8307 51.9669Z" fill="url(#paint30_linear_1385_19395)"/>
<path d="M71.6672 55.6277V59.0948C71.6672 61.6388 69.9918 64.1674 66.6644 66.0754C59.9552 69.9535 49.05 69.9535 42.3021 66.0754C38.8893 64.1441 37.2295 61.569 37.2295 59.0017V55.5347C37.2295 58.102 38.9204 60.6771 42.3176 62.6394C49.0655 66.5175 59.9708 66.5175 66.6799 62.6394C69.9918 60.7003 71.6594 58.1718 71.6672 55.6277Z" fill="url(#paint31_linear_1385_19395)"/>
<path d="M66.579 48.523C73.3269 52.4011 73.3657 58.7379 66.6566 62.6393C59.9475 66.5407 49.0422 66.5174 42.2943 62.6393C35.5463 58.7612 35.5076 52.4244 42.2089 48.523C48.9103 44.6216 59.8311 44.6294 66.579 48.523ZM44.8616 61.1269C50.1668 64.2294 58.7375 64.2294 64.004 61.1269C69.2704 58.0244 69.2472 53.0992 63.9419 50.0355C58.6366 46.9717 50.0738 46.9795 44.7995 50.0355C39.5253 53.0914 39.5563 58.0631 44.8616 61.1269" fill="#FFCE55"/>
<path d="M46.3667 49.5854C44.6786 50.4379 43.3601 51.8777 42.6592 53.6342C42.6592 52.4785 42.6592 51.3073 42.6592 50.1671C43.3582 48.412 44.6737 46.9723 46.3589 46.1184C51.6254 43.0159 60.196 43.0159 65.5013 46.1184C68.1539 47.6696 69.4802 49.6552 69.4957 51.6641C69.4957 52.8198 69.4957 53.991 69.4957 55.1311C69.4957 53.1223 68.1462 51.1134 65.5013 49.5854C60.2115 46.5372 51.6409 46.5372 46.3667 49.5854Z" fill="#FFCE55"/>
<path d="M42.6595 53.6343C42.5114 54.0982 42.4355 54.5822 42.4346 55.0692V51.6254C42.4368 51.1309 42.5126 50.6395 42.6595 50.1672V53.4326C42.6634 53.4998 42.6634 53.5671 42.6595 53.6343V53.6343Z" fill="#FFCE55"/>
<path d="M69.5194 51.7031V55.1701C69.5194 57.1634 68.2009 59.149 65.5793 60.677C60.3128 63.733 51.7421 63.733 46.4369 60.677C43.7687 59.1258 42.4347 57.1091 42.4424 55.0925V51.6255C42.4424 53.6421 43.7765 55.6665 46.4446 57.21C51.7421 60.2659 60.3128 60.2659 65.587 57.21C68.2009 55.682 69.5117 53.6964 69.5194 51.7031Z" fill="#F3C541"/>
<path d="M65.5251 46.1183C70.8226 49.1821 70.8536 54.146 65.5871 57.202C60.3206 60.258 51.7422 60.3045 46.4447 57.202C41.1472 54.0995 41.1084 49.1821 46.3827 46.1183C51.6569 43.0546 60.2198 43.0546 65.5251 46.1183Z" fill="#F3C541"/>
<path d="M46.3825 48.0885C51.6489 44.986 60.2196 44.986 65.5249 48.0885C67.7586 49.3838 69.0539 51.0126 69.403 52.6957C69.8994 50.3688 68.6273 47.9411 65.5249 46.1572C60.2196 43.0547 51.6489 43.0547 46.3825 46.1572C43.3343 47.9256 42.0622 50.3378 42.5509 52.6414C42.9077 50.9428 44.2107 49.3295 46.3825 48.0885Z" fill="url(#paint32_linear_1385_19395)"/>
<path d="M73.2111 51.7106V55.1777C73.2111 57.714 71.5358 60.2502 68.2006 62.1583C61.4992 66.0364 50.5862 66.0364 43.8383 62.1583C40.4333 60.227 38.7347 57.6519 38.7812 55.0691V51.6021C38.7812 54.1771 40.4643 56.7522 43.8615 58.7145C50.6172 62.5926 61.5225 62.5926 68.2239 58.7145C71.5358 56.7832 73.2034 54.2469 73.2111 51.7106Z" fill="url(#paint33_linear_1385_19395)"/>
<path d="M68.1229 44.606C74.8786 48.4841 74.9096 54.821 68.2005 58.7223C61.4914 62.6237 50.5939 62.6005 43.8382 58.7223C37.0825 54.8442 37.0515 48.4996 43.7606 44.606C50.4698 40.7124 61.375 40.7046 68.1229 44.606ZM46.4443 57.2099C51.7418 60.2658 60.3124 60.2658 65.5867 57.2099C70.8609 54.1539 70.8221 49.1899 65.5246 46.1262C60.2271 43.0625 51.6487 43.0237 46.3822 46.1262C41.1157 49.2287 41.139 54.1539 46.4443 57.2176" fill="#FFCE55"/>
<path d="M45.2114 45.6686C43.5277 46.5207 42.2123 47.9574 41.5117 49.7096C41.5117 48.5539 41.5117 47.3828 41.5117 46.2426C42.2067 44.4894 43.5202 43.0517 45.2037 42.2016C50.4702 39.1379 59.0408 39.1379 64.3461 42.2016C66.9987 43.7528 68.3328 45.7384 68.3405 47.7395C68.3405 48.8952 68.3405 50.0664 68.3405 51.2066C68.3405 49.2055 66.9987 47.1966 64.3461 45.6686C59.0486 42.6049 50.4779 42.6049 45.2114 45.6686Z" fill="#FFCE55"/>
<path d="M41.512 49.7097C41.3593 50.1834 41.2808 50.6779 41.2793 51.1756V47.7008C41.2789 47.2049 41.3602 46.7123 41.5197 46.2427C41.5197 46.8244 41.5197 47.3984 41.5197 47.9801V49.5313C41.5206 49.5909 41.518 49.6504 41.512 49.7097Z" fill="#FFCE55"/>
<path d="M68.3564 47.7785V51.2455C68.3564 53.2389 67.0378 55.2322 64.424 56.7525C59.1497 59.8549 50.5791 59.8549 45.2816 56.7525C42.6135 55.2012 41.2794 53.1923 41.2871 51.1757V47.7009C41.2871 49.7253 42.6135 51.7497 45.2816 53.2854C50.5869 56.3879 59.1575 56.3879 64.424 53.2854C67.0456 51.7652 68.3564 49.7718 68.3564 47.7785Z" fill="#F3C541"/>
<path d="M68.3486 51.2454C68.3486 50.0897 68.3486 48.9185 68.3486 47.7783V47.8171C68.3564 48.8177 68.3486 50.206 68.3486 51.2454Z" fill="#FFCE55"/>
<path d="M64.3766 42.2016C69.6819 45.2576 69.7051 50.2216 64.4387 53.2853C59.1722 56.349 50.6015 56.3878 45.2963 53.2853C39.991 50.1828 39.9677 45.2576 45.2342 42.2016C50.5007 39.1457 59.0558 39.1379 64.3766 42.2016Z" fill="#F3C541"/>
<path d="M45.2194 44.1329C50.4859 41.108 59.0565 41.108 64.3773 44.1329C66.6111 45.4204 67.9064 47.0492 68.2554 48.7323C68.7518 46.4055 67.4798 43.9855 64.3773 42.2016C59.0721 39.1379 50.5014 39.1379 45.2349 42.2016C42.1867 43.97 40.9147 46.3744 41.4111 48.6858C41.7446 47.0182 43.0244 45.4127 45.2194 44.1329Z" fill="url(#paint34_linear_1385_19395)"/>
<path d="M72.0479 47.7939V51.261C72.0479 53.7973 70.3726 56.3336 67.0452 58.2416C60.336 62.1197 49.4308 62.1197 42.6828 58.2416C39.2779 56.2793 37.587 53.7042 37.5948 51.1369V47.6931C37.5948 50.2604 39.2856 52.8355 42.6828 54.7978C49.4308 58.6759 60.336 58.6759 67.0452 54.7978C70.3726 52.8588 72.0402 50.3302 72.0479 47.7939Z" fill="url(#paint35_linear_1385_19395)"/>
<path d="M66.9677 40.6892C73.7156 44.5674 73.7544 50.9042 67.0453 54.7978C60.3361 58.6915 49.4309 58.676 42.6829 54.7978C35.935 50.9197 35.8962 44.5829 42.5976 40.6892C49.299 36.7956 60.212 36.7879 66.9677 40.6892ZM45.2503 53.2854C50.5555 56.3879 59.1261 56.3879 64.3926 53.2854C69.6591 50.1829 69.6669 45.2577 64.3771 42.2017C59.0874 39.1458 50.5012 39.138 45.2347 42.2017C39.9683 45.2654 39.9915 50.2217 45.2968 53.2854" fill="#FFCE55"/>
<path d="M45.599 41.7439C43.9136 42.5873 42.5929 44.0155 41.8838 45.7616C41.8838 44.6059 41.8838 43.4347 41.8838 42.2946C42.5759 40.5377 43.89 39.0966 45.5758 38.2458C50.8422 35.1433 59.4129 35.1433 64.7181 38.2458C67.3708 39.7971 68.7048 41.7827 68.7126 43.7915C68.7126 44.9472 68.7126 46.1184 68.7126 47.2586C68.7126 45.2497 67.3708 43.2486 64.7181 41.7128C59.4361 38.6802 50.8655 38.6802 45.599 41.7439Z" fill="#FFCE55"/>
<path d="M41.884 45.7617C41.7319 46.2331 41.6508 46.7246 41.6436 47.2199V43.7528C41.6466 43.2673 41.7277 42.7854 41.884 42.3257C41.884 42.8996 41.884 43.4814 41.884 44.0631V45.6143C41.8881 45.6634 41.8881 45.7127 41.884 45.7617Z" fill="#FFCE55"/>
<path d="M68.744 43.8614V47.3129C68.744 49.3063 67.4254 51.2996 64.8116 52.8198C59.5373 55.8835 50.9667 55.8835 45.6692 52.8198C43.0011 51.2686 41.667 49.2597 41.667 47.2353V43.7683C41.667 45.7849 42.9933 47.8093 45.6614 49.3528C50.959 52.4165 59.5296 52.4165 64.8038 49.3528C67.4254 47.8481 68.7362 45.8547 68.744 43.8614Z" fill="#F3C541"/>
<path d="M68.7363 47.313C68.7363 46.1573 68.7363 44.9861 68.7363 43.8459C68.7441 44.9008 68.7363 46.2892 68.7363 47.313Z" fill="#FFCE55"/>
<path d="M64.7497 38.2768C70.0549 41.3405 70.0782 46.3045 64.8117 49.3682C59.5452 52.4319 50.9669 52.4319 45.6693 49.3682C40.3718 46.3045 40.3331 41.3405 45.6073 38.2768C50.8815 35.2131 59.4444 35.2131 64.7497 38.2768Z" fill="#FCCE5B"/>
<path d="M45.6071 40.2159C50.8736 37.1134 59.4442 37.1134 64.7495 40.2159C66.9833 41.5034 68.2786 43.1322 68.6276 44.8153C69.124 42.4885 67.852 40.0608 64.7495 38.2768C59.4442 35.1743 50.8736 35.1743 45.6071 38.2768C42.5589 40.053 41.2869 42.4574 41.7755 44.761C42.1323 43.1012 43.4353 41.4879 45.6071 40.2159Z" fill="url(#paint36_linear_1385_19395)"/>
<path d="M72.4358 43.8691V47.3129C72.4358 49.8492 70.7604 52.3855 67.4253 54.2935C60.7239 58.1716 49.8186 58.1716 43.0629 54.2935C39.6579 52.3855 38.0059 49.8104 38.0059 47.2431V43.7683C38.0059 46.3434 39.6967 48.9184 43.0939 50.8808C49.8419 54.7589 60.7471 54.7589 67.4563 50.8808C70.7604 48.9417 72.428 46.4054 72.4358 43.8691Z" fill="url(#paint37_linear_1385_19395)"/>
<path d="M67.3554 36.7644C74.1033 40.6426 74.1343 46.9794 67.433 50.8808C60.7316 54.7822 49.8186 54.7589 43.0706 50.8808C36.3227 47.0027 36.2839 40.6658 42.9853 36.7644C49.6867 32.8631 60.5997 32.8708 67.3554 36.7644ZM45.6379 49.3683C50.9355 52.432 59.5061 52.432 64.7803 49.3683C70.0546 46.3046 70.0235 41.3406 64.7183 38.2769C59.413 35.2132 50.8424 35.1744 45.5759 38.2769C40.3094 41.3794 40.3327 46.3046 45.669 49.3683" fill="#FCCE5B"/>
<path opacity="0.15" d="M61.7013 124.619L4.77832 91.2598V36.2681L61.7013 69.6276V124.619Z" fill="#59A2A2"/>
<path opacity="0.3" d="M124.806 89.4527L61.7012 124.945V69.6278L124.806 33.3596V89.4527Z" fill="#59A2A2"/>
<path d="M46.3747 99.3806C52.4918 99.3806 57.4506 94.4217 57.4506 88.3047C57.4506 82.1876 52.4918 77.2288 46.3747 77.2288C40.2577 77.2288 35.2988 82.1876 35.2988 88.3047C35.2988 94.4217 40.2577 99.3806 46.3747 99.3806Z" fill="url(#paint38_radial_1385_19395)"/>
<path d="M67.875 89.9724L90.2052 101.94L111.062 89.2588L88.111 57.6987L67.875 89.9724Z" fill="#A7705A"/>
<path d="M90.205 101.94L88.1109 57.6987L66.2383 89.7242L90.205 101.94Z" fill="#DF9578"/>
<path fill-rule="evenodd" clip-rule="evenodd" d="M140 17.2267C140 14.9463 139.062 13.2632 137.456 12.666L127.373 8.92749C125.76 8.3225 123.495 9.45491 121.874 11.6732C119.027 15.5901 114.599 21.6632 111.791 25.4715C110.257 27.5311 109.388 30.0098 109.301 32.5762V75.8793C109.214 76.4033 109.284 76.9415 109.503 77.4256C109.722 77.9097 110.079 78.318 110.53 78.5988C110.981 78.8795 111.505 79.0201 112.036 79.0027C112.567 78.9852 113.081 78.8106 113.513 78.5009L135.789 67.363C137.023 66.6936 138.052 65.7017 138.767 64.4932C139.53 63.2966 139.956 61.9168 140 60.4987V17.2267ZM124.651 16.9242C126.318 16.0942 127.668 16.9242 127.668 18.8012C127.616 19.8046 127.312 20.7788 126.785 21.6341C126.258 22.4894 125.524 23.1982 124.651 23.6954C122.983 24.5253 121.634 23.6954 121.634 21.8183C121.684 20.8146 121.987 19.8398 122.514 18.9843C123.042 18.1288 123.777 17.4202 124.651 16.9242V16.9242Z" fill="#A7705A"/>
<path fill-rule="evenodd" clip-rule="evenodd" d="M110.332 33.0882C110.332 42.2095 109.386 66.8355 109.301 75.8793V32.5762C109.404 30.0039 110.292 27.5246 111.845 25.4715C114.622 21.6632 119.05 15.5901 121.928 11.6732C123.549 9.45491 125.806 8.3225 127.427 8.92749L137.51 12.666C137.8 12.7732 138.074 12.9193 138.325 13.1003L128.482 9.4394C126.861 8.84217 124.604 9.97458 122.983 12.1851L112.9 25.9834C111.346 28.0365 110.459 30.5158 110.356 33.0882H110.332ZM127.117 17.1258C128.055 17.2344 128.668 18.0333 128.668 19.3131C128.615 20.3163 128.312 21.2903 127.784 22.1454C127.257 23.0006 126.524 23.7096 125.651 24.2073C125.276 24.4584 124.828 24.5752 124.379 24.5386C123.929 24.502 123.506 24.3141 123.177 24.0056C123.677 24.0399 124.177 23.9323 124.619 23.6954C125.492 23.1982 126.227 22.4894 126.754 21.6341C127.281 20.7788 127.585 19.8046 127.637 18.8012C127.669 18.1934 127.473 17.5955 127.086 17.1258H127.117Z" fill="#E2DBD7"/>
<path fill-rule="evenodd" clip-rule="evenodd" d="M110.829 78.7568C110.712 78.7103 108.285 77.4925 108.176 77.4227C107.758 77.1095 107.426 76.6957 107.21 76.2198C106.994 75.7439 106.903 75.2212 106.943 74.7003V31.374C107.046 28.8029 107.931 26.3244 109.479 24.2693L119.562 10.4709C121.183 8.25263 123.44 7.12798 125.061 7.72521L135.144 11.4637C135.362 11.549 137.929 12.7745 138.123 12.8909C138.252 12.9668 138.367 13.0638 138.464 13.1778C138.188 12.9596 137.879 12.7868 137.549 12.6659L127.466 8.92743C125.853 8.32244 123.588 9.45485 121.967 11.6731C119.12 15.59 114.691 21.6632 111.884 25.4715C110.316 27.5199 109.415 29.9996 109.301 32.5762V75.8792C109.254 76.4008 109.344 76.9255 109.56 77.4024C109.776 77.8794 110.111 78.2925 110.534 78.6017C110.628 78.661 110.727 78.7128 110.829 78.7568Z" fill="#DF9578"/>
<path fill-rule="evenodd" clip-rule="evenodd" d="M125.147 16.7224C126.574 16.2725 127.668 17.1257 127.668 18.801C127.616 19.8044 127.313 20.7787 126.785 21.6339C126.258 22.4892 125.524 23.1981 124.651 23.6952C123.278 24.3778 122.115 23.9279 121.75 22.6947C121.921 22.6429 122.088 22.5754 122.246 22.493C123.12 21.997 123.855 21.2884 124.383 20.4329C124.91 19.5773 125.213 18.6026 125.264 17.5988C125.268 17.3025 125.229 17.0073 125.147 16.7224Z" fill="#A7705A"/>
<path d="M132.523 28.0388L116.623 35.1203L116.344 39.0449L121.176 36.8887C124.015 35.7614 125.918 36.5138 126.884 39.1457L117.763 43.21L117.492 47.0881L127.443 42.6593C127.426 44.1015 127.004 45.5099 126.225 46.7236C125.423 47.9596 124.273 48.931 122.921 49.5158L118.671 51.4549L119.105 54.2704L130.251 64.2992L134.129 62.5618L134.082 62.2903L123.697 52.9829C125.992 52.0455 127.94 50.4196 129.273 48.3291C130.533 46.1663 131.076 43.6604 130.825 41.1701L133.446 40.0067L133.71 36.0898L130.251 37.641C129.923 36.1899 129.217 34.8517 128.203 33.7629L132.26 31.9557L132.523 28.0388" fill="#F2D5C9"/>
</g>
<defs>
<linearGradient id="paint0_linear_1385_19395" x1="58.9012" y1="56.7136" x2="85.9627" y2="56.7136" gradientUnits="userSpaceOnUse">
<stop stop-color="#FE825E"/>
<stop offset="1" stop-color="#EFBE3A"/>
</linearGradient>
<linearGradient id="paint1_linear_1385_19395" x1="55.1934" y1="66.8356" x2="89.6621" y2="66.8356" gradientUnits="userSpaceOnUse">
<stop stop-color="#FEA35E"/>
<stop offset="1" stop-color="#FCCE5B"/>
</linearGradient>
<linearGradient id="paint2_linear_1385_19395" x1="58.9012" y1="52.7966" x2="85.9627" y2="52.7966" gradientUnits="userSpaceOnUse">
<stop stop-color="#FE825E"/>
<stop offset="1" stop-color="#EFBE3A"/>
</linearGradient>
<linearGradient id="paint3_linear_1385_19395" x1="55.1934" y1="62.9186" x2="89.6621" y2="62.9186" gradientUnits="userSpaceOnUse">
<stop stop-color="#FEA35E"/>
<stop offset="1" stop-color="#FCCE5B"/>
</linearGradient>
<linearGradient id="paint4_linear_1385_19395" x1="58.1258" y1="48.8721" x2="85.195" y2="48.8721" gradientUnits="userSpaceOnUse">
<stop stop-color="#FE825E"/>
<stop offset="1" stop-color="#EFBE3A"/>
</linearGradient>
<linearGradient id="paint5_linear_1385_19395" x1="54.4181" y1="58.994" x2="88.8868" y2="58.994" gradientUnits="userSpaceOnUse">
<stop stop-color="#FEA35E"/>
<stop offset="1" stop-color="#FCCE5B"/>
</linearGradient>
<linearGradient id="paint6_linear_1385_19395" x1="59.6765" y1="44.955" x2="86.738" y2="44.955" gradientUnits="userSpaceOnUse">
<stop stop-color="#FE825E"/>
<stop offset="1" stop-color="#EFBE3A"/>
</linearGradient>
<linearGradient id="paint7_linear_1385_19395" x1="55.9689" y1="55.077" x2="90.4376" y2="55.077" gradientUnits="userSpaceOnUse">
<stop stop-color="#FEA35E"/>
<stop offset="1" stop-color="#FCCE5B"/>
</linearGradient>
<linearGradient id="paint8_linear_1385_19395" x1="58.1258" y1="41.0383" x2="85.195" y2="41.0383" gradientUnits="userSpaceOnUse">
<stop stop-color="#FE825E"/>
<stop offset="1" stop-color="#EFBE3A"/>
</linearGradient>
<linearGradient id="paint9_linear_1385_19395" x1="54.4181" y1="51.1603" x2="88.8868" y2="51.1603" gradientUnits="userSpaceOnUse">
<stop stop-color="#FEA35E"/>
<stop offset="1" stop-color="#FCCE5B"/>
</linearGradient>
<linearGradient id="paint10_linear_1385_19395" x1="58.9012" y1="37.1137" x2="85.9627" y2="37.1137" gradientUnits="userSpaceOnUse">
<stop stop-color="#FE825E"/>
<stop offset="1" stop-color="#EFBE3A"/>
</linearGradient>
<linearGradient id="paint11_linear_1385_19395" x1="55.1934" y1="47.2355" x2="89.6621" y2="47.2355" gradientUnits="userSpaceOnUse">
<stop stop-color="#FEA35E"/>
<stop offset="1" stop-color="#FCCE5B"/>
</linearGradient>
<linearGradient id="paint12_linear_1385_19395" x1="59.6765" y1="33.5844" x2="86.738" y2="33.5844" gradientUnits="userSpaceOnUse">
<stop stop-color="#FE825E"/>
<stop offset="1" stop-color="#EFBE3A"/>
</linearGradient>
<linearGradient id="paint13_linear_1385_19395" x1="55.9689" y1="43.7064" x2="90.4376" y2="43.7064" gradientUnits="userSpaceOnUse">
<stop stop-color="#FEA35E"/>
<stop offset="1" stop-color="#FCCE5B"/>
</linearGradient>
<linearGradient id="paint14_linear_1385_19395" x1="58.1258" y1="29.2719" x2="85.195" y2="29.2719" gradientUnits="userSpaceOnUse">
<stop stop-color="#FE825E"/>
<stop offset="1" stop-color="#EFBE3A"/>
</linearGradient>
<linearGradient id="paint15_linear_1385_19395" x1="54.4181" y1="39.3939" x2="88.8868" y2="39.3939" gradientUnits="userSpaceOnUse">
<stop stop-color="#FEA35E"/>
<stop offset="1" stop-color="#FCCE5B"/>
</linearGradient>
<linearGradient id="paint16_linear_1385_19395" x1="59.6765" y1="25.3552" x2="86.738" y2="25.3552" gradientUnits="userSpaceOnUse">
<stop stop-color="#FE825E"/>
<stop offset="1" stop-color="#EFBE3A"/>
</linearGradient>
<linearGradient id="paint17_linear_1385_19395" x1="55.9689" y1="35.4769" x2="90.4376" y2="35.4769" gradientUnits="userSpaceOnUse">
<stop stop-color="#FEA35E"/>
<stop offset="1" stop-color="#FCCE5B"/>
</linearGradient>
<linearGradient id="paint18_linear_1385_19395" x1="58.5135" y1="21.4383" x2="85.575" y2="21.4383" gradientUnits="userSpaceOnUse">
<stop stop-color="#FE825E"/>
<stop offset="1" stop-color="#EFBE3A"/>
</linearGradient>
<linearGradient id="paint19_linear_1385_19395" x1="54.8057" y1="31.5602" x2="89.2745" y2="31.5602" gradientUnits="userSpaceOnUse">
<stop stop-color="#FEA35E"/>
<stop offset="1" stop-color="#FCCE5B"/>
</linearGradient>
<linearGradient id="paint20_linear_1385_19395" x1="58.9012" y1="17.5134" x2="85.9627" y2="17.5134" gradientUnits="userSpaceOnUse">
<stop stop-color="#FEA35E"/>
<stop offset="1" stop-color="#FCCE5B"/>
</linearGradient>
<linearGradient id="paint21_linear_1385_19395" x1="55.1934" y1="27.6354" x2="89.6621" y2="27.6354" gradientUnits="userSpaceOnUse">
<stop stop-color="#FEA35E"/>
<stop offset="1" stop-color="#FCCE5B"/>
</linearGradient>
<linearGradient id="paint22_linear_1385_19395" x1="40.8982" y1="71.7607" x2="67.9675" y2="71.7607" gradientUnits="userSpaceOnUse">
<stop stop-color="#FE825E"/>
<stop offset="1" stop-color="#EFBE3A"/>
</linearGradient>
<linearGradient id="paint23_linear_1385_19395" x1="37.1985" y1="81.8827" x2="71.6672" y2="81.8827" gradientUnits="userSpaceOnUse">
<stop stop-color="#FEA35E"/>
<stop offset="1" stop-color="#FCCE5B"/>
</linearGradient>
<linearGradient id="paint24_linear_1385_19395" x1="40.8982" y1="63.9189" x2="67.9675" y2="63.9189" gradientUnits="userSpaceOnUse">
<stop stop-color="#FE825E"/>
<stop offset="1" stop-color="#EFBE3A"/>
</linearGradient>
<linearGradient id="paint25_linear_1385_19395" x1="37.1985" y1="74.0409" x2="71.6672" y2="74.0409" gradientUnits="userSpaceOnUse">
<stop stop-color="#FEA35E"/>
<stop offset="1" stop-color="#FCCE5B"/>
</linearGradient>
<linearGradient id="paint26_linear_1385_19395" x1="41.6747" y1="59.9944" x2="68.7439" y2="59.9944" gradientUnits="userSpaceOnUse">
<stop stop-color="#FE825E"/>
<stop offset="1" stop-color="#EFBE3A"/>
</linearGradient>
<linearGradient id="paint27_linear_1385_19395" x1="37.9748" y1="70.1241" x2="72.4358" y2="70.1241" gradientUnits="userSpaceOnUse">
<stop stop-color="#FEA35E"/>
<stop offset="1" stop-color="#FCCE5B"/>
</linearGradient>
<linearGradient id="paint28_linear_1385_19395" x1="42.4501" y1="56.4653" x2="69.5116" y2="56.4653" gradientUnits="userSpaceOnUse">
<stop stop-color="#FE825E"/>
<stop offset="1" stop-color="#EFBE3A"/>
</linearGradient>
<linearGradient id="paint29_linear_1385_19395" x1="38.7423" y1="66.5874" x2="73.211" y2="66.5874" gradientUnits="userSpaceOnUse">
<stop stop-color="#FEA35E"/>
<stop offset="1" stop-color="#FCCE5B"/>
</linearGradient>
<linearGradient id="paint30_linear_1385_19395" x1="40.8982" y1="52.1608" x2="67.9675" y2="52.1608" gradientUnits="userSpaceOnUse">
<stop stop-color="#FE825E"/>
<stop offset="1" stop-color="#EFBE3A"/>
</linearGradient>
<linearGradient id="paint31_linear_1385_19395" x1="37.1985" y1="62.2826" x2="71.6672" y2="62.2826" gradientUnits="userSpaceOnUse">
<stop stop-color="#FEA35E"/>
<stop offset="1" stop-color="#FCCE5B"/>
</linearGradient>
<linearGradient id="paint32_linear_1385_19395" x1="42.4501" y1="48.2359" x2="69.5116" y2="48.2359" gradientUnits="userSpaceOnUse">
<stop stop-color="#FE825E"/>
<stop offset="1" stop-color="#EFBE3A"/>
</linearGradient>
<linearGradient id="paint33_linear_1385_19395" x1="38.7424" y1="58.3577" x2="73.2111" y2="58.3577" gradientUnits="userSpaceOnUse">
<stop stop-color="#FEA35E"/>
<stop offset="1" stop-color="#FCCE5B"/>
</linearGradient>
<linearGradient id="paint34_linear_1385_19395" x1="41.287" y1="44.319" x2="68.3563" y2="44.319" gradientUnits="userSpaceOnUse">
<stop stop-color="#FE825E"/>
<stop offset="1" stop-color="#EFBE3A"/>
</linearGradient>
<linearGradient id="paint35_linear_1385_19395" x1="37.587" y1="54.441" x2="72.0479" y2="54.441" gradientUnits="userSpaceOnUse">
<stop stop-color="#FEA35E"/>
<stop offset="1" stop-color="#FCCE5B"/>
</linearGradient>
<linearGradient id="paint36_linear_1385_19395" x1="41.6747" y1="40.3943" x2="68.7439" y2="40.3943" gradientUnits="userSpaceOnUse">
<stop stop-color="#FEA35E"/>
<stop offset="1" stop-color="#FCCE5B"/>
</linearGradient>
<linearGradient id="paint37_linear_1385_19395" x1="37.9748" y1="50.524" x2="72.4358" y2="50.524" gradientUnits="userSpaceOnUse">
<stop stop-color="#FEA35E"/>
<stop offset="1" stop-color="#FCCE5B"/>
</linearGradient>
<radialGradient id="paint38_radial_1385_19395" cx="0" cy="0" r="1" gradientUnits="userSpaceOnUse" gradientTransform="translate(42.2 83.8796) scale(18.1113)">
<stop stop-color="#60A1A5"/>
<stop offset="1" stop-color="#006C77"/>
</radialGradient>
<clipPath id="clip0_1385_19395">
<rect width="140" height="134.307" fill="white"/>
</clipPath>
</defs>
</svg>
