<svg width="140" height="128" viewBox="0 0 140 128" fill="none" xmlns="http://www.w3.org/2000/svg">
<g clip-path="url(#clip0_1385_18897)">
<path d="M25.9331 63.1985C24.2286 64.0652 22.8987 65.5237 22.1924 67.3006C22.1924 66.1297 22.1924 64.9431 22.1924 63.7879C22.9164 62.019 24.2602 60.5745 25.9723 59.725C31.3083 56.5816 39.992 56.5816 45.3672 59.725C48.0549 61.2967 49.4065 63.3085 49.4144 65.336C49.4144 66.5148 49.4144 67.6936 49.4144 68.8566C49.4144 66.8213 48.047 64.7859 45.3672 63.2378C39.9841 60.0943 31.3004 60.0943 25.9331 63.1985Z" fill="#FFCE55"/>
<path d="M22.2155 67.3006C22.0683 67.779 21.9968 68.2775 22.0033 68.778V65.2653C22.0043 64.7635 22.0838 64.265 22.2391 63.7878V67.0963C22.2352 67.1648 22.2273 67.233 22.2155 67.3006V67.3006Z" fill="#FFCE55"/>
<path d="M49.4147 65.3359V68.8487C49.4147 70.8762 48.0787 72.888 45.4225 74.4282C40.0866 77.5717 31.4029 77.5717 26.0355 74.4282C23.3243 72.8565 21.9805 70.8133 21.9805 68.7701V65.2573C21.9805 67.3005 23.3243 69.3516 26.0276 70.9076C31.395 74.051 40.0787 74.051 45.4225 70.9076C48.0787 69.3752 49.4068 67.3556 49.4147 65.3359Z" fill="#F3C541"/>
<path d="M49.4062 68.8566V68.8173C49.4062 67.6463 49.4062 66.4597 49.4062 65.2966C49.4141 66.3968 49.4062 67.7957 49.4062 68.8566Z" fill="#FFCE55"/>
<path d="M45.3675 59.7249C50.7428 62.8212 50.7664 67.8506 45.4304 70.9548C40.0945 74.0589 31.4029 74.0982 26.0355 70.9548C20.6681 67.8114 20.6288 62.7897 25.9727 59.7249C31.3165 56.6601 39.9923 56.5815 45.3675 59.7249Z" fill="#F3C541"/>
<path d="M25.9724 61.6425C31.3084 58.4991 39.9921 58.4991 45.3673 61.6425C47.6306 62.947 48.943 64.6051 49.2966 66.3026C49.7996 63.945 48.5107 61.4932 45.3673 59.6857C39.9921 56.5423 31.3084 56.5423 25.9724 59.6857C22.884 61.4774 21.5952 63.9136 22.0903 66.2554C22.4518 64.5658 23.7406 62.9391 25.9724 61.6425Z" fill="url(#paint0_linear_1385_18897)"/>
<path d="M53.1548 65.3516V68.8643C53.1548 71.4341 51.4574 74.0038 48.0782 75.937C41.2884 79.8663 30.2314 79.8663 23.3945 75.937C19.9524 73.9567 18.2314 71.3476 18.2393 68.7386V65.2258C18.2393 67.827 19.9446 70.436 23.3866 72.4243C30.2314 76.3535 41.2805 76.3535 48.0782 72.4243C51.4574 70.4911 53.147 67.9213 53.1548 65.3516Z" fill="url(#paint1_linear_1385_18897)"/>
<path d="M48.0076 58.1533C54.8445 62.0825 54.8759 68.503 48.0862 72.448C41.2964 76.3929 30.2394 76.3772 23.3946 72.448C16.5498 68.5187 16.5027 62.0825 23.316 58.1533C30.1294 54.224 41.1628 54.224 48.0076 58.1533ZM26.0036 70.9155C31.371 74.059 40.0547 74.059 45.3985 70.9155C50.7424 67.7721 50.7424 62.7819 45.3671 59.725C39.9919 56.668 31.3082 56.5815 25.9722 59.725C20.6363 62.8684 20.6598 67.8586 26.0351 70.9548" fill="#FFCE55"/>
<path d="M25.9331 59.2219C24.2286 60.0887 22.8987 61.5472 22.1924 63.3241C22.1924 62.1532 22.1924 60.9665 22.1924 59.8113C22.9006 58.0331 24.2335 56.5744 25.9409 55.7092C31.2769 52.6129 39.9606 52.6129 45.3358 55.7092C48.0234 57.2809 49.3751 59.2927 49.383 61.328C49.383 62.4989 49.383 63.6856 49.383 64.8408C49.383 62.8054 48.0156 60.7779 45.3358 59.2219C39.9841 56.1257 31.3004 56.1257 25.9331 59.2219Z" fill="#FFCE55"/>
<path d="M22.2155 63.3243C22.0683 63.8027 21.9968 64.3012 22.0033 64.8017V61.2967C22.0043 60.795 22.0838 60.2965 22.2391 59.8193V63.1357C22.2349 63.1989 22.227 63.2619 22.2155 63.3243V63.3243Z" fill="#FFCE55"/>
<path d="M49.4147 61.3674V64.8801C49.4147 66.8998 48.0787 68.9194 45.4225 70.4597C40.0866 73.6031 31.4029 73.6031 26.0355 70.4597C23.3243 68.888 21.9805 66.8526 21.9805 64.8015L22.004 61.2966C22.004 63.3477 23.3479 65.3909 26.0512 66.9548C31.4186 70.0982 40.1023 70.0982 45.4461 66.9548C48.0787 65.4066 49.4068 63.387 49.4147 61.3674Z" fill="#F3C541"/>
<path d="M49.4062 64.8802C49.4062 63.7093 49.4062 62.5226 49.4062 61.3674C49.4141 62.4205 49.4062 63.8272 49.4062 64.8802Z" fill="#FFCE55"/>
<path d="M45.3675 55.7091C50.7428 58.8525 50.7664 63.8427 45.4304 66.9469C40.0945 70.051 31.4029 70.0903 26.0355 66.9469C20.6681 63.8034 20.6288 58.8133 25.9727 55.7091C31.3165 52.605 39.9923 52.6522 45.3675 55.7091Z" fill="#F3C541"/>
<path d="M25.9724 57.6739C31.3084 54.5305 39.9921 54.5305 45.3673 57.6739C47.6306 58.9784 48.943 60.6287 49.2966 62.334C49.7996 59.9764 48.5107 57.5167 45.3673 55.7092C39.9921 52.6523 31.3084 52.6523 25.9724 55.7092C22.884 57.5088 21.5952 59.945 22.0903 62.279C22.4518 60.5972 23.7406 58.9391 25.9724 57.6739Z" fill="url(#paint2_linear_1385_18897)"/>
<path d="M53.1548 61.3752V64.888C53.1548 67.4656 51.4574 70.0275 48.0782 71.9607C41.2884 75.89 30.2314 75.89 23.3945 71.9607C19.9524 69.9725 18.2314 67.3635 18.2393 64.7623V61.2495C18.2393 63.8507 19.9446 66.4597 23.3866 68.4479C30.2314 72.3772 41.2805 72.3772 48.0782 68.4479C51.4574 66.5147 53.147 63.945 53.1548 61.3752Z" fill="url(#paint3_linear_1385_18897)"/>
<path d="M48.0076 54.1768C54.8445 58.1061 54.8759 64.5265 48.0862 68.4794C41.2964 72.4322 30.2394 72.4087 23.3946 68.4794C16.5498 64.5501 16.5027 58.1533 23.316 54.1768C30.1294 50.2004 41.1628 50.2319 48.0076 54.1768ZM26.0036 66.947C31.371 70.0904 40.0547 70.0904 45.3985 66.947C50.7424 63.8036 50.7109 58.8134 45.3357 55.7093C39.9604 52.6051 31.2767 52.613 25.9408 55.7093C20.6048 58.8055 20.6284 63.8428 26.0036 66.947Z" fill="#FFCE55"/>
<path d="M25.1479 55.2534C23.4405 56.1186 22.1076 57.5773 21.3994 59.3555C21.3994 58.1846 21.3994 56.998 21.3994 55.8428C22.1007 54.0627 23.4321 52.6027 25.1401 51.7406C30.476 48.5972 39.1597 48.5972 44.535 51.7406C47.2226 53.3123 48.5743 55.3241 48.5821 57.3595C48.5821 58.5304 48.5821 59.717 48.5821 60.8722C48.5821 58.8369 47.2226 56.8015 44.535 55.2534C39.199 52.1493 30.5153 52.1493 25.1479 55.2534Z" fill="#FFCE55"/>
<path d="M21.4311 59.3555C21.2758 59.8327 21.1962 60.3312 21.1953 60.833V57.3202C21.1949 56.8177 21.2773 56.3186 21.4389 55.8428C21.4389 56.4243 21.4389 57.0137 21.4389 57.5952V59.1669C21.443 59.2299 21.4404 59.2931 21.4311 59.3555V59.3555Z" fill="#FFCE55"/>
<path d="M48.6295 57.3675V60.8802C48.6295 62.8999 47.2935 64.9117 44.6452 66.4598C39.3014 69.5561 30.6177 69.5561 25.2503 66.4598C22.547 64.8881 21.1953 62.8449 21.2032 60.8017V57.3203C21.2032 59.3635 22.547 61.4146 25.2503 62.9785C30.6256 66.0747 39.3093 66.0747 44.6452 62.9785C47.3014 61.4303 48.6216 59.4185 48.6295 57.3675Z" fill="#F3C541"/>
<path d="M48.6211 60.9117V60.8724C48.6211 59.7015 48.6211 58.5148 48.6211 57.3596V57.3675C48.6289 58.452 48.6211 59.8586 48.6211 60.9117Z" fill="#FFCE55"/>
<path d="M44.5824 51.7407C49.9576 54.8841 49.9812 59.8743 44.6452 62.9706C39.3093 66.0668 30.6256 66.114 25.2503 62.9706C19.8751 59.8272 19.8515 54.837 25.1875 51.7329C30.5234 48.6287 39.2071 48.6366 44.5824 51.7407Z" fill="#F3C541"/>
<path d="M25.1872 53.6974C30.5231 50.554 39.2068 50.554 44.582 53.6974C46.8453 55.0098 48.1577 56.6601 48.5113 58.3654C49.0064 56.0078 47.7255 53.5481 44.582 51.7406C39.2068 48.5972 30.5231 48.5972 25.1872 51.7406C22.0987 53.5324 20.8099 55.9764 21.3129 58.3104C21.6665 56.6286 22.9553 55.0098 25.1872 53.6974Z" fill="url(#paint4_linear_1385_18897)"/>
<path d="M52.3696 57.4066V60.9194C52.3696 63.4891 50.6722 66.0589 47.3008 67.9921C40.5032 71.9213 29.4541 71.9213 22.6093 67.9921C19.1672 66.0039 17.4541 63.3948 17.4619 60.7858V57.3044C17.4619 59.9135 19.1751 62.5225 22.6171 64.5107C29.4541 68.44 40.5032 68.44 47.3008 64.5107C50.6722 62.5461 52.3617 59.9764 52.3696 57.4066Z" fill="url(#paint5_linear_1385_18897)"/>
<path d="M47.2224 50.2083C54.0594 54.1375 54.0986 60.558 47.301 64.503C40.5034 68.448 29.4542 68.4323 22.6173 64.503C15.7804 60.5737 15.7175 54.1533 22.5309 50.2083C29.3442 46.2633 40.3776 46.2554 47.2224 50.2083ZM25.2185 62.9784C30.5937 66.0747 39.2774 66.0747 44.6134 62.9784C49.9493 59.8821 49.9258 54.8527 44.5505 51.7485C39.1753 48.6444 30.4916 48.6051 25.1556 51.7485C19.8197 54.892 19.8432 59.8821 25.2185 62.9863" fill="#FFCE55"/>
<path d="M26.7192 51.285C25.0135 52.1463 23.6827 53.6029 22.9785 55.3793C22.9785 54.2083 22.9785 53.0217 22.9785 51.8665C23.6864 50.0925 25.0162 48.637 26.7192 47.7722C32.063 44.6681 40.7467 44.6681 46.1219 47.7722C48.8017 49.3439 50.1534 51.3557 50.1691 53.3832C50.1691 54.5541 50.1691 55.7407 50.1691 56.896C50.1691 54.8685 48.8096 52.8331 46.1219 51.285C40.7703 48.1808 32.0866 48.1808 26.7192 51.285Z" fill="#FFCE55"/>
<path d="M23.0021 55.3792C22.8518 55.8596 22.7801 56.3612 22.79 56.8645V53.3439C22.7859 52.8429 22.8601 52.3445 23.01 51.8665C23.01 52.4558 23.01 53.0374 23.01 53.6268V55.1985C23.0107 55.2588 23.0081 55.3192 23.0021 55.3792V55.3792Z" fill="#FFCE55"/>
<path d="M50.2007 53.4383V56.9511C50.2007 58.9707 48.8726 60.9904 46.2164 62.5306C40.8804 65.6741 32.1967 65.6741 26.8215 62.5306C24.1024 60.9589 22.79 58.9393 22.79 56.8646V53.344C22.79 55.3951 24.1339 57.4462 26.845 59.0022C32.2203 62.0827 40.8647 62.0827 46.2085 59.0022C48.8647 57.4619 50.1928 55.4422 50.2007 53.4383Z" fill="#F3C541"/>
<path d="M50.1846 56.9351C50.1846 55.7642 50.1846 54.5776 50.1846 53.4224C50.1924 54.4754 50.1924 55.8821 50.1846 56.9351Z" fill="#FFCE55"/>
<path d="M46.1528 47.7722C51.5202 50.8684 51.5516 55.8979 46.2078 59.002C40.864 62.1062 32.1882 62.1455 26.8208 59.002C21.4534 55.8586 21.4141 50.8684 26.7186 47.7722C32.0232 44.6759 40.7776 44.668 46.1528 47.7722Z" fill="#F3C541"/>
<path d="M26.7195 49.729C32.0633 46.5855 40.747 46.5855 46.1222 49.729C48.3855 51.0335 49.6979 52.6838 50.0515 54.3891C50.5544 52.0315 49.2656 49.5718 46.1222 47.7722C40.747 44.6681 32.0633 44.6681 26.7195 47.7722C23.6389 49.5639 22.3501 52.0001 22.8452 54.3419C23.2381 52.6523 24.5269 51.0256 26.7195 49.729Z" fill="url(#paint6_linear_1385_18897)"/>
<path d="M53.9409 53.4381V56.9509C53.9409 59.5206 52.2435 62.0904 48.8643 64.0236C42.0745 67.9528 31.0176 67.9528 24.1806 64.0236C20.7386 62.0353 19.0176 59.4263 19.0254 56.8251V53.3359C19.0254 55.9371 20.7386 58.5461 24.1806 60.5344C31.0176 64.4636 42.0745 64.4636 48.8643 60.5344C52.2435 58.5697 53.9331 56.0078 53.9409 53.4381Z" fill="url(#paint7_linear_1385_18897)"/>
<path d="M48.7859 46.2398C55.6228 50.169 55.6621 56.5895 48.8644 60.5345C42.0668 64.4794 31.0177 64.4637 24.1807 60.5345C17.3438 56.6052 17.2888 50.1848 24.1022 46.2398C30.9155 42.2948 41.9489 42.2869 48.7859 46.2398ZM26.8212 59.002C32.22 62.0826 40.8644 62.0826 46.2082 59.002C51.5521 55.9215 51.5206 50.8684 46.1532 47.7722C40.7858 44.6759 32.0943 44.6681 26.7505 47.7722C21.4067 50.8763 21.446 55.8979 26.8212 59.002" fill="#FFCE55"/>
<path d="M25.1479 47.3086C23.4405 48.1739 22.1076 49.6325 21.3994 51.4108C21.3994 50.2399 21.3994 49.0532 21.3994 47.898C22.1007 46.1179 23.4321 44.6579 25.1401 43.7959C30.476 40.6917 39.1597 40.6917 44.535 43.7959C47.2226 45.3676 48.5743 47.3794 48.5821 49.4147C48.5821 50.5856 48.5821 51.7723 48.5821 52.9275C48.5821 50.8921 47.2226 48.8646 44.535 47.3086C39.199 44.2045 30.5153 44.2045 25.1479 47.3086Z" fill="#FFCE55"/>
<path d="M21.4304 51.4107C21.2831 51.8891 21.2115 52.3876 21.2182 52.8881V49.3754C21.217 48.8869 21.294 48.4014 21.4461 47.9373C21.4461 48.5188 21.4461 49.1082 21.4461 49.6897V51.2614C21.4451 51.3115 21.4398 51.3615 21.4304 51.4107Z" fill="#FFCE55"/>
<path d="M48.6295 49.4541V52.9668C48.6295 54.9865 47.2935 57.0061 44.6452 58.5464C39.3014 61.6898 30.6177 61.6898 25.2503 58.5464C22.547 56.9747 21.1953 54.9393 21.2032 52.8883V49.3755C21.2032 51.4187 22.547 53.4698 25.2503 55.0336C30.6491 58.1535 39.2935 58.1535 44.6452 55.0101C47.3014 53.4934 48.6216 51.4737 48.6295 49.4541Z" fill="#F3C541"/>
<path d="M48.6211 52.9669V52.9276C48.6211 51.7566 48.6211 50.57 48.6211 49.4148C48.6289 50.5071 48.6211 51.9138 48.6211 52.9669Z" fill="#FFCE55"/>
<path d="M44.5824 43.7957C49.9576 46.9391 49.9812 51.9293 44.6453 55.0334C39.3093 58.1376 30.6492 58.1533 25.2504 55.0099C19.8515 51.8665 19.8515 46.8763 25.1875 43.7722C30.5234 40.668 39.2071 40.6916 44.5824 43.7957Z" fill="#F3C541"/>
<path d="M25.1872 45.7527C30.5231 42.6564 39.2068 42.6564 44.582 45.7527C46.8453 47.065 48.1577 48.7153 48.5113 50.4206C49.0064 48.0631 47.7255 45.6033 44.582 43.7959C39.2068 40.6917 30.5231 40.6917 25.1872 43.7959C22.0987 45.5955 20.8099 48.0316 21.3129 50.3656C21.6665 48.7232 22.9553 47.0493 25.1872 45.7527Z" fill="url(#paint8_linear_1385_18897)"/>
<path d="M52.3696 49.4618V52.9746C52.3696 55.5443 50.6722 58.114 47.3008 60.0472C40.5032 63.9765 29.4541 63.9765 22.6093 60.0472C19.1672 58.059 17.4541 55.45 17.4619 52.8488V49.3596C17.4619 51.9687 19.1751 54.5777 22.6171 56.5659C29.4541 60.4952 40.5032 60.4952 47.3008 56.5659C50.6722 54.6013 52.3617 52.0315 52.3696 49.4618Z" fill="url(#paint9_linear_1385_18897)"/>
<path d="M47.2224 42.2634C54.0594 46.1927 54.0986 52.6131 47.301 56.566C40.5034 60.5188 29.4542 60.4953 22.6173 56.566C15.7804 52.6367 15.7175 46.2163 22.5309 42.2634C29.3442 38.3106 40.3776 38.3185 47.2224 42.2634ZM25.2499 55.01C30.6487 58.1534 39.2931 58.1534 44.6448 55.01C49.9965 51.8666 49.9572 46.8764 44.5819 43.7723C39.2067 40.6682 30.523 40.6682 25.1871 43.7723C19.8511 46.8764 19.8747 51.9059 25.2499 55.01Z" fill="#FFCE55"/>
<path d="M25.9331 43.3401C24.2286 44.2068 22.8987 45.6653 22.1924 47.4422C22.1924 46.2713 22.1924 45.0847 22.1924 43.9295C22.9006 42.1512 24.2335 40.6925 25.9409 39.8273C31.2769 36.6839 39.9606 36.6839 45.3358 39.8273C48.0234 41.399 49.3751 43.4108 49.383 45.4383C49.383 46.6171 49.383 47.7959 49.383 48.9589C49.383 46.9236 48.0156 44.8882 45.3358 43.3401C39.9841 40.2359 31.3004 40.2359 25.9331 43.3401Z" fill="#FFCE55"/>
<path d="M22.2155 47.4422C22.0683 47.9206 21.9968 48.4191 22.0033 48.9196V45.4068C22.0043 44.9051 22.0838 44.4066 22.2391 43.9294V47.2379C22.2352 47.3064 22.2273 47.3746 22.2155 47.4422V47.4422Z" fill="#FFCE55"/>
<path d="M49.4147 45.4778V48.9905C49.4147 51.018 48.0787 53.0298 45.4225 54.5701C40.0866 57.7135 31.4029 57.7135 26.0355 54.5701C23.3243 52.9984 21.9805 50.9552 21.9805 48.9119V45.3992C21.9805 47.4424 23.3243 49.4935 26.0276 51.0495C31.395 54.1929 40.0787 54.1929 45.4225 51.0495C48.0787 49.5092 49.4068 47.4974 49.4147 45.4778Z" fill="#F3C541"/>
<path d="M49.4062 48.9984V48.9591C49.4062 47.7882 49.4062 46.6015 49.4062 45.4385C49.4141 46.5387 49.4062 47.9375 49.4062 48.9984Z" fill="#FFCE55"/>
<path d="M45.3675 39.8273C50.7428 42.9236 50.7664 47.9374 45.4304 51.0808C40.0945 54.2242 31.4029 54.2242 26.0355 51.0808C20.6681 47.9374 20.6288 42.955 25.9727 39.8509C31.3165 36.7468 39.9923 36.7232 45.3675 39.8273Z" fill="#F3C541"/>
<path d="M25.9724 41.7841C31.3084 38.6406 39.9921 38.6406 45.3673 41.7841C47.6306 43.0886 48.943 44.7467 49.2966 46.4442C49.7996 44.0866 48.5107 41.6348 45.3673 39.8273C39.9921 36.6839 31.3084 36.6839 25.9724 39.8273C22.884 41.6505 21.5952 44.0552 22.0903 46.3656C22.4518 44.7074 23.7406 43.0807 25.9724 41.7841Z" fill="url(#paint10_linear_1385_18897)"/>
<path d="M53.1548 45.4934V49.0062C53.1548 51.5759 51.4574 54.1457 48.0782 56.0789C41.2884 60.0082 30.2314 60.0082 23.3945 56.0789C19.9524 54.0985 18.2314 51.4895 18.2393 48.8804V45.3677C18.2393 47.9689 19.9446 50.5779 23.3866 52.5661C30.2314 56.4954 41.2805 56.4954 48.0782 52.5661C51.4574 50.6329 53.147 48.0632 53.1548 45.4934Z" fill="url(#paint11_linear_1385_18897)"/>
<path d="M48.0076 38.2949C54.8445 42.2242 54.8759 48.6446 48.0862 52.5896C41.2964 56.5346 30.2394 56.5189 23.3946 52.5896C16.5498 48.6604 16.5027 42.2399 23.316 38.2949C30.1294 34.35 41.1628 34.3421 48.0076 38.2949ZM26.0351 51.0808C31.4025 54.2242 40.0862 54.2242 45.43 51.0808C50.7738 47.9374 50.7424 42.9472 45.3671 39.8509C39.9919 36.7547 31.3082 36.7075 25.9722 39.8509C20.6363 42.9943 20.6598 47.9374 26.0351 51.0808Z" fill="#FFCE55"/>
<path d="M26.7192 39.7564C25.0147 40.6232 23.6848 42.0816 22.9785 43.8586C22.9785 42.6876 22.9785 41.501 22.9785 40.3458C23.6848 38.5688 25.0147 37.1104 26.7192 36.2436C32.063 33.1395 40.7467 33.1395 46.1219 36.2436C48.8017 37.8153 50.1534 39.8271 50.1691 41.8625C50.1691 43.0334 50.1691 44.2201 50.1691 45.3753C50.1691 43.3399 48.8096 41.3124 46.1219 39.7564C40.7703 36.6601 32.0866 36.6601 26.7192 39.7564Z" fill="#FFCE55"/>
<path d="M23.0023 43.8585C22.8512 44.336 22.7796 44.8351 22.7901 45.3359V41.8231C22.7936 41.3209 22.8758 40.8224 23.0337 40.3457C23.0337 40.9351 23.0337 41.5166 23.0337 42.106V43.6777C23.0263 43.7385 23.0158 43.7988 23.0023 43.8585Z" fill="#FFCE55"/>
<path d="M50.2008 41.9018V45.4146C50.2008 47.4342 48.8727 49.4539 46.2165 50.9942C40.8805 54.1376 32.1968 54.1376 26.8216 50.9942C24.1183 49.4225 22.7666 47.3871 22.7744 45.336V41.8232C22.7744 43.8665 24.1183 45.9175 26.8295 47.4814C32.1968 50.6248 40.8805 50.6248 46.2165 47.4814C48.8648 45.9411 50.1929 43.9215 50.2008 41.9018Z" fill="#F3C541"/>
<path d="M50.1846 45.4146C50.1846 44.2437 50.1846 43.0571 50.1846 41.9019C50.1924 42.9549 50.1924 44.3616 50.1846 45.4146Z" fill="#FFCE55"/>
<path d="M46.1528 36.2436C51.5202 39.387 51.5516 44.3772 46.2078 47.4813C40.864 50.5855 32.1882 50.6248 26.8208 47.4813C21.4534 44.3379 21.4141 39.3477 26.7186 36.2436C32.0232 33.1395 40.7776 33.1395 46.1528 36.2436Z" fill="#F3C541"/>
<path d="M26.7195 38.2083C32.0633 35.1041 40.747 35.1041 46.1222 38.2083C48.3855 39.5128 49.6979 41.1631 50.0515 42.8684C50.5544 40.5108 49.2656 38.0511 46.1222 36.2436C40.747 33.1395 32.0633 33.1395 26.7195 36.2436C23.6389 38.0432 22.3501 40.4794 22.8452 42.8134C23.2381 41.1316 24.5269 39.4971 26.7195 38.2083Z" fill="url(#paint12_linear_1385_18897)"/>
<path d="M53.9409 41.9095V45.4223C53.9409 47.9921 52.2435 50.5618 48.8643 52.495C42.0745 56.4243 31.0176 56.4243 24.1806 52.495C20.7386 50.5068 19.0176 47.8977 19.0254 45.2966V41.8074C19.0254 44.4164 20.7386 47.0254 24.1806 49.0137C31.0176 52.9429 42.0745 52.9429 48.8643 49.0137C52.2435 47.049 53.9331 44.4793 53.9409 41.9095Z" fill="url(#paint13_linear_1385_18897)"/>
<path d="M48.7859 34.7112C55.6228 38.6405 55.6621 45.0609 48.8644 49.0138C42.0668 52.9666 31.0177 52.943 24.1807 49.0138C17.3438 45.0845 17.2888 38.6641 24.1022 34.7112C30.9155 30.7584 41.9489 30.7662 48.7859 34.7112ZM26.8212 47.4814C32.1886 50.6248 40.8723 50.6248 46.2082 47.4814C51.5442 44.3379 51.5206 39.3478 46.1532 36.2436C40.7858 33.1395 32.0943 33.1395 26.7505 36.2436C21.4067 39.3478 21.446 44.3772 26.8212 47.4814" fill="#FFCE55"/>
<path d="M25.1479 35.3637C23.4405 36.229 22.1076 37.6876 21.3994 39.4659C21.3994 38.295 21.3994 37.1083 21.3994 35.9531C22.1007 34.1731 23.4321 32.713 25.1401 31.851C30.476 28.7076 39.1597 28.7076 44.535 31.851C47.2226 33.4227 48.5743 35.4345 48.5821 37.4698C48.5821 38.6408 48.5821 39.8274 48.5821 40.9826C48.5821 38.9472 47.2226 36.9119 44.535 35.3637C39.199 32.2911 30.5153 32.2911 25.1479 35.3637Z" fill="#FFCE55"/>
<path d="M21.4311 39.4971C21.2758 39.9743 21.1962 40.4728 21.1953 40.9745V37.4618C21.1949 36.9593 21.2773 36.4602 21.4389 35.9844C21.4389 36.5659 21.4389 37.1553 21.4389 37.7368V39.3085C21.443 39.3715 21.4404 39.4347 21.4311 39.4971Z" fill="#FFCE55"/>
<path d="M48.6295 37.5405V41.0533C48.6295 43.0729 47.2935 45.0847 44.6452 46.6328C39.3014 49.7291 30.6177 49.7291 25.2503 46.6328C22.547 45.0611 21.1953 43.0179 21.2032 40.9747V37.4619C21.2032 39.5051 22.547 41.5562 25.2503 43.1201C30.6256 46.2163 39.3093 46.2163 44.6452 43.1201C47.3014 41.5719 48.6216 39.5601 48.6295 37.5405Z" fill="#F3C541"/>
<path d="M48.6211 41.0533V41.014C48.6211 39.8431 48.6211 38.6564 48.6211 37.5012V37.5405C48.6289 38.5936 48.6211 40.0002 48.6211 41.0533Z" fill="#FFCE55"/>
<path d="M44.5824 31.8823C49.9576 35.0257 49.9812 40.0159 44.6452 43.1122C39.3093 46.2084 30.6256 46.2556 25.2503 43.1122C19.8751 39.9688 19.8515 34.9786 25.1875 31.8745C30.5234 28.7703 39.2071 28.7782 44.5824 31.8823Z" fill="#F3C541"/>
<path d="M25.1872 33.839C30.5231 30.6956 39.2068 30.6956 44.582 33.839C46.8453 35.1514 48.1577 36.8017 48.5113 38.507C49.0064 36.1494 47.7255 33.6897 44.582 31.8822C39.2068 28.7388 30.5231 28.7388 25.1872 31.8822C22.0987 33.674 20.8099 36.118 21.3129 38.452C21.6665 36.7702 22.9553 35.1357 25.1872 33.839Z" fill="url(#paint14_linear_1385_18897)"/>
<path d="M52.3696 37.5482V41.061C52.3696 43.6307 50.6722 46.2005 47.3008 48.1337C40.5032 52.0629 29.4541 52.0629 22.6093 48.1337C19.1672 46.1455 17.4541 43.5364 17.4619 40.9274V37.446C17.4619 40.0551 19.1751 42.6641 22.6171 44.6523C29.4541 48.5816 40.5032 48.5816 47.3008 44.6523C50.6722 42.6877 52.3617 40.1179 52.3696 37.5482Z" fill="url(#paint15_linear_1385_18897)"/>
<path d="M47.2224 30.3499C54.0594 34.2791 54.0986 40.6996 47.301 44.6524C40.5034 48.6053 29.4542 48.5817 22.6173 44.6524C15.7804 40.7232 15.7175 34.2949 22.5309 30.3499C29.3442 26.4049 40.3776 26.397 47.2224 30.3499ZM25.2185 43.12C30.5937 46.2163 39.2774 46.2163 44.6134 43.12C49.9493 40.0237 49.9258 34.9943 44.5505 31.8902C39.1753 28.786 30.4916 28.7467 25.1556 31.8902C19.8197 35.0336 19.8432 40.0237 25.2185 43.1279" fill="#FFCE55"/>
<path d="M26.7192 31.4343C25.0135 32.2957 23.6827 33.7523 22.9785 35.5286C22.9785 34.3577 22.9785 33.1711 22.9785 32.0159C23.6848 30.2389 25.0147 28.7805 26.7192 27.9137C32.063 24.7703 40.7467 24.7703 46.1219 27.9137C48.8017 29.4854 50.1534 31.4972 50.1691 33.5247C50.1691 34.6956 50.1691 35.8823 50.1691 37.0375C50.1691 35.01 48.8096 32.9746 46.1219 31.4265C40.7703 28.2909 32.0866 28.2909 26.7192 31.4343Z" fill="#FFCE55"/>
<path d="M23.0021 35.5208C22.8518 36.0012 22.7801 36.5028 22.79 37.0061V33.4855C22.7935 32.9833 22.8757 32.4848 23.0336 32.0081C23.0336 32.5974 23.0336 33.179 23.0336 33.7684V35.3401C23.0265 35.4009 23.016 35.4612 23.0021 35.5208V35.5208Z" fill="#FFCE55"/>
<path d="M50.1999 33.5642V37.077C50.1999 39.0966 48.8718 41.1162 46.2156 42.6565C40.8639 45.7606 32.2195 45.7606 26.805 42.6565C24.1017 41.0848 22.75 39.0494 22.7578 37.0062V33.4856C22.7578 35.5367 24.1017 37.5878 26.8129 39.1437C32.2195 42.2479 40.8639 42.2479 46.2078 39.1437C48.8639 37.6035 50.192 35.5838 50.1999 33.5642Z" fill="#F3C541"/>
<path d="M50.1846 37.0767C50.1846 35.9058 50.1846 34.7192 50.1846 33.564V33.6033C50.1924 34.617 50.1924 36.0237 50.1846 37.0767Z" fill="#FFCE55"/>
<path d="M46.1528 27.9138C51.5202 31.01 51.5516 36.0395 46.2078 39.1436C40.864 42.2478 32.1882 42.2478 26.8208 39.1436C21.4534 36.0395 21.4141 31.01 26.7186 27.9138C32.0232 24.8175 40.7776 24.8096 46.1528 27.9138Z" fill="#F3C541"/>
<path d="M26.7195 29.8627C32.0633 26.7586 40.747 26.7586 46.1222 29.8627C48.3855 31.1672 49.6979 32.8175 50.0515 34.5228C50.5544 32.1652 49.2656 29.7134 46.1222 27.9059C40.747 24.7625 32.0633 24.7625 26.7195 27.9059C23.6389 29.6977 22.3501 32.1338 22.8452 34.4756C23.2381 32.7939 24.5269 31.1672 26.7195 29.8627Z" fill="url(#paint16_linear_1385_18897)"/>
<path d="M53.9409 33.5797V37.0925C53.9409 39.6622 52.2435 42.232 48.8643 44.1652C42.0745 48.0944 31.0176 48.0944 24.1806 44.1652C20.7386 42.177 19.0176 39.5679 19.0254 36.9667V33.4775C19.0254 36.0787 20.7386 38.6878 24.1806 40.676C31.0176 44.6052 42.0745 44.6052 48.8643 40.676C52.2435 38.7113 53.9331 36.1494 53.9409 33.5797Z" fill="url(#paint17_linear_1385_18897)"/>
<path d="M48.7859 26.3814C55.6228 30.3106 55.6621 36.7311 48.8644 40.6761C42.0668 44.6211 31.0177 44.6053 24.1807 40.6761C17.3438 36.7468 17.2888 30.3264 24.1022 26.3814C30.9155 22.4364 41.9489 22.4285 48.7859 26.3814ZM26.8212 39.1437C32.22 42.2478 40.8644 42.2478 46.2082 39.1437C51.5521 36.0395 51.5206 31.0101 46.1532 27.9138C40.7858 24.8175 32.0943 24.7704 26.7505 27.9138C21.4067 31.0572 21.446 36.0395 26.8212 39.1437" fill="#FFCE55"/>
<path d="M25.5718 27.45C23.8644 28.3152 22.5315 29.7739 21.8232 31.5522C21.8232 30.3812 21.8232 29.1946 21.8232 28.0394C22.5245 26.2593 23.8559 24.7993 25.5639 23.9372C30.8999 20.8331 39.5836 20.8331 44.9588 23.9372C47.6464 25.5089 48.9981 27.5207 49.0059 29.5561C49.0059 30.727 49.0059 31.9137 49.0059 33.0689C49.0059 31.0335 47.6464 29.006 44.9588 27.45C39.5914 24.3616 30.9077 24.3616 25.5718 27.45Z" fill="#FFCE55"/>
<path d="M21.8227 31.5522C21.6709 32.0223 21.5888 32.5121 21.5791 33.006V29.4933C21.5787 28.9908 21.661 28.4916 21.8227 28.0159C21.8227 28.5974 21.8227 29.1868 21.8227 29.7683V31.34C21.8269 31.4107 21.8269 31.4816 21.8227 31.5522V31.5522Z" fill="#FFCE55"/>
<path d="M49.0211 29.5954V33.1082C49.0211 35.1278 47.6851 37.1475 45.0368 38.6878C39.693 41.8312 31.0093 41.8312 25.6419 38.6878C22.9386 37.1161 21.5869 35.0807 21.5869 33.0296V29.5168C21.5869 31.5601 22.9307 33.6111 25.6341 35.175C31.0014 38.3184 39.6851 38.3184 45.029 35.175C47.6851 33.6347 49.0132 31.6151 49.0211 29.5954Z" fill="#F3C541"/>
<path d="M49.0137 33.1082V33.0689C49.0137 31.898 49.0137 30.7114 49.0137 29.5562C49.0215 30.6485 49.0137 32.0552 49.0137 33.1082Z" fill="#FFCE55"/>
<path d="M44.975 23.9372C50.3502 27.0413 50.3738 32.0708 45.0378 35.1749C39.7019 38.2791 31.0103 38.3184 25.643 35.1749C20.2756 32.0315 20.2363 27.0413 25.5801 23.9372C30.9239 20.8331 39.5997 20.8331 44.975 23.9372Z" fill="#F3C541"/>
<path d="M25.5799 25.9334C30.9158 22.7899 39.5995 22.7899 44.9748 25.9334C47.238 27.2379 48.5504 28.8882 48.904 30.5935C49.407 28.2359 48.1182 25.7762 44.9748 23.9687C39.5995 20.8646 30.9158 20.8646 25.5799 23.9687C22.4914 25.7683 21.2026 28.2045 21.6977 30.5385C22.0592 28.8253 23.348 27.1907 25.5799 25.9334Z" fill="url(#paint18_linear_1385_18897)"/>
<path d="M52.7622 29.6032V33.116C52.7622 35.6857 51.0648 38.2555 47.6856 40.1887C40.8958 44.118 29.8389 44.118 23.0019 40.1887C19.552 38.2319 17.8389 35.6229 17.8389 33.006V29.4854C17.8389 32.0944 19.552 34.7034 22.9941 36.6916C29.831 40.6209 40.8801 40.6209 47.6778 36.6916C51.0805 34.7427 52.7544 32.173 52.7622 29.6032Z" fill="url(#paint19_linear_1385_18897)"/>
<path d="M47.6149 22.4048C54.4518 26.3341 54.4833 32.7545 47.6935 36.7074C40.9037 40.6602 29.8467 40.6366 23.0098 36.7074C16.1729 32.7781 16.1336 26.3577 22.9234 22.4048C29.7131 18.452 40.7701 18.4598 47.6149 22.4048ZM25.611 35.1749C30.9784 38.3184 39.6621 38.3184 45.0059 35.1749C50.3497 32.0315 50.3182 27.0413 44.943 23.9372C39.5677 20.8331 30.8841 20.8331 25.5481 23.9372C20.2122 27.0413 20.2357 32.0708 25.611 35.1749Z" fill="#FFCE55"/>
<path d="M25.9331 23.4815C24.2286 24.3482 22.8987 25.8067 22.1924 27.5837C22.1924 26.4127 22.1924 25.2261 22.1924 24.0709C22.9006 22.2926 24.2335 20.834 25.9409 19.9687C31.2769 16.8646 39.9606 16.8646 45.3358 19.9687C48.0234 21.5404 49.3751 23.5522 49.383 25.5797C49.383 26.7585 49.383 27.9373 49.383 29.1004C49.383 27.065 48.0156 25.0296 45.3358 23.4815C39.9841 20.3774 31.3004 20.3774 25.9331 23.4815Z" fill="#FFCE55"/>
<path d="M22.2157 27.5837C22.0669 28.0672 21.9953 28.5711 22.0036 29.0768V25.5641C22.0045 25.0623 22.084 24.5638 22.2393 24.0867V27.3951C22.2348 27.4584 22.227 27.5213 22.2157 27.5837V27.5837Z" fill="#FFCE55"/>
<path d="M49.4137 25.6191V29.1318C49.4137 31.1593 48.0778 33.1711 45.4216 34.7114C40.0778 37.8155 31.4334 37.8155 26.0267 34.7193C23.3155 33.1476 21.9717 31.1043 21.9717 29.0611V25.5483C21.9717 27.5916 23.3155 29.6426 26.0188 31.1986C31.4334 34.3028 40.0778 34.3028 45.4294 31.1986C48.0778 29.6584 49.4059 27.6387 49.4137 25.6191Z" fill="#F3C541"/>
<path d="M49.4062 29.1395C49.4062 27.9686 49.4062 26.782 49.4062 25.6189V25.6582C49.4141 26.7191 49.4062 28.0786 49.4062 29.1395Z" fill="#FFCE55"/>
<path d="M45.3666 19.9687C50.7418 23.065 50.7654 28.0945 45.4295 31.1986C40.0935 34.3027 31.4334 34.3027 26.0346 31.1986C20.6358 28.0945 20.6279 23.0728 25.9717 19.9687C31.3155 16.8646 39.9913 16.8646 45.3666 19.9687Z" fill="#FCCE5B"/>
<path d="M25.9724 21.9255C31.3084 18.8607 39.9921 18.8607 45.3673 21.9255C47.6306 23.23 48.943 24.8882 49.2966 26.5856C49.7995 24.2281 48.5107 21.7762 45.3673 19.9687C39.9921 16.8646 31.3084 16.8646 25.9724 19.9687C22.884 21.7605 21.5952 24.1966 22.0903 26.5385C22.4518 24.8489 23.7406 23.2222 25.9724 21.9255Z" fill="url(#paint20_linear_1385_18897)"/>
<path d="M53.1549 25.6347V29.1475C53.1549 31.7172 51.4574 34.287 48.0782 36.2202C41.2884 40.1494 30.2315 40.1494 23.3945 36.2202C19.9446 34.2634 18.2236 31.6543 18.2315 29.0767V25.564C18.2315 28.1651 19.9368 30.7742 23.3788 32.7624C30.2236 36.6917 41.2727 36.6917 48.0704 32.7624C51.4574 30.7742 53.147 28.2044 53.1549 25.6347Z" fill="url(#paint21_linear_1385_18897)"/>
<path d="M48.0076 18.4363C54.8445 22.3656 54.8759 28.786 48.0862 32.731C41.2964 36.676 30.2394 36.6603 23.3946 32.731C16.5498 28.8017 16.5027 22.3813 23.316 18.4363C30.1294 14.4913 41.1628 14.4835 48.0076 18.4363ZM26.0036 31.1986C31.4339 34.3027 40.0783 34.3027 45.43 31.1986C50.7816 28.0945 50.7424 23.065 45.3671 19.9687C39.9919 16.8724 31.3082 16.8646 25.9722 19.9687C20.6363 23.0728 20.6598 28.1023 26.0351 31.1986" fill="#FCCE5B"/>
<path d="M7.72504 78.4364C6.02486 79.2974 4.69547 80.7468 3.98438 82.515C3.98437 81.344 3.98438 80.1574 3.98438 79.0022C4.69066 77.2253 6.0206 75.7668 7.72504 74.9C13.0689 71.7566 21.7525 71.7566 27.1278 74.9C29.8076 76.4718 31.1592 78.4835 31.1749 80.5189C31.1749 81.6898 31.1749 82.8765 31.1749 84.0317C31.1749 81.9963 29.8154 79.9688 27.1278 78.4128C21.7447 75.3401 13.0689 75.3401 7.72504 78.4364Z" fill="#FFCE55"/>
<path d="M3.98385 82.515C3.82218 82.9907 3.73987 83.4899 3.74024 83.9924V80.4796C3.74381 79.9774 3.82601 79.4789 3.98385 79.0022C3.98385 79.5916 3.98385 80.1731 3.98385 80.7625V82.3342C3.98717 82.3944 3.98717 82.4548 3.98385 82.515V82.515Z" fill="#FFCE55"/>
<path d="M31.1832 80.5818V84.0945C31.1832 86.1142 29.8551 88.1338 27.1989 89.6741C21.863 92.8175 13.1793 92.8175 7.80402 89.6741C5.10068 88.1024 3.74901 86.067 3.75687 84.0159V80.5032C3.75687 82.5543 5.10068 84.5975 7.80402 86.1613C13.1793 89.3048 21.863 89.3048 27.1989 86.1613C29.863 84.6211 31.1753 82.6014 31.1832 80.5818Z" fill="#F3C541"/>
<path d="M31.167 84.0865C31.167 82.9156 31.167 81.7289 31.167 80.5737V80.613C31.1748 81.6346 31.1748 83.0413 31.167 84.0865Z" fill="#FFCE55"/>
<path d="M27.1352 74.9236C32.5025 78.067 32.534 83.0571 27.1902 86.1613C21.8464 89.2654 13.1705 89.3047 7.79527 86.1613C2.42002 83.0179 2.39645 78.0277 7.7324 74.9236C13.0684 71.8194 21.7599 71.8194 27.1352 74.9236Z" fill="#EAB642"/>
<path d="M7.73306 76.8881C13.0769 73.7447 21.7606 73.7447 27.1358 76.8881C29.3991 78.1926 30.7114 79.8429 31.0651 81.5482C31.568 79.1907 30.2792 76.731 27.1358 74.9235C21.7606 71.7801 13.0769 71.7801 7.73306 74.9235C4.64465 76.7231 3.35584 79.1592 3.85879 81.4932C4.22028 79.8115 5.50123 78.1769 7.73306 76.8881Z" fill="url(#paint22_linear_1385_18897)"/>
<path d="M34.9234 80.5897V84.0867C34.9234 86.6643 33.2259 89.2262 29.8468 91.1594C23.0491 95.0887 12 95.0887 5.16307 91.1594C1.71316 89.2183 0 86.6093 0 84.0081V80.4954C0 83.0965 1.71316 85.7056 5.15521 87.6938C11.9921 91.6231 23.0491 91.6231 29.8389 87.6938C33.2259 85.7291 34.9155 83.1594 34.9234 80.5897Z" fill="url(#paint23_linear_1385_18897)"/>
<path d="M29.7682 73.3911C36.6051 77.3204 36.6444 83.7408 29.8468 87.6937C23.0492 91.6466 12 91.623 5.1631 87.6937C-1.67384 83.7644 -1.71313 77.344 5.08451 73.3911C11.8822 69.4383 22.9313 69.4461 29.7682 73.3911ZM7.76428 86.1613C13.1395 89.3047 21.8232 89.3047 27.1592 86.1613C32.4951 83.0179 32.4716 78.0277 27.1042 74.9236C21.7368 71.8194 13.0452 71.7801 7.70141 74.9236C2.3576 78.067 2.39689 83.0572 7.76428 86.1613" fill="#FCCE5B"/>
<path d="M7.72504 70.4991C6.01935 71.3604 4.68852 72.817 3.98438 74.5934C3.98438 73.4224 3.98438 72.2358 3.98438 71.0806C4.69066 69.3037 6.0206 67.8452 7.72504 66.9784C13.0689 63.8822 21.7525 63.8822 27.1278 66.9784C29.8076 68.5502 31.1592 70.5619 31.1749 72.5973C31.1749 73.7682 31.1749 74.9549 31.1749 76.1101C31.1749 74.0826 29.8154 72.0472 27.1278 70.4991C21.7447 67.3949 13.0689 67.3949 7.72504 70.4991Z" fill="#FFCE55"/>
<path d="M3.98385 74.5933C3.82218 75.0691 3.73987 75.5683 3.74024 76.0707V72.558C3.74381 72.0558 3.82601 71.5573 3.98385 71.0806C3.98385 71.67 3.98385 72.2515 3.98385 72.8409V74.4126C3.98717 74.4728 3.98717 74.5331 3.98385 74.5933V74.5933Z" fill="#FFCE55"/>
<path d="M31.1832 72.6367V76.1495C31.1832 78.1691 29.8551 80.1887 27.1989 81.729C21.863 84.8724 13.1793 84.8724 7.80402 81.729C5.10068 80.1573 3.74901 78.122 3.75687 76.0709V72.5581C3.75687 74.6092 5.10068 76.6603 7.80402 78.2163C13.1793 81.3597 21.863 81.3597 27.1989 78.2163C29.863 76.676 31.1753 74.6563 31.1832 72.6367Z" fill="#F3C541"/>
<path d="M31.167 76.1495V76.1102C31.167 74.9393 31.167 73.7526 31.167 72.5974V72.6367C31.1748 73.6898 31.1748 75.0964 31.167 76.1495Z" fill="#FFCE55"/>
<path d="M27.1352 66.9785C32.5025 70.1219 32.534 75.1121 27.1902 78.2162C21.8464 81.3203 13.1705 81.3596 7.79527 78.2162C2.42002 75.0728 2.39645 70.0826 7.7324 66.9785C13.0684 63.8743 21.7599 63.8822 27.1352 66.9785Z" fill="#F3C541"/>
<path d="M7.73306 68.9431C13.0769 65.7997 21.7606 65.7997 27.1358 68.9431C29.3991 70.2476 30.7114 71.8979 31.0651 73.6032C31.568 71.2456 30.2792 68.7859 27.1358 66.9784C21.7606 63.8822 13.0769 63.8822 7.73306 66.9784C4.64465 68.7781 3.35584 71.2142 3.85879 73.556C4.22028 71.8665 5.50123 70.2397 7.73306 68.9431Z" fill="url(#paint24_linear_1385_18897)"/>
<path d="M34.9234 72.6446V76.1652C34.9234 78.735 33.2259 81.2968 29.8468 83.2379C23.0491 87.1672 12 87.1672 5.16307 83.2379C1.71316 81.2733 0 78.6642 0 76.0631V72.5503C0 75.1515 1.71316 77.7605 5.15521 79.7487C11.9921 83.678 23.0491 83.678 29.8389 79.7487C33.2259 77.7998 34.9155 75.2222 34.9234 72.6446Z" fill="url(#paint25_linear_1385_18897)"/>
<path d="M29.7682 65.4461C36.6051 69.3753 36.6444 75.7958 29.8468 79.7486C23.0492 83.7015 12 83.6779 5.1631 79.7486C-1.67384 75.8193 -1.71313 69.3989 5.08451 65.4461C11.8822 61.4932 22.9313 61.5011 29.7682 65.4461ZM7.76428 78.2162C13.1395 81.3596 21.8232 81.3596 27.1592 78.2162C32.4951 75.0728 32.4716 70.0826 27.1042 66.9785C21.7368 63.8744 13.0452 63.8822 7.70141 66.9785C2.3576 70.0748 2.39689 75.1121 7.76428 78.2162" fill="#FFCE55"/>
<path d="M8.51118 66.5227C6.80315 67.3847 5.47177 68.8448 4.77051 70.6248C4.77051 69.4539 4.77051 68.2673 4.77051 67.1121C5.4768 65.3351 6.80674 63.8767 8.51118 63.0099C13.855 59.8665 22.5308 59.8665 27.9061 63.0099C30.5937 64.5816 31.9454 66.5934 31.9532 68.6288C31.9532 69.7997 31.9532 70.9863 31.9532 72.1415C31.9532 70.1062 30.5937 68.0787 27.9061 66.5227C22.5308 63.4186 13.8471 63.4186 8.51118 66.5227Z" fill="#FFCE55"/>
<path d="M4.76998 70.6248C4.60831 71.1006 4.526 71.5997 4.52637 72.1022V68.5895C4.526 68.087 4.60831 67.5878 4.76998 67.1121C4.76998 67.6936 4.76998 68.283 4.76998 68.8645V70.4362C4.77332 70.499 4.77332 70.562 4.76998 70.6248V70.6248Z" fill="#FFCE55"/>
<path d="M31.9605 68.6682V72.181C31.9605 74.2006 30.6246 76.2202 27.9763 77.7605C22.6324 80.9039 13.9488 80.9039 8.58137 77.7605C5.87803 76.1888 4.52636 74.1456 4.53421 72.1024V68.5896C4.53421 70.6328 5.87803 72.6839 8.58137 74.2478C13.9566 77.344 22.6403 77.344 27.9763 74.2478C30.6482 72.6996 31.9605 70.7271 31.9605 68.6682Z" fill="#F3C541"/>
<path d="M31.9531 72.181C31.9531 71.0101 31.9531 69.8234 31.9531 68.6682C31.961 69.7213 31.9531 71.1279 31.9531 72.181Z" fill="#FFCE55"/>
<path d="M27.9134 63.01C33.2887 66.1141 33.3201 71.1436 27.9763 74.2477C22.6325 77.3518 13.9566 77.344 8.5814 74.2477C3.20616 71.1514 3.18258 66.1141 8.51853 63.01C13.8545 59.9059 22.5382 59.9059 27.9134 63.01Z" fill="#F3C541"/>
<path d="M8.51919 64.9667C13.863 61.8704 22.5388 61.8704 27.9141 64.9667C30.1852 66.2791 31.4897 67.9294 31.8434 69.6347C32.3463 67.2771 31.0575 64.8174 27.9141 63.0099C22.5388 59.8665 13.863 59.8665 8.51919 63.0099C5.43078 64.8017 4.14198 67.2457 4.64492 69.5797C4.99856 67.8979 6.28736 66.2633 8.51919 64.9667Z" fill="url(#paint26_linear_1385_18897)"/>
<path d="M35.7095 68.6759V72.1887C35.7095 74.7584 34.0121 77.3282 30.6408 79.2614C23.8431 83.1906 12.794 83.1906 5.95706 79.2614C2.4993 77.3046 0.786133 74.6955 0.786133 72.0865V68.5737C0.786133 71.1828 2.4993 73.7918 5.94134 75.78C12.7783 79.7093 23.8274 79.7093 30.625 75.78C34.0121 73.8154 35.7017 71.2456 35.7095 68.6759Z" fill="url(#paint27_linear_1385_18897)"/>
<path d="M30.5544 61.4775C37.3913 65.4068 37.4306 71.8272 30.6329 75.7801C23.8353 79.7329 12.7862 79.7094 5.94925 75.7801C-0.887686 71.8508 -0.926979 65.4225 5.8628 61.4775C12.6526 57.5326 23.7174 57.5326 30.5544 61.4775ZM8.55043 74.2477C13.9257 77.3439 22.6094 77.3439 27.9453 74.2477C33.2813 71.1514 33.2577 66.1141 27.8824 63.01C22.5072 59.9058 13.8314 59.8665 8.48756 63.01C3.14375 66.1534 3.17518 71.1435 8.55043 74.2477" fill="#FFCE55"/>
<path d="M9.29638 62.9471C7.5904 63.8104 6.25768 65.266 5.54785 67.0414C5.54785 65.8704 5.54785 64.6838 5.54785 63.5286C6.24947 61.7507 7.58102 60.2932 9.28852 59.4343C14.6245 56.3302 23.3082 56.3302 28.6834 59.4343C31.371 61.006 32.7227 63.0178 32.7306 65.0453C32.7306 66.2162 32.7306 67.4029 32.7306 68.5581C32.7306 66.5306 31.371 64.4952 28.6834 62.9471C23.316 59.8429 14.6323 59.8429 9.29638 62.9471Z" fill="#FFCE55"/>
<path d="M5.54733 67.0413C5.3939 67.5218 5.31182 68.0223 5.30371 68.5266V65.006C5.30335 64.5035 5.38565 64.0043 5.54733 63.5286C5.54733 64.118 5.54733 64.6995 5.54733 65.2889V66.8606C5.55064 66.9208 5.55064 66.9811 5.54733 67.0413V67.0413Z" fill="#FFCE55"/>
<path d="M32.7457 65.0847V68.5975C32.7457 70.6171 31.4098 72.6368 28.7614 74.177C23.4176 77.3204 14.7339 77.3204 9.36653 74.177C6.65533 72.6053 5.31152 70.57 5.31152 68.5267V65.0061C5.31152 67.0572 6.65533 69.1083 9.35867 70.6643C14.7261 73.8077 23.4098 73.8077 28.7536 70.6643C31.4333 69.1554 32.7378 67.1043 32.7457 65.0847Z" fill="#F3C541"/>
<path d="M32.7383 68.5972V68.5579C32.7383 67.387 32.7383 66.2004 32.7383 65.0452C32.7462 66.1375 32.7383 67.5835 32.7383 68.5972Z" fill="#FFCE55"/>
<path d="M28.6987 59.4343C34.074 62.5305 34.0976 67.56 28.7616 70.6641C23.4257 73.7683 14.7341 73.8076 9.36672 70.6641C3.99933 67.5207 3.9286 62.5305 9.30385 59.4343C14.6791 56.338 23.3235 56.3302 28.6987 59.4343Z" fill="#F3C541"/>
<path d="M9.30447 61.3911C14.6404 58.2477 23.3241 58.2477 28.6994 61.3911C30.9626 62.6956 32.275 64.3459 32.6286 66.0512C33.1316 63.6936 31.8428 61.2339 28.6994 59.4343C23.3241 56.3302 14.6404 56.3302 9.30447 59.4343C6.21606 61.226 4.92726 63.6543 5.42235 66.0119C5.78384 64.3144 7.07264 62.6877 9.30447 61.3911Z" fill="url(#paint28_linear_1385_18897)"/>
<path d="M36.4868 65.0924V68.613C36.4868 71.1827 34.7894 73.7525 31.4102 75.6857C24.6204 79.6149 13.5634 79.6149 6.7265 75.6857C3.27659 73.721 1.57129 71.112 1.57129 68.5108V64.998C1.57129 67.5835 3.29231 70.2083 6.73435 72.1965C13.5713 76.1257 24.6204 76.1257 31.4181 72.1965C34.7894 70.2318 36.479 67.67 36.4868 65.0924Z" fill="url(#paint29_linear_1385_18897)"/>
<path d="M31.3395 57.9019C38.1764 61.8311 38.2079 68.2516 31.4181 72.1966C24.6283 76.1416 13.5713 76.1258 6.7344 72.1966C-0.10253 68.2673 -0.141823 61.8469 6.64796 57.9019C13.4377 53.9569 24.4947 53.949 31.3395 57.9019ZM9.33558 70.6641C14.703 73.8076 23.3867 73.8076 28.7305 70.6641C34.0743 67.5207 34.0429 62.5306 28.6676 59.4343C23.2924 56.338 14.6087 56.3302 9.27271 59.4343C3.93676 62.5384 3.99177 67.5836 9.36702 70.6641" fill="#FFCE55"/>
<path d="M7.72504 58.5777C6.0206 59.4444 4.69066 60.9029 3.98438 62.6798C3.98437 61.5089 3.98438 60.3223 3.98438 59.1671C4.69066 57.3901 6.0206 55.9317 7.72504 55.0649C13.0689 51.9608 21.7525 51.9608 27.1278 55.0649C29.8076 56.6366 31.1592 58.6484 31.1749 60.6838C31.1749 61.8547 31.1749 63.0413 31.1749 64.1965C31.1749 62.1612 29.8154 60.1337 27.1278 58.5777C21.7447 55.4814 13.0689 55.4814 7.72504 58.5777Z" fill="#FFCE55"/>
<path d="M3.98385 62.6798C3.82218 63.1555 3.73987 63.6547 3.74024 64.1572V60.6444C3.74381 60.1422 3.82601 59.6437 3.98385 59.167C3.98385 59.7564 3.98385 60.3379 3.98385 60.9273V62.499C3.98717 62.5592 3.98717 62.6196 3.98385 62.6798Z" fill="#FFCE55"/>
<path d="M31.1832 60.7231V64.2359C31.1832 66.2555 29.8551 68.2752 27.1989 69.8155C21.863 72.9589 13.1793 72.9589 7.80402 69.8155C5.10068 68.2437 3.74901 66.2084 3.75687 64.1573V60.6445C3.75687 62.6956 5.10068 64.7388 7.80402 66.3027C13.1793 69.4068 21.863 69.4068 27.1989 66.3027C29.863 64.7624 31.1753 62.7428 31.1832 60.7231Z" fill="#F3C541"/>
<path d="M31.167 64.2359C31.167 63.065 31.167 61.8783 31.167 60.7231C31.1748 61.7762 31.1748 63.1829 31.167 64.2359Z" fill="#FFCE55"/>
<path d="M27.1352 55.0649C32.5025 58.2083 32.534 63.1985 27.1902 66.3026C21.8464 69.4067 13.1705 69.4067 7.79527 66.3026C2.42002 63.1985 2.39645 58.1533 7.7324 55.0649C13.0684 51.9765 21.7599 51.9608 27.1352 55.0649Z" fill="#F3C541"/>
<path d="M7.73306 57.0295C13.0769 53.9254 21.7606 53.9254 27.1358 57.0295C29.3991 58.3341 30.7114 59.9844 31.0651 61.6897C31.568 59.3321 30.2792 56.8724 27.1358 55.0649C21.7606 51.9608 13.0769 51.9608 7.73306 55.0649C4.64465 56.8645 3.35584 59.3007 3.85879 61.6347C4.22028 59.9529 5.50123 58.3183 7.73306 57.0295Z" fill="url(#paint30_linear_1385_18897)"/>
<path d="M34.9234 60.731V64.2438C34.9234 66.8214 33.2259 69.3833 29.8468 71.3165C23.0491 75.2458 12 75.2458 5.16307 71.3165C1.71316 69.3597 0 66.7507 0 64.1495V60.6367C0 63.2379 1.71316 65.8469 5.15521 67.8351C11.9921 71.7644 23.0491 71.7644 29.8389 67.8351C33.2259 65.8705 34.9155 63.3008 34.9234 60.731Z" fill="url(#paint31_linear_1385_18897)"/>
<path d="M29.7682 53.5325C36.6051 57.4618 36.6444 63.8822 29.8468 67.835C23.0492 71.7879 12 71.7643 5.1631 67.835C-1.67384 63.9058 -1.71313 57.4853 5.08451 53.5325C11.8822 49.5796 22.9313 49.5875 29.7682 53.5325ZM7.76428 66.3026C13.1395 69.4068 21.8232 69.4068 27.1592 66.3026C32.4951 63.1985 32.4716 58.169 27.1042 55.0649C21.7368 51.9608 13.0452 51.9608 7.70141 55.0649C2.3576 58.169 2.39689 63.1985 7.76428 66.3026" fill="#FFCE55"/>
<path d="M9.29638 54.6093C7.58898 55.4745 6.25608 56.9332 5.54785 58.7114C5.54785 57.5405 5.54785 56.3539 5.54785 55.1987C6.24715 53.4084 7.58559 51.9412 9.30424 51.0808C14.6402 47.9767 23.3239 47.9767 28.6991 51.0808C31.3867 52.6525 32.7384 54.6643 32.7463 56.6996C32.7463 57.8706 32.7463 59.0572 32.7463 60.2124C32.7463 58.177 31.3867 56.1417 28.6991 54.5936C23.316 51.5051 14.6323 51.5051 9.29638 54.6093Z" fill="#FFCE55"/>
<path d="M5.54733 58.7115C5.3932 59.1891 5.3111 59.6871 5.30371 60.1889V56.6761C5.30335 56.1736 5.38565 55.6745 5.54733 55.1987C5.54733 55.7803 5.54733 56.3697 5.54733 56.9512V58.5229C5.55067 58.5857 5.55067 58.6487 5.54733 58.7115V58.7115Z" fill="#FFCE55"/>
<path d="M32.7457 56.7467V60.2674C32.7457 62.287 31.4098 64.2988 28.7614 65.847C23.4176 68.9432 14.7339 68.9432 9.36653 65.847C6.65533 64.2752 5.31152 62.232 5.31152 60.1888V56.676C5.31152 58.7192 6.65533 60.7703 9.35867 62.3342C14.7261 65.4304 23.4098 65.4304 28.7536 62.3342C31.4333 60.786 32.7378 58.7743 32.7457 56.7467Z" fill="#F3C541"/>
<path d="M32.7383 60.2674C32.7383 59.0965 32.7383 57.9098 32.7383 56.7546C32.7462 57.8077 32.7383 59.2144 32.7383 60.2674Z" fill="#FFCE55"/>
<path d="M28.6987 51.0809C34.074 54.2243 34.0976 59.2145 28.7616 62.3107C23.4257 65.407 14.7341 65.4542 9.36672 62.3107C3.99933 59.1673 3.9286 54.2243 9.30385 51.0809C14.6791 47.9375 23.3235 47.9925 28.6987 51.0809Z" fill="#F3C541"/>
<path d="M9.30447 53.0532C14.6404 49.9098 23.3241 49.9098 28.6994 53.0532C30.9626 54.3656 32.275 56.0159 32.6286 57.7212C33.1316 55.3636 31.8428 52.9039 28.6994 51.0964C23.3241 47.9923 14.6404 47.9923 9.30447 51.0964C6.21606 52.8882 4.92726 55.3322 5.42235 57.6662C5.78384 55.9766 7.07264 54.3498 9.30447 53.0532Z" fill="url(#paint32_linear_1385_18897)"/>
<path d="M36.4868 56.7626V60.2753C36.4868 62.8451 34.7894 65.4148 31.4102 67.348C24.6204 71.2773 13.5634 71.2773 6.7265 67.348C3.27659 65.3912 1.57129 62.7822 1.57129 60.1732V56.6604C1.57129 59.2694 3.28445 61.8785 6.7265 63.8588C13.5634 67.7881 24.6126 67.7881 31.4102 63.8588C34.7894 61.902 36.479 59.3323 36.4868 56.7626Z" fill="url(#paint33_linear_1385_18897)"/>
<path d="M31.3395 49.5641C38.1764 53.4933 38.2079 59.9138 31.4181 63.8588C24.6283 67.8038 13.5713 67.788 6.7344 63.8588C-0.10253 59.9295 -0.141823 53.5091 6.64796 49.5641C13.4377 45.6191 24.4947 45.5798 31.3395 49.5641ZM9.33558 62.3342C14.703 65.4305 23.3867 65.4305 28.7305 62.3342C34.0743 59.2379 34.0743 54.2242 28.699 51.0808C23.3238 47.9374 14.6401 47.9766 9.30415 51.0808C3.9682 54.1849 3.99177 59.2144 9.36702 62.3185" fill="#FFCE55"/>
<path d="M8.11762 50.6407C6.41013 51.4996 5.07857 52.9571 4.37695 54.735C4.37695 53.5641 4.37695 52.3774 4.37695 51.2222C5.09159 49.4557 6.42375 48.0091 8.12548 47.1515C13.4693 44.0081 22.153 44.0081 27.5047 47.1515C30.1923 48.7232 31.5439 50.735 31.5518 52.7704C31.5518 53.9413 31.5518 55.1279 31.5518 56.2831C31.5518 54.2556 30.1923 52.2203 27.5047 50.6721C22.1373 47.5366 13.4536 47.5366 8.11762 50.6407Z" fill="#FFCE55"/>
<path d="M4.37643 54.7349C4.21475 55.2107 4.13245 55.7099 4.13281 56.2124V52.6996C4.13245 52.1971 4.21475 51.6979 4.37643 51.2222C4.37643 51.8116 4.37643 52.3931 4.37643 52.9825V54.5542C4.37975 54.6144 4.37975 54.6747 4.37643 54.7349V54.7349Z" fill="#FFCE55"/>
<path d="M31.568 52.7783V56.2911C31.568 58.3107 30.2399 60.3304 27.5837 61.8706C22.2477 65.0141 13.564 65.0141 8.18879 61.8706C5.48545 60.2989 4.13378 58.2636 4.14164 56.2125V52.6997C4.14164 54.7508 5.48545 56.8019 8.18879 58.3579C13.564 61.462 22.2477 61.462 27.5837 58.3579C30.2399 56.8176 31.568 54.7979 31.568 52.7783Z" fill="#F3C541"/>
<path d="M31.5596 56.2911C31.5596 55.1202 31.5596 53.9335 31.5596 52.7783C31.5674 53.8314 31.5674 55.2381 31.5596 56.2911Z" fill="#FFCE55"/>
<path d="M27.5042 47.1514C32.8794 50.2556 32.9108 55.285 27.567 58.3892C22.2232 61.4933 13.5474 61.4933 8.17214 58.3892C2.79689 55.285 2.78903 50.2241 8.12499 47.1514C13.4609 44.0787 22.1525 44.008 27.5042 47.1514Z" fill="#F3C541"/>
<path d="M8.12563 49.0847C13.4694 45.9413 22.1531 45.9413 27.5205 49.0847C29.7916 50.3893 31.104 52.0396 31.4498 53.7449C31.9527 51.3873 30.6639 48.9276 27.5205 47.1201C22.1531 44.0081 13.4694 44.0081 8.12563 47.1515C5.03722 48.9512 3.74842 51.3873 4.25137 53.7291C4.61286 52.0081 5.90166 50.3814 8.12563 49.0847Z" fill="url(#paint34_linear_1385_18897)"/>
<path d="M35.316 52.7859V56.3066C35.316 58.8763 33.6185 61.4382 30.2472 63.3793C23.4496 67.3085 12.4005 67.3085 5.56353 63.3793C2.10577 61.4146 0.384746 58.8056 0.392605 56.2044V52.6917C0.392605 55.2928 2.10577 57.9019 5.54781 59.8901C12.3847 63.8193 23.4417 63.8193 30.2315 59.8901C33.6185 57.9254 35.3081 55.3636 35.316 52.7859Z" fill="url(#paint35_linear_1385_18897)"/>
<path d="M30.1607 45.5798C36.9977 49.509 37.037 55.9295 30.2393 59.8823C23.4417 63.8352 12.3926 63.8116 5.55562 59.8823C-1.28131 55.9531 -1.3206 49.509 5.50061 45.5798C12.3218 41.6505 23.3238 41.6505 30.1607 45.5798ZM8.1568 58.3499C13.532 61.454 22.2157 61.454 27.5517 58.3499C32.8876 55.2458 32.8955 50.2242 27.5045 47.1515C22.1136 44.0788 13.4692 44.0081 8.12537 47.1515C2.78156 50.2949 2.81299 55.2851 8.18824 58.3892" fill="#FFCE55"/>
<path d="M8.51118 46.6641C6.80315 47.5261 5.47177 48.9862 4.77051 50.7663C4.77051 49.5953 4.77051 48.4087 4.77051 47.2535C5.4768 45.4766 6.80674 44.0181 8.51118 43.1513C13.855 40.0472 22.5308 40.0472 27.9061 43.1513C30.5937 44.723 31.9454 46.7348 31.9532 48.7702C31.9532 49.9411 31.9532 51.1278 31.9532 52.283C31.9532 50.2476 30.5937 48.2201 27.9061 46.6641C22.5308 43.56 13.8471 43.56 8.51118 46.6641Z" fill="#FFCE55"/>
<path d="M4.76998 50.7665C4.60831 51.2423 4.526 51.7414 4.52637 52.2439V48.7233C4.526 48.2208 4.60831 47.7216 4.76998 47.2458C4.76998 47.8274 4.76998 48.4168 4.76998 48.9983V50.57C4.77361 50.6354 4.77361 50.701 4.76998 50.7665V50.7665Z" fill="#FFCE55"/>
<path d="M31.9605 48.8096V52.3224C31.9605 54.342 30.6246 56.3616 27.9763 57.9019C22.6324 61.006 13.9488 61.006 8.58137 57.9019C5.87803 56.3302 4.52636 54.287 4.53421 52.2438V48.7231C4.53421 50.7664 5.87803 52.8174 8.58137 54.3813C13.9566 57.4776 22.6403 57.4776 27.9763 54.3813C30.6482 52.841 31.9605 50.8292 31.9605 48.8096Z" fill="#F3C541"/>
<path d="M31.9531 52.3223C31.9531 51.1514 31.9531 49.9648 31.9531 48.8096C31.961 49.8626 31.9531 51.2693 31.9531 52.3223Z" fill="#FFCE55"/>
<path d="M27.9134 43.1515C33.2887 46.2949 33.3201 51.2851 27.9763 54.3892C22.6325 57.4934 13.9566 57.4855 8.5814 54.3892C3.20616 51.293 3.18258 46.2557 8.51853 43.1515C13.8545 40.0474 22.5382 40.0788 27.9134 43.1515Z" fill="#FCCE5B"/>
<path d="M8.51919 45.1082C13.863 42.012 22.5388 42.012 27.9141 45.1082C30.1852 46.4206 31.4897 48.0709 31.8434 49.7762C32.3463 47.4186 31.0575 44.9589 27.9141 43.1514C22.5388 40.0788 13.863 40.0788 8.51919 43.1514C5.43078 44.9432 4.14198 47.3872 4.64492 49.7212C4.99856 48.0395 6.28736 46.4049 8.51919 45.1082Z" fill="url(#paint36_linear_1385_18897)"/>
<path d="M35.7095 48.8174V52.3302C35.7095 54.9 34.0121 57.4697 30.6408 59.4029C23.8431 63.3322 12.794 63.3322 5.95706 59.4029C2.4993 57.4461 0.786133 54.8371 0.786133 52.2281V48.7231C0.786133 51.3322 2.4993 53.9412 5.94134 55.9294C12.7783 59.8587 23.8274 59.8587 30.625 55.9294C34.0121 53.9569 35.7017 51.3872 35.7095 48.8174Z" fill="url(#paint37_linear_1385_18897)"/>
<path d="M30.5544 41.6505C37.3913 45.5797 37.4306 52.0001 30.6329 55.953C23.8353 59.9058 12.7862 59.8823 5.94925 55.953C-0.887686 52.0237 -0.926979 45.5797 5.8628 41.6505C12.6526 37.7212 23.7174 37.674 30.5544 41.6505ZM8.55043 54.4206C13.9257 57.5168 22.6094 57.5168 27.9453 54.4206C33.2813 51.3243 33.2577 46.287 27.8824 43.1829C22.5072 40.0787 13.8314 40.0787 8.48756 43.1829C3.14375 46.287 3.17518 51.3165 8.55043 54.4206" fill="#FCCE5B"/>
<path d="M31.5283 97.4461C34.4045 90.5777 51.7877 72.6445 69.155 79.8823C86.5224 87.12 109.611 100.652 106.735 107.544C105.163 111.403 92.0706 127.851 84.1884 127.254L31.5283 97.4461Z" fill="#E8E4E3"/>
<path d="M103.065 109.611L48.0869 86.4442L83.7726 65.1711L140 88.6918L103.065 109.611Z" fill="#E8E4E3"/>
<path d="M88.4872 18.1298L45.0059 43.23V30.6327L88.4872 6.52271V18.1298Z" fill="#006C77"/>
<path d="M87.5835 6.14551L45.0059 30.6327L45.9096 31.0099L88.4872 6.52272L87.5835 6.14551Z" fill="#59A2A2"/>
<path d="M97.5638 12.1337L55.2534 101.855L45.0059 95.9215V32.2515L88.4872 7.78003L97.5638 12.1337Z" fill="#E8C1B3"/>
<path d="M45.9096 31.01L45.8703 43.6623L45.0059 43.2301V30.6328L45.9096 31.01Z" fill="#006C77"/>
<path d="M98.7352 76.7545L55.2539 101.855V39.0885L98.7352 13.9805V76.7545Z" fill="#FFE7DD"/>
<path d="M98.7352 76.7546V25.8862L93.5565 16.9746L55.2539 39.0886V50.9943C57.2175 56.6436 59.6217 62.13 62.4445 67.4029C65.8315 73.5876 77.3757 89.0768 77.3757 89.0768L98.7352 76.7546Z" fill="#E8C1B3"/>
<path d="M73.5722 38.5856L98.7195 24.0552C98.7195 24.0552 101.588 30.2163 106.578 38.7428C116.008 54.8214 137.745 67.4265 137.745 67.4265L96.6606 95.4658C84.2973 88.3648 73.6211 78.6672 65.3679 67.0414C61.4123 61.432 58.0243 55.4431 55.2539 49.1632L73.5722 38.5856Z" fill="#FFE7DD"/>
<path d="M98.7352 24.055L67.4897 42.0982L66.1616 42.8605L55.2539 49.1631V36.5658L98.7352 11.4578V24.055Z" fill="#006C77"/>
<path d="M97.831 11.0806L54.3418 36.1886L55.2534 36.5658L98.7347 11.4578L97.831 11.0806Z" fill="#59A2A2"/>
<path d="M55.2534 36.5659V49.1632L54.334 48.6288L54.3418 36.1887L55.2534 36.5659Z" fill="#006C77"/>
<path d="M46.5458 96.3224C46.4624 96.3224 46.3825 96.2893 46.3235 96.2303C46.2646 96.1714 46.2314 96.0914 46.2314 96.008V34.5778C46.2314 34.4944 46.2646 34.4144 46.3235 34.3555C46.3825 34.2965 46.4624 34.2634 46.5458 34.2634C46.5867 34.2634 46.6272 34.2716 46.6649 34.2875C46.7026 34.3034 46.7368 34.3267 46.7653 34.356C46.7939 34.3853 46.8163 34.42 46.8312 34.4581C46.8462 34.4962 46.8533 34.5369 46.8523 34.5778V95.9923C46.8555 96.0345 46.85 96.0769 46.8361 96.1169C46.8221 96.1568 46.8001 96.1934 46.7713 96.2245C46.7425 96.2555 46.7076 96.2802 46.6688 96.297C46.63 96.3139 46.5881 96.3225 46.5458 96.3224V96.3224Z" fill="white"/>
<path d="M47.9374 97.0296C47.854 97.0296 47.7741 96.9965 47.7151 96.9375C47.6562 96.8785 47.623 96.7986 47.623 96.7152V35.3007C47.623 35.2173 47.6562 35.1373 47.7151 35.0784C47.7741 35.0194 47.854 34.9863 47.9374 34.9863C48.0208 34.9863 48.1007 35.0194 48.1597 35.0784C48.2186 35.1373 48.2517 35.2173 48.2517 35.3007V96.7152C48.2517 96.7986 48.2186 96.8785 48.1597 96.9375C48.1007 96.9965 48.0208 97.0296 47.9374 97.0296Z" fill="white"/>
<path d="M49.3124 97.7368C49.229 97.7368 49.1491 97.7037 49.0901 97.6448C49.0312 97.5858 48.998 97.5059 48.998 97.4225V36.0079C48.998 35.9246 49.0312 35.8446 49.0901 35.7857C49.1491 35.7267 49.229 35.6936 49.3124 35.6936C49.3958 35.6936 49.4757 35.7267 49.5347 35.7857C49.5936 35.8446 49.6267 35.9246 49.6267 36.0079V97.4461C49.6208 97.5253 49.585 97.5993 49.5267 97.6533C49.4684 97.7072 49.3918 97.7371 49.3124 97.7368V97.7368Z" fill="white"/>
<path d="M50.6952 98.4441C50.6118 98.4441 50.5319 98.411 50.4729 98.352C50.414 98.2931 50.3809 98.2131 50.3809 98.1298V36.7152C50.3809 36.6739 50.389 36.6331 50.4048 36.5949C50.4206 36.5568 50.4437 36.5221 50.4729 36.4929C50.5021 36.4638 50.5368 36.4406 50.5749 36.4248C50.613 36.409 50.6539 36.4009 50.6952 36.4009C50.7365 36.4009 50.7774 36.409 50.8155 36.4248C50.8536 36.4406 50.8883 36.4638 50.9175 36.4929C50.9467 36.5221 50.9698 36.5568 50.9856 36.5949C51.0014 36.6331 51.0096 36.6739 51.0096 36.7152V98.1298C51.0096 98.2131 50.9764 98.2931 50.9175 98.352C50.8585 98.411 50.7786 98.4441 50.6952 98.4441Z" fill="white"/>
<path d="M52.079 99.1514C51.9956 99.1514 51.9157 99.1183 51.8567 99.0593C51.7978 99.0004 51.7646 98.9204 51.7646 98.837V37.4225C51.7646 37.3391 51.7978 37.2592 51.8567 37.2002C51.9157 37.1413 51.9956 37.1082 52.079 37.1082C52.1624 37.1082 52.2423 37.1413 52.3013 37.2002C52.3602 37.2592 52.3933 37.3391 52.3933 37.4225V98.837C52.3933 98.9204 52.3602 99.0004 52.3013 99.0593C52.2423 99.1183 52.1624 99.1514 52.079 99.1514Z" fill="white"/>
<path d="M53.4384 99.8587C53.355 99.8587 53.275 99.8255 53.2161 99.7666C53.1571 99.7076 53.124 99.6277 53.124 99.5443V38.1298C53.124 38.0464 53.1571 37.9664 53.2161 37.9075C53.275 37.8485 53.355 37.8154 53.4384 37.8154C53.5217 37.8154 53.6017 37.8485 53.6606 37.9075C53.7196 37.9664 53.7527 38.0464 53.7527 38.1298V99.5443C53.7527 99.6277 53.7196 99.7076 53.6606 99.7666C53.6017 99.8255 53.5217 99.8587 53.4384 99.8587Z" fill="white"/>
<path d="M53.973 35.9844C53.9172 35.9857 53.862 35.9718 53.8136 35.9441C53.7651 35.9164 53.7251 35.876 53.6979 35.8272C53.677 35.7912 53.6634 35.7513 53.6579 35.71C53.6525 35.6686 53.6554 35.6266 53.6664 35.5864C53.6773 35.5462 53.6962 35.5085 53.7218 35.4757C53.7475 35.4428 53.7794 35.4154 53.8158 35.395L95.1989 11.9451C95.2346 11.9179 95.2757 11.8987 95.3195 11.8887C95.3633 11.8787 95.4087 11.8783 95.4526 11.8873C95.4966 11.8963 95.5381 11.9147 95.5744 11.9411C95.6107 11.9676 95.6409 12.0015 95.663 12.0405C95.685 12.0796 95.6985 12.123 95.7024 12.1677C95.7064 12.2124 95.7007 12.2574 95.6858 12.2997C95.6708 12.3421 95.647 12.3807 95.6159 12.4131C95.5848 12.4454 95.5471 12.4707 95.5054 12.4873L54.1223 35.9451C54.076 35.969 54.025 35.9824 53.973 35.9844V35.9844Z" fill="white"/>
<path d="M52.5034 35.3635C52.4357 35.3617 52.3704 35.3382 52.3173 35.2963C52.2641 35.2545 52.2258 35.1966 52.2082 35.1313C52.1905 35.066 52.1944 34.9967 52.2193 34.9337C52.2441 34.8708 52.2886 34.8176 52.3462 34.782L93.7214 11.3242C93.7575 11.3036 93.7974 11.2902 93.8386 11.285C93.8799 11.2798 93.9218 11.2827 93.9619 11.2936C94.0021 11.3046 94.0397 11.3233 94.0725 11.3488C94.1054 11.3743 94.133 11.406 94.1536 11.4421C94.1743 11.4782 94.1876 11.518 94.1928 11.5593C94.1981 11.6006 94.1952 11.6425 94.1842 11.6826C94.1733 11.7227 94.1545 11.7603 94.1291 11.7932C94.1036 11.8261 94.0719 11.8537 94.0358 11.8743L52.6527 35.3635C52.6035 35.3741 52.5526 35.3741 52.5034 35.3635Z" fill="white"/>
<path d="M51.1278 34.5776C51.0717 34.5758 51.017 34.5597 50.9689 34.5308C50.9208 34.5019 50.8808 34.4612 50.8528 34.4126C50.8129 34.3405 50.8029 34.2557 50.8249 34.1763C50.847 34.097 50.8993 34.0294 50.9706 33.9882L92.3537 10.5383C92.4243 10.5103 92.5027 10.5087 92.5744 10.534C92.646 10.5593 92.7061 10.6096 92.7435 10.6758C92.7809 10.7419 92.793 10.8194 92.7777 10.8938C92.7624 10.9682 92.7207 11.0346 92.6602 11.0806L51.285 34.5069C51.2404 34.545 51.1859 34.5696 51.1278 34.5776V34.5776Z" fill="white"/>
<path d="M49.7293 33.9256C49.674 33.9247 49.62 33.9089 49.573 33.8799C49.5259 33.8508 49.4876 33.8096 49.4621 33.7605C49.4223 33.6885 49.4123 33.6036 49.4343 33.5243C49.4564 33.4449 49.5087 33.3774 49.58 33.3362L90.9553 9.88626C91.0285 9.846 91.1146 9.83579 91.1952 9.85779C91.2759 9.87978 91.3448 9.93226 91.3875 10.0041C91.4267 10.0772 91.4355 10.1627 91.4119 10.2422C91.3884 10.3217 91.3344 10.3886 91.2617 10.4285L49.8865 33.8784C49.8399 33.9093 49.7852 33.9257 49.7293 33.9256V33.9256Z" fill="white"/>
<path d="M48.3617 33.4147C48.3071 33.4155 48.2532 33.4012 48.2061 33.3735C48.159 33.3458 48.1204 33.3057 48.0945 33.2575C48.0543 33.1843 48.044 33.0982 48.066 33.0176C48.088 32.9369 48.1405 32.868 48.2124 32.8253L89.5876 9.37541C89.6231 9.35462 89.6623 9.34116 89.7031 9.33583C89.7438 9.33051 89.7852 9.33344 89.8248 9.34443C89.8644 9.35543 89.9014 9.37427 89.9335 9.39985C89.9657 9.42542 89.9924 9.4572 90.012 9.49329C90.033 9.52933 90.0466 9.56918 90.052 9.61052C90.0574 9.65185 90.0545 9.69386 90.0436 9.73408C90.0326 9.77431 90.0137 9.81195 89.9881 9.84481C89.9624 9.87768 89.9305 9.90511 89.8941 9.92551L48.5189 33.3754C48.4701 33.4002 48.4164 33.4137 48.3617 33.4147V33.4147Z" fill="white"/>
<path d="M47.1517 32.8882C47.0963 32.8872 47.0421 32.8722 46.9941 32.8448C46.946 32.8173 46.9056 32.7782 46.8766 32.731C46.8557 32.695 46.8421 32.6551 46.8367 32.6138C46.8312 32.5725 46.8341 32.5304 46.8451 32.4902C46.856 32.45 46.8749 32.4124 46.9006 32.3795C46.9262 32.3466 46.9581 32.3192 46.9945 32.2988L88.3776 8.84889C88.4133 8.8217 88.4545 8.80248 88.4982 8.79251C88.542 8.78255 88.5874 8.78207 88.6314 8.79111C88.6753 8.80016 88.7168 8.81851 88.7531 8.84494C88.7894 8.87137 88.8196 8.90526 88.8417 8.94434C88.8638 8.98341 88.8772 9.02676 88.8812 9.07148C88.8851 9.11619 88.8794 9.16123 88.8645 9.20356C88.8495 9.24589 88.8257 9.28453 88.7946 9.31688C88.7635 9.34924 88.7258 9.37456 88.6841 9.39113L47.2617 32.8489C47.2275 32.868 47.1903 32.8813 47.1517 32.8882V32.8882Z" fill="white"/>
<path d="M93.0275 24.0928C93.7284 22.8787 93.7299 21.5673 93.0308 21.1637C92.3316 20.7601 91.1967 21.417 90.4957 22.6311C89.7948 23.8452 89.7933 25.1566 90.4924 25.5602C91.1915 25.9638 92.3265 25.3068 93.0275 24.0928Z" fill="#02575B"/>
<path d="M86.8057 1.37538C85.4182 0.520226 83.8298 0.0458786 82.2006 0.00013235C81.2978 -0.0192541 80.4026 0.169913 79.5848 0.552916C78.767 0.93592 78.0486 1.50243 77.4855 2.20838C76.3274 3.80218 75.743 5.74107 75.8273 7.70937C75.847 9.3274 76.1119 10.9331 76.6132 12.4716L79.5759 10.7585C79.3053 9.76467 79.1679 8.73934 79.1672 7.70937C79.1672 6.38913 79.458 3.31644 82.2006 3.31644C83.2495 3.36955 84.267 3.6916 85.1554 4.25161C89.2969 6.60917 92.7939 12.7074 92.7939 17.4933C92.7939 18.5384 92.6053 20.6917 91.1594 21.5325C90.6023 22.1085 90.249 22.8509 90.1535 23.6465C90.0356 25.0139 91.1594 25.0375 91.1594 25.0375C92.4591 24.7507 93.6196 24.0233 94.4442 22.9785C95.604 21.3856 96.1886 19.4461 96.1024 17.4775C96.1024 11.4658 92.0238 4.3852 86.8057 1.37538Z" fill="#A7705A"/>
<path d="M65.5718 37.9805C65.5437 38.609 65.3665 39.2218 65.055 39.7683C64.7435 40.3149 64.3065 40.7795 63.78 41.124C62.7899 41.6976 61.9883 41.234 61.9883 40.0866C62.012 39.4561 62.1872 38.8405 62.499 38.292C62.8109 37.7435 63.2503 37.2782 63.78 36.9353C64.7702 36.3774 65.5718 36.841 65.5718 37.9805Z" fill="#02575B"/>
<path d="M58.8758 17.3832C57.4903 16.5226 55.9011 16.0453 54.2707 16.0001C53.3679 15.9807 52.4727 16.1699 51.6549 16.5529C50.8371 16.9359 50.1187 17.5024 49.5556 18.2084C48.3986 19.8027 47.8143 21.7412 47.8974 23.7094C47.9162 25.3403 48.1812 26.9591 48.6833 28.5109L51.646 26.8056C51.3743 25.7956 51.2317 24.7552 51.2216 23.7094C51.2216 22.3891 51.5124 19.3243 54.255 19.3243C55.3038 19.3774 56.3214 19.6995 57.2098 20.2595C61.3513 22.617 64.8483 28.7074 64.8483 33.4933C64.8483 34.5384 64.6597 36.6917 63.2137 37.5325C62.6556 38.1109 62.3023 38.8562 62.2079 39.6544C62.09 41.0139 63.2137 41.0375 63.2137 41.0375C64.5128 40.754 65.6736 40.0292 66.4986 38.9864C67.6567 37.3926 68.2411 35.4537 68.1568 33.4854C68.1725 27.505 64.0939 20.4324 58.8758 17.3832Z" fill="#A7705A"/>
<path d="M50.208 73.9727C66.1687 83.1908 79.1118 105.281 79.5204 123.749C79.5204 124.307 79.1353 124.535 78.6481 124.252L21.5793 91.3008C21.3261 91.1369 21.1152 90.9155 20.9636 90.6547C20.812 90.3939 20.7241 90.101 20.707 89.7998C21.2178 71.8588 34.2552 64.7625 50.208 73.9727Z" fill="#F2D5C9"/>
<path d="M79.0412 124.071C78.9564 124.069 78.8742 124.042 78.8054 123.992L21.7288 91.0413C21.5197 90.9058 21.3458 90.7226 21.2215 90.5067C21.0972 90.2908 21.0259 90.0485 21.0137 89.7997C21.3594 77.7368 27.5048 70.2397 37.0058 70.2397C41.0765 70.2397 45.4616 71.5836 50.0589 74.2319C57.7209 78.6562 64.9901 86.224 70.4361 95.5443C75.8821 104.864 79.0255 114.861 79.2219 123.756C79.2295 123.85 79.2075 123.943 79.1591 124.024C79.1441 124.04 79.1258 124.052 79.1054 124.06C79.085 124.069 79.0631 124.072 79.0412 124.071V124.071Z" fill="#DF9578"/>
<path d="M79.8035 123.261C79.8035 122.845 79.8035 122.421 79.7485 121.996C79.6935 121.572 79.6856 121.132 79.6463 120.699V120.44L79.5049 119.183V118.939C79.4498 118.531 79.3948 118.153 79.332 117.713V117.587C79.2612 117.147 79.1827 116.699 79.1041 116.259L79.0569 115.992C78.9705 115.552 78.884 115.112 78.7819 114.672L78.7347 114.436C78.6326 113.973 78.5225 113.517 78.4125 113.053C78.2946 112.582 78.1689 112.11 78.0432 111.646L77.9724 111.403C77.8467 110.955 77.721 110.507 77.5795 110.059L77.5009 109.784C77.3595 109.336 77.218 108.888 77.0687 108.448L77.0137 108.291C76.8801 107.882 76.7308 107.505 76.5815 107.049L76.5029 106.821C76.3562 106.407 76.199 105.991 76.0314 105.572L75.9292 105.305C75.7563 104.872 75.5913 104.456 75.4184 104.047C75.2455 103.639 75.0569 103.183 74.8683 102.766L74.7426 102.476C74.5618 102.059 74.3732 101.65 74.1846 101.234L74.106 101.085C73.886 100.605 73.6581 100.134 73.4223 99.6622C73.163 99.1435 72.9037 98.6405 72.6365 98.1455L72.55 97.9883C72.3536 97.6032 72.1493 97.2024 71.9371 96.8567L71.7956 96.6052C71.6227 96.2908 71.4341 95.9686 71.2534 95.6543L71.1434 95.4578C70.774 94.8291 70.3575 94.2005 70.0275 93.6111C69.6607 93.0138 69.2757 92.4166 68.8722 91.8193L68.7387 91.6229L67.9528 90.4834L67.9057 90.4205L67.0726 89.2653L66.9312 89.0688C66.5383 88.5344 66.1453 88.0079 65.7288 87.4971L65.6424 87.3871C65.3045 86.9706 64.9744 86.5541 64.6365 86.1455L64.4872 85.9726C64.165 85.5796 63.8271 85.1867 63.497 84.8095L63.3163 84.6052C62.9862 84.228 62.6483 83.8193 62.3182 83.4971L62.1611 83.3321C61.7838 82.9235 61.4224 82.5462 61.0766 82.2005L60.9823 82.0983C60.5658 81.6739 60.1964 81.3124 59.8035 80.9352C59.4106 80.558 59.0176 80.1494 58.554 79.7643L58.4833 79.7093C58.0982 79.3635 57.6974 79.0178 57.273 78.6484L57.1316 78.5305C56.7701 78.224 56.3929 77.9176 55.9764 77.5875L55.7878 77.4382C55.4184 77.1474 55.0019 76.8567 54.6561 76.5737L54.4675 76.4323L53.3438 75.6464L53.0373 75.4421C52.6758 75.1906 52.3143 74.947 51.9449 74.7191L51.8664 74.6563C51.5363 74.4441 51.1827 74.224 50.7583 73.9726L50.6247 73.894L50.3418 73.7211L49.5088 73.2339L49.273 73.0846L48.3222 72.5895L48.1414 72.503C47.7956 72.3301 47.442 72.1651 47.0962 72.0079L46.8683 71.9058L45.831 71.5128C45.5088 71.3792 45.163 71.2457 44.7701 71.1121L44.5579 71.0335C44.2043 70.9077 43.8585 70.7977 43.5284 70.6956L43.0805 70.562L42.884 70.5069L42.2161 70.3341H42.1375L41.556 70.2005L41.3281 70.1533L40.8644 70.0197L40.5579 69.9411H40.1886L39.8821 69.894L39.5284 69.8468H39.1905H38.8526H38.5147H38.2004H37.8153H37.5167H36.8487H36.33H36.1493C35.9057 69.8468 35.6778 69.8468 35.442 69.894H35.3163C35.0884 69.894 34.8683 69.9411 34.6483 69.9726H34.4283L33.7681 70.0826H33.6581L33.4459 70.1297L33.0844 70.2083H33.0059L37.8782 67.3714C38.051 67.2692 38.2318 67.1749 38.4125 67.0806L38.5933 66.9863L38.9626 66.8134L39.1827 66.7113L39.5206 66.562L39.7485 66.4677L40.0785 66.2476L40.2043 66.2005L40.5579 66.0826L40.8644 66.0119L41.0844 65.949L41.4066 65.8625L41.6188 65.8075L41.9725 65.729L42.2004 65.6739H42.2868L42.9155 65.5718H43.1277L43.7878 65.4932H43.8978C44.11 65.4932 44.3457 65.4932 44.5736 65.446H44.7937H45.3202H46.2632H46.6169H46.7583H46.9391H47.2613H47.5913H47.9135H48.055L48.5658 65.5246L48.9116 65.5875L49.3123 65.6582L49.8546 65.7682L50.3497 65.8861H50.5068L51.1119 66.0433L51.6699 66.2083H51.7328C52.0628 66.3026 52.4086 66.4205 52.7544 66.5384H52.8408L52.9508 66.5855C53.6424 66.8292 54.3497 67.1121 55.0491 67.4264L55.1748 67.4814L55.277 67.5286C55.6227 67.6779 55.9685 67.8429 56.3143 68.0158L56.4636 68.0944C56.7858 68.2515 57.1001 68.4087 57.4145 68.5816L57.5559 68.6523L57.6345 68.6995C57.9174 68.8462 58.2003 69.0033 58.4833 69.171L58.7662 69.336L58.8919 69.4146C59.2927 69.6504 59.6778 69.8704 59.9921 70.0904H60.055L61.1394 70.8056L61.2495 70.8763L61.3045 70.9235C61.666 71.1671 62.0432 71.4343 62.4125 71.7093L62.5225 71.78L62.609 71.8508C62.9941 72.1337 63.3948 72.4244 63.7328 72.7073L63.8035 72.7623L63.9056 72.8488C64.3143 73.171 64.6915 73.4775 65.0609 73.7918L65.1866 73.9018C65.6188 74.2633 65.9724 74.6013 66.389 74.9392L66.4675 75.0178C66.8919 75.395 67.2534 75.8036 67.6778 76.1415C68.0471 76.4952 68.4636 76.8724 68.8408 77.2889L68.9351 77.3832L70.0117 78.5148L70.1532 78.6641C70.4832 79.0256 70.8212 79.395 71.1512 79.7722L71.2377 79.8665L71.3163 79.9608C71.6542 80.3458 71.9842 80.7466 72.3143 81.1238L72.3693 81.1867L72.4479 81.2889C72.7858 81.6975 73.1159 82.0747 73.4459 82.5227L73.5324 82.6327C73.9332 83.1356 74.3182 83.6622 74.7269 84.2044L74.7819 84.283L74.8762 84.4087C75.1512 84.7859 75.4263 85.1946 75.662 85.5482V85.6032C75.9292 85.9804 76.1886 86.3891 76.4479 86.7427L76.5736 86.9313C76.9665 87.5286 77.3595 88.118 77.721 88.6995C78.0903 89.2889 78.4597 89.9018 78.829 90.5305L78.9469 90.7348C79.1276 91.0492 79.3084 91.3557 79.4813 91.67L79.6227 91.9215C79.8271 92.2908 80.0314 92.6602 80.2278 93.0374L80.3143 93.2024C80.5736 93.6897 80.8329 94.1847 81.1001 94.6798V94.7427C81.3359 95.2064 81.5559 95.6779 81.776 96.1415L81.8546 96.3066C82.0432 96.7152 82.2318 97.0924 82.4125 97.5403L82.4675 97.6582L82.5304 97.7997C82.719 98.2162 82.8997 98.6405 83.0726 99.0649C83.2455 99.4893 83.4184 99.9136 83.5834 100.33L83.6856 100.589C83.8506 101.006 84.0078 101.43 84.1571 101.855L84.2278 102.043C84.3772 102.46 84.5265 102.876 84.6679 103.293L84.7151 103.45C84.8644 103.898 85.0058 104.338 85.1473 104.786V104.92V105.03C85.2887 105.477 85.4145 105.933 85.5402 106.381V106.468V106.617C85.666 107.081 85.7917 107.544 85.9017 108.016C86.0117 108.487 86.1296 108.951 86.2318 109.422L86.2789 109.635C86.3732 110.075 86.4675 110.507 86.5461 110.947V111.065V111.214C86.6326 111.654 86.7111 112.094 86.774 112.527V112.644C86.8369 113.053 86.8919 113.43 86.9469 113.87V114.051V114.098C86.994 114.515 87.0412 114.931 87.0805 115.348V115.45V115.599C87.0805 116.024 87.1591 116.448 87.1827 116.872C87.2062 117.297 87.2298 117.721 87.2455 118.13V118.774V118.829L87.1591 118.884L79.4341 123.379C79.5623 123.358 79.6868 123.318 79.8035 123.261Z" fill="#A7705A"/>
<path d="M81.1395 121.218C81.1395 120.998 81.1395 120.786 81.0766 120.566V120.307C81.0766 119.867 80.9902 119.434 80.9352 119.002V118.751C80.8802 118.334 80.8173 117.918 80.7544 117.493V117.375C80.6758 116.912 80.5972 116.456 80.5108 116L80.4637 115.725C80.3772 115.269 80.2829 114.821 80.1886 114.366L80.1336 114.122C80.0341 113.65 79.924 113.179 79.8035 112.707C79.6857 112.205 79.5521 111.725 79.4263 111.246L79.3556 111.01C79.2299 110.538 79.0963 110.083 78.9548 109.619L78.8684 109.344C78.7269 108.888 78.5776 108.432 78.4283 107.977L78.3733 107.812C78.2318 107.395 78.0825 106.971 77.9332 106.546L77.8546 106.318C77.6974 105.886 77.5324 105.462 77.3674 105.038L77.2652 104.762C77.0923 104.322 76.9195 103.898 76.7466 103.474C76.5737 103.049 76.3694 102.594 76.1807 102.169L76.055 101.878C75.8664 101.454 75.6778 101.03 75.4813 100.613L75.4027 100.448C75.1748 99.9688 74.9391 99.4815 74.7033 99.0022C74.4597 98.5071 74.2004 97.9963 73.9175 97.4305L73.8389 97.2733L73.2102 96.1181L73.0609 95.8666C72.8802 95.5365 72.6994 95.2143 72.5108 94.8921L72.4008 94.6957C72.0157 94.0434 71.6149 93.4069 71.2534 92.8096C70.8919 92.2281 70.4676 91.6151 70.0747 90.9943L69.9411 90.79L69.1552 89.6348V89.5798C68.8723 89.1711 68.5815 88.7939 68.2986 88.3853L68.1572 88.1967C67.7485 87.6466 67.3713 87.1043 66.9234 86.5778L66.8369 86.4678C66.5226 86.067 66.1847 85.6819 65.8075 85.1947L65.666 85.0218C65.3281 84.6132 64.9823 84.2359 64.6444 83.8273L64.4636 83.623C64.1179 83.2379 63.78 82.8371 63.4342 82.4835L63.277 82.3185C62.8919 81.902 62.4912 81.5326 62.169 81.1554L62.0668 81.0532C61.6503 80.6289 61.2809 80.2674 60.8644 79.8587C60.4479 79.4501 60.0157 79.0729 59.5835 78.6642L59.5206 78.6092C59.1198 78.2477 58.7348 77.8941 58.2711 77.5169L58.1375 77.4069C57.7525 77.0768 57.3517 76.7625 56.9352 76.4246L56.5815 76.2281C56.2043 75.9295 55.7957 75.6308 55.4106 75.3401L55.2141 75.1908C54.8212 74.9 54.4283 74.6249 54.0589 74.3656L53.8625 74.2399C53.4538 73.957 53.0766 73.7134 52.7387 73.454H52.6915L51.5285 72.7389L51.0805 72.4717C50.7741 72.2988 50.4754 72.1259 50.1768 71.9688L49.9568 71.843L48.9666 71.3322L48.7937 71.2458L47.6935 70.7271L47.4499 70.6249C47.057 70.4442 46.664 70.2949 46.3654 70.1613C46.0118 70.0198 45.6503 69.8862 45.2574 69.7448L45.0373 69.6662C44.6549 69.5352 44.2934 69.4173 43.9528 69.3126L43.4813 69.1711L43.222 69.1004L42.5069 68.9118H42.4047L41.7996 68.7703L41.556 68.7153L41.108 68.6289L40.7937 68.5739L40.3929 68.5031L40.0786 68.4324L39.7171 68.3695H39.3634H39.002L39.2141 68.2595L39.5442 68.1024L39.7407 68.0159L40.0471 67.8823L40.2357 67.8037L40.5815 67.6701H40.6915L41.0137 67.5601L41.2888 67.4737L41.4853 67.4187L41.7682 67.3401L41.9803 67.2929L42.2868 67.2222L42.4833 67.175H42.5462L43.1434 67.0729H43.3477L43.9293 67.01H44.055H44.6522H45.886H46.1532H46.4911H46.7741H47.0884H47.3949H47.6856H47.8192L48.3065 67.0886H48.5579L49.0216 67.1672L49.5167 67.2772L49.9725 67.3794L50.1218 67.4187H50.2318L50.7112 67.5444L51.2299 67.6937H51.3006C51.6149 67.788 51.9371 67.898 52.2672 68.008H52.3379H52.4244C53.108 68.2595 53.7839 68.5267 54.4519 68.7939L54.5697 68.8489L54.6719 68.8961C55.0255 69.0532 55.3477 69.2025 55.6621 69.3597L55.8035 69.4304L56.723 69.9098L56.8566 69.9805H56.9194L57.7053 70.4442L57.9803 70.6014L58.0825 70.6642L59.1591 71.3244H59.222L60.2672 72.0238L60.3772 72.0945C60.7544 72.346 61.1159 72.6053 61.4695 72.8803L61.5717 72.9511L61.6424 73.0061L62.8684 74.0434L62.9391 74.0984L63.0177 74.1691C63.4342 74.4992 63.8035 74.7978 64.1572 75.0965L64.275 75.1986C64.6994 75.5601 65.0609 75.8902 65.446 76.2202L65.5167 76.2831C65.9411 76.6682 66.3025 77.069 66.7033 77.3833H66.7426C67.0963 77.7291 67.4735 78.0984 67.8664 78.4992L67.9686 78.5935C68.2986 78.9393 68.6444 79.3008 69.0059 79.6937L69.1552 79.843C69.4774 80.1888 69.7996 80.5503 70.1218 80.9196L70.2082 81.0139L70.279 81.0925L71.2613 82.2399L71.3163 82.3027L71.3792 82.3892C71.7485 82.8371 72.0707 83.2301 72.3693 83.6151L72.4479 83.7094C72.8409 84.2124 73.2338 84.7232 73.6189 85.2811L73.6739 85.3597L73.7603 85.4697C74.0354 85.847 74.3104 86.2556 74.5462 86.6014V86.6485C74.8134 87.0179 75.0648 87.4344 75.332 87.7723L75.4578 87.953C75.8428 88.5424 76.2436 89.124 76.5737 89.6819V89.7291C76.9273 90.3027 77.2967 90.9079 77.6503 91.513L77.7682 91.7094L78.2868 92.6289L78.4283 92.8804L79.0177 93.9648L79.1041 94.122C79.387 94.6564 79.6307 95.1358 79.89 95.5758V95.623C80.1257 96.0945 80.3458 96.5503 80.558 97.0061L80.6365 97.1711C80.8251 97.564 81.0059 97.957 81.1866 98.3735L81.2416 98.4914L81.2888 98.6171C81.4774 99.0414 81.6582 99.4579 81.831 99.8745C82.0039 100.291 82.169 100.7 82.3261 101.108L82.4283 101.368C82.5855 101.776 82.7426 102.153 82.8919 102.601L82.9548 102.774C83.1041 103.191 83.2456 103.599 83.387 104.008L83.442 104.165C83.5835 104.59 83.7171 105.03 83.8585 105.462V105.595V105.682C84 106.138 84.1257 106.578 84.2515 107.018V107.104V107.23C84.3851 107.702 84.5029 108.157 84.613 108.613C84.723 109.069 84.833 109.525 84.9352 109.981L84.9823 110.201C85.0766 110.617 85.1631 111.041 85.2417 111.466V111.584V111.709C85.3202 112.15 85.3988 112.582 85.4617 113.006V113.116C85.5246 113.517 85.5796 113.902 85.6346 114.303V114.515C85.6896 114.931 85.7367 115.301 85.776 115.733V115.961C85.776 116.393 85.8546 116.81 85.8782 117.218C85.9018 117.627 85.8782 117.933 85.9332 118.271L81.1395 121.218Z" fill="#A7705A"/>
<path d="M47.9369 76.6524C44.7269 74.7936 41.0843 73.8125 37.375 73.8076L38.6402 77.0768C41.9025 77.0959 45.1047 77.9566 47.9369 79.5758V76.6524Z" fill="#F2D5C9"/>
<path d="M27.3009 79.5522C25.4326 82.7303 24.4452 86.349 24.4404 90.0355L26.9866 91.5051C27.0068 88.2657 27.8737 85.0879 29.5013 82.287L27.3009 79.5522" fill="#F2D5C9"/>
<path d="M35.9057 73.9412C32.8474 74.3514 30.0686 75.9352 28.1572 78.3577L30.3576 81.0924C32.0485 78.9745 34.4869 77.5852 37.171 77.2103L35.9057 73.9412" fill="#F2D5C9"/>
<path d="M49.6348 77.627V80.5582C53.1306 82.8078 56.2539 85.5891 58.8921 88.8018L60.1731 87.0022C57.174 83.3435 53.6177 80.1797 49.6348 77.627" fill="#F2D5C9"/>
<path d="M61.6345 88.8017L60.3535 90.6013C63.1036 94.2039 65.3802 98.1444 67.1276 102.326L69.3358 102.138C67.3605 97.3686 64.7715 92.8775 61.6345 88.7781" fill="#A7705A"/>
<path d="M70.177 104.307L67.9688 104.495C69.4134 108.374 70.2433 112.455 70.4285 116.59L72.9747 118.059C72.7775 113.356 71.8331 108.713 70.177 104.307" fill="#A7705A"/>
<g style="mix-blend-mode:multiply" opacity="0.7">
<g style="mix-blend-mode:multiply" opacity="0.7">
<path d="M50.1217 102.507C50.0932 101.84 49.9469 101.182 49.6895 100.566C49.4459 100.055 49.1001 99.5679 48.8172 99.0885C48.1885 98.0276 46.994 96.9353 45.6738 96.9353C45.0481 96.9771 44.4626 97.2586 44.0392 97.7212C43.3398 98.507 43.4498 99.7722 43.7091 100.715C44.0627 102.021 44.7858 103.197 45.7916 104.102C46.6247 104.833 47.8034 105.43 48.8565 104.81C49.283 104.617 49.6359 104.292 49.8624 103.882C50.0486 103.449 50.132 102.978 50.106 102.507H50.1217Z" fill="#B7C0EB"/>
</g>
</g>
<path d="M50.1217 102.507C50.0932 101.84 49.9469 101.182 49.6895 100.566C49.4459 100.055 49.1079 99.5679 48.8172 99.0885C48.1964 98.0276 46.994 96.9353 45.6738 96.9353C45.0481 96.9771 44.4626 97.2586 44.0392 97.7212C43.3398 98.507 43.4498 99.7722 43.7091 100.715C44.0627 102.021 44.7858 103.197 45.7916 104.102C46.6247 104.833 47.8034 105.43 48.8565 104.81C49.283 104.617 49.6359 104.292 49.8624 103.882C50.0486 103.449 50.132 102.978 50.106 102.507H50.1217Z" fill="#B7C0EB"/>
<path d="M46.601 97.509C47.1723 97.8486 47.6758 98.2909 48.0863 98.8135L46.5774 99.5994C46.4504 99.5108 46.3028 99.4563 46.1486 99.4412C45.9945 99.426 45.8391 99.4507 45.6973 99.513C45.1943 99.7959 45.1943 100.723 45.6973 101.58C45.9089 101.967 46.2177 102.292 46.5931 102.523C46.7216 102.615 46.8721 102.671 47.0294 102.687C47.1868 102.702 47.3453 102.675 47.489 102.609C47.6365 102.498 47.7495 102.348 47.8149 102.176C47.8803 102.003 47.8953 101.815 47.8584 101.635L49.2179 100.755C49.933 102.523 49.7758 104.22 48.7542 104.802C48.4055 104.96 48.0211 105.023 47.6401 104.984C47.2591 104.945 46.8952 104.807 46.5853 104.582C45.681 104.02 44.9367 103.235 44.4242 102.303C43.2297 100.236 43.2375 98.0041 44.4242 97.3283C44.7706 97.1631 45.1546 97.0929 45.537 97.1246C45.9194 97.1564 46.2866 97.289 46.601 97.509V97.509Z" fill="#F2D5C9"/>
<path d="M48.4087 98.3577C48.3694 98.3577 48.3301 98.2712 48.2829 98.2319L48.2122 98.1533L48.0786 98.0276L47.945 97.9019L47.89 97.8547L47.8271 97.7997L47.6935 97.6897L47.56 97.5875L47.4735 97.5247L47.3399 97.4382L47.2142 97.3596L47.1199 97.3046L46.9941 97.2418H46.9391L46.8213 97.1946L46.7034 97.1475H46.5776H46.4519H46.4047H46.3262H46.1926H45.7525H45.6346H45.5796C45.5072 97.1584 45.436 97.1768 45.3674 97.2025V97.2025C45.2828 97.2311 45.2012 97.2679 45.1238 97.3125L44.6602 97.5875C44.7331 97.5399 44.8125 97.5028 44.8959 97.4775C44.9721 97.4483 45.0511 97.4272 45.1317 97.4146V97.4146H45.336H45.5796L45.8311 97.4618L46.1061 97.5482L46.3812 97.6661L46.6641 97.8154C46.7925 97.8883 46.9159 97.9697 47.0334 98.059V98.059C47.1513 98.1455 47.2692 98.2477 47.3871 98.3498C47.5049 98.452 47.615 98.562 47.7328 98.6799C47.8507 98.7977 47.9607 98.9313 48.0708 99.0649L48.558 98.8056L48.503 98.7506L48.4087 98.3577Z" fill="#A7705A"/>
<path d="M50.114 102.617C50.114 102.617 50.114 102.562 50.114 102.531C50.1177 102.481 50.1177 102.431 50.114 102.381V102.334C50.1179 102.303 50.1179 102.271 50.114 102.24C50.1182 102.19 50.1182 102.14 50.114 102.09V102.028C50.114 102.028 50.114 101.965 50.114 101.941V101.784C50.1103 101.753 50.1103 101.721 50.114 101.69C50.114 101.635 50.114 101.588 50.0748 101.533V101.43L50.0276 101.265V101.21C50.032 101.176 50.032 101.142 50.0276 101.108L49.9804 100.951V100.912C49.9772 100.883 49.9772 100.854 49.9804 100.825L49.9254 100.676V100.605L49.4539 100.872C49.4988 100.975 49.5381 101.08 49.5718 101.187V101.187C49.5718 101.281 49.6347 101.383 49.6583 101.485C49.6583 101.588 49.7133 101.682 49.7368 101.776V101.815C49.7368 101.91 49.7368 102.004 49.7918 102.09V102.13C49.7918 102.224 49.7918 102.318 49.7918 102.413C49.7918 102.499 49.7918 102.593 49.7918 102.68V102.994V103.246C49.7918 103.324 49.7918 103.403 49.7918 103.474V103.521C49.7593 103.665 49.7173 103.807 49.6661 103.945C49.6632 103.969 49.6632 103.992 49.6661 104.016L49.6111 104.134L49.5482 104.236L49.4854 104.338L49.4382 104.409L49.3596 104.503C49.3373 104.52 49.3186 104.542 49.3046 104.566L49.2025 104.652L49.1474 104.7L48.9824 104.81L49.4461 104.542L49.619 104.424H49.6661L49.7761 104.33L49.8233 104.267L49.9097 104.173L49.9569 104.102V104.055C49.9595 104.037 49.9595 104.018 49.9569 104C49.9798 103.969 49.9983 103.934 50.0119 103.898V103.851C50.0089 103.827 50.0089 103.804 50.0119 103.78V103.709C50.0119 103.709 50.0119 103.709 50.0119 103.67C50.0337 103.616 50.0521 103.561 50.0669 103.505C50.0846 103.454 50.0977 103.401 50.1062 103.348C50.1106 103.327 50.1106 103.306 50.1062 103.285V103.285C50.1099 103.269 50.1099 103.253 50.1062 103.238V103.089V103.018C50.1062 103.018 50.1062 102.971 50.1062 102.947C50.1103 102.897 50.1103 102.847 50.1062 102.798V102.743L50.114 102.617Z" fill="#A7705A"/>
<path d="M48.086 101.619V101.446C48.0905 101.425 48.0905 101.404 48.086 101.383C48.0898 101.36 48.0898 101.336 48.086 101.313C48.086 101.313 48.086 101.313 48.086 101.25C48.0823 101.234 48.0823 101.218 48.086 101.203V101.203C48.086 101.203 48.086 101.155 48.086 101.132C48.086 101.108 48.086 101.085 48.086 101.061V100.998C48.0894 100.983 48.0894 100.967 48.086 100.951V100.88V100.825V100.762V100.7V100.66V100.59L48.0467 100.519C48.0313 100.486 48.0129 100.454 47.9917 100.425C47.9597 100.364 47.9229 100.306 47.8817 100.252L47.811 100.149L47.7638 100.094L47.7166 100.039L47.6695 99.9766L47.6223 99.9216L47.5673 99.8744L47.5123 99.8194L47.4573 99.7722L47.418 99.7329L47.363 99.6858C47.3449 99.6894 47.3262 99.6894 47.308 99.6858H47.253H47.198L46.7422 99.9687C46.8243 100.016 46.9031 100.068 46.9779 100.126V100.126C47.0595 100.19 47.1358 100.261 47.2058 100.338V100.338C47.2766 100.417 47.3552 100.503 47.4259 100.597C47.4977 100.695 47.5633 100.798 47.6223 100.904C47.6774 100.99 47.7166 101.085 47.7638 101.171C47.8047 101.26 47.8389 101.352 47.866 101.446V101.446L47.9367 101.705C47.9367 101.792 47.9367 101.878 47.976 101.965C47.9838 102.067 47.9838 102.169 47.976 102.271V102.405C47.976 102.405 47.976 102.483 47.9367 102.523L47.8895 102.617V102.656L47.8188 102.743L47.7009 102.829L48.1724 102.554L48.2825 102.468C48.3076 102.445 48.3288 102.419 48.3453 102.389C48.3453 102.389 48.3453 102.389 48.3453 102.389C48.3497 102.363 48.3497 102.337 48.3453 102.311V102.311C48.3419 102.292 48.3419 102.274 48.3453 102.256C48.3453 102.256 48.3453 102.208 48.3453 102.193C48.3443 102.174 48.3443 102.156 48.3453 102.138C48.3453 102.138 48.3453 102.091 48.3453 102.075V101.925L48.086 101.619Z" fill="#A7705A"/>
<path d="M45.8706 99.5364C46.0407 99.5599 46.2041 99.6188 46.35 99.7093L46.8293 99.4421H46.7743H46.7272H46.6722H46.625H46.57H46.5229H46.4678H46.1064H46.0199L45.9256 99.4893L45.4541 99.7644C45.5132 99.7259 45.5805 99.7017 45.6506 99.6936V99.6936C45.712 99.6263 45.787 99.5727 45.8706 99.5364V99.5364Z" fill="#A7705A"/>
<path d="M60.3695 93.3203H60.3223H59.9451L48.6995 98.9156L46.9863 99.7879L46.4834 100.071L48.8881 99.1121L48.7231 98.9392L59.4736 93.5954H59.56H59.6465H59.7408H59.8194C59.8853 93.6259 59.9382 93.6788 59.9687 93.7447C59.9983 93.7837 60.0172 93.8297 60.0237 93.8783V93.8783C60.0317 93.9251 60.0317 93.9729 60.0237 94.0197V94.0197C60.015 94.064 59.9991 94.1064 59.9765 94.1455C59.9485 94.1828 59.9139 94.2148 59.8744 94.2398L47.1514 102.02L47.8665 101.595L48.3302 101.328L49.6975 100.448L60.228 93.6425C60.2654 93.6145 60.2973 93.5798 60.3223 93.5404V93.4461L60.3695 93.3203Z" fill="#A7705A"/>
<path d="M59.8433 93.4067C59.8128 93.3408 59.7598 93.2879 59.6939 93.2574C59.6409 93.2285 59.5815 93.2134 59.5211 93.2134C59.4607 93.2134 59.4012 93.2285 59.3482 93.2574L47.859 98.947L46.358 99.7328C46.2301 99.6428 46.081 99.5875 45.9254 99.5724C45.7697 99.5572 45.6128 99.5827 45.47 99.6464C44.9749 99.9293 44.967 100.849 45.47 101.705C45.6816 102.092 45.9904 102.417 46.3658 102.648C46.4935 102.742 46.6437 102.8 46.8011 102.816C46.9584 102.833 47.1174 102.807 47.2617 102.743C47.4092 102.632 47.5222 102.481 47.5876 102.309C47.653 102.136 47.6681 101.949 47.6311 101.768L48.9985 100.888L59.7254 93.9097C59.8053 93.8566 59.862 93.775 59.8839 93.6815C59.9058 93.5881 59.8913 93.4898 59.8433 93.4067V93.4067Z" fill="#F2D5C9"/>
<path d="M78.7781 77.3351L85.7892 72.4731L84.8206 71.0763L80.698 73.9352L81.3965 70.3379C81.7781 68.4265 81.7622 66.8108 80.8876 65.5496C79.7027 63.8409 77.7099 63.5158 75.7029 64.9076C73.6551 66.3276 73.2267 68.4322 74.5718 70.6323L76.2262 69.485C75.4391 68.0025 75.6638 67.0233 76.6267 66.3556C77.5624 65.7067 78.4727 65.9189 79.1028 66.8275C79.7423 67.7497 79.7787 68.9896 79.5337 70.6055L78.5523 77.0096L78.7781 77.3351Z" fill="#006C77"/>
<path d="M90.2464 67.4542C88.7953 68.4605 87.1834 67.9315 85.6599 65.7346L85.3213 65.2464C83.8261 63.0902 83.8174 61.369 85.282 60.3534C86.7331 59.3471 88.3848 60.0493 89.8143 62.1106L90.1434 62.5853C91.6669 64.7822 91.7381 66.4198 90.2464 67.4542ZM91.2025 68.9199C93.7385 67.1613 93.969 64.2502 91.9471 61.3345L91.6085 60.8463C89.5866 57.9306 86.745 57.2502 84.2904 58.9524C81.8494 60.6452 81.4728 63.5773 83.5135 66.5201L83.8521 67.0083C85.874 69.924 88.7344 70.6315 91.2025 68.9199Z" fill="#006C77"/>
<path d="M100.008 62.8138C102.232 61.2716 102.871 59.1815 101.63 57.3914C100.736 56.1031 99.4355 55.8202 98.1312 56.3431C98.8224 55.3416 98.999 54.2351 98.2373 53.1366C97.2404 51.6992 95.2518 51.3511 93.2312 52.7523C91.1563 54.1911 90.7885 56.3541 91.8597 58.1015L93.46 56.9918C92.8913 55.9401 93.1232 54.8555 94.1539 54.1408C95.1574 53.4449 96.0636 53.68 96.609 54.4666C97.2391 55.3752 97.0947 56.2385 95.9827 57.0096L95.2911 57.4893L96.1845 58.7776L96.9303 58.2603C98.1102 57.4422 99.0465 57.5761 99.78 58.6339C100.448 59.5967 100.288 60.6113 99.0266 61.4859C97.7247 62.3887 96.6285 62.0243 95.8283 61.073L94.1874 62.2109C95.5571 64.0124 97.7023 64.4126 100.008 62.8138Z" fill="#006C77"/>
<path d="M108.138 55.0468C106.687 56.0531 105.075 55.5241 103.552 53.3272L103.213 52.839C101.718 50.6828 101.709 48.9617 103.174 47.946C104.625 46.9397 106.277 47.6419 107.706 49.7032L108.035 50.1779C109.559 52.3748 109.63 54.0124 108.138 55.0468ZM109.094 56.5126C111.63 54.754 111.861 51.8428 109.839 48.9271L109.5 48.4389C107.478 45.5232 104.637 44.8429 102.182 46.545C99.7412 48.2378 99.3646 51.17 101.405 54.1128L101.744 54.601C103.766 57.5166 106.626 58.2241 109.094 56.5126Z" fill="#006C77"/>
</g>
<defs>
<linearGradient id="paint0_linear_1385_18897" x1="21.9882" y1="61.8311" x2="49.4145" y2="61.8311" gradientUnits="userSpaceOnUse">
<stop stop-color="#FE825E"/>
<stop offset="1" stop-color="#EFBE3A"/>
</linearGradient>
<linearGradient id="paint1_linear_1385_18897" x1="18.2314" y1="72.0863" x2="53.1548" y2="72.0863" gradientUnits="userSpaceOnUse">
<stop stop-color="#FEA35E"/>
<stop offset="1" stop-color="#FCCE5B"/>
</linearGradient>
<linearGradient id="paint2_linear_1385_18897" x1="21.9882" y1="57.8625" x2="49.4145" y2="57.8625" gradientUnits="userSpaceOnUse">
<stop stop-color="#FE825E"/>
<stop offset="1" stop-color="#EFBE3A"/>
</linearGradient>
<linearGradient id="paint3_linear_1385_18897" x1="18.2314" y1="68.1179" x2="53.1548" y2="68.1179" gradientUnits="userSpaceOnUse">
<stop stop-color="#FEA35E"/>
<stop offset="1" stop-color="#FCCE5B"/>
</linearGradient>
<linearGradient id="paint4_linear_1385_18897" x1="21.2029" y1="53.886" x2="48.6292" y2="53.886" gradientUnits="userSpaceOnUse">
<stop stop-color="#FE825E"/>
<stop offset="1" stop-color="#EFBE3A"/>
</linearGradient>
<linearGradient id="paint5_linear_1385_18897" x1="17.4541" y1="64.1414" x2="52.3696" y2="64.1414" gradientUnits="userSpaceOnUse">
<stop stop-color="#FEA35E"/>
<stop offset="1" stop-color="#FCCE5B"/>
</linearGradient>
<linearGradient id="paint6_linear_1385_18897" x1="22.7745" y1="49.9176" x2="50.193" y2="49.9176" gradientUnits="userSpaceOnUse">
<stop stop-color="#FE825E"/>
<stop offset="1" stop-color="#EFBE3A"/>
</linearGradient>
<linearGradient id="paint7_linear_1385_18897" x1="19.0176" y1="60.1729" x2="53.9409" y2="60.1729" gradientUnits="userSpaceOnUse">
<stop stop-color="#FEA35E"/>
<stop offset="1" stop-color="#FCCE5B"/>
</linearGradient>
<linearGradient id="paint8_linear_1385_18897" x1="21.2029" y1="45.9413" x2="48.6292" y2="45.9413" gradientUnits="userSpaceOnUse">
<stop stop-color="#FE825E"/>
<stop offset="1" stop-color="#EFBE3A"/>
</linearGradient>
<linearGradient id="paint9_linear_1385_18897" x1="17.4541" y1="56.2044" x2="52.3696" y2="56.2044" gradientUnits="userSpaceOnUse">
<stop stop-color="#FEA35E"/>
<stop offset="1" stop-color="#FCCE5B"/>
</linearGradient>
<linearGradient id="paint10_linear_1385_18897" x1="21.9882" y1="41.9727" x2="49.4145" y2="41.9727" gradientUnits="userSpaceOnUse">
<stop stop-color="#FE825E"/>
<stop offset="1" stop-color="#EFBE3A"/>
</linearGradient>
<linearGradient id="paint11_linear_1385_18897" x1="18.2314" y1="52.2282" x2="53.1548" y2="52.2282" gradientUnits="userSpaceOnUse">
<stop stop-color="#FEA35E"/>
<stop offset="1" stop-color="#FCCE5B"/>
</linearGradient>
<linearGradient id="paint12_linear_1385_18897" x1="22.7745" y1="38.389" x2="50.193" y2="38.389" gradientUnits="userSpaceOnUse">
<stop stop-color="#FE825E"/>
<stop offset="1" stop-color="#EFBE3A"/>
</linearGradient>
<linearGradient id="paint13_linear_1385_18897" x1="19.0176" y1="48.6522" x2="53.9409" y2="48.6522" gradientUnits="userSpaceOnUse">
<stop stop-color="#FEA35E"/>
<stop offset="1" stop-color="#FCCE5B"/>
</linearGradient>
<linearGradient id="paint14_linear_1385_18897" x1="21.2029" y1="34.0276" x2="48.6292" y2="34.0276" gradientUnits="userSpaceOnUse">
<stop stop-color="#FE825E"/>
<stop offset="1" stop-color="#EFBE3A"/>
</linearGradient>
<linearGradient id="paint15_linear_1385_18897" x1="17.4541" y1="44.283" x2="52.3696" y2="44.283" gradientUnits="userSpaceOnUse">
<stop stop-color="#FEA35E"/>
<stop offset="1" stop-color="#FCCE5B"/>
</linearGradient>
<linearGradient id="paint16_linear_1385_18897" x1="22.7745" y1="30.0591" x2="50.193" y2="30.0591" gradientUnits="userSpaceOnUse">
<stop stop-color="#FE825E"/>
<stop offset="1" stop-color="#EFBE3A"/>
</linearGradient>
<linearGradient id="paint17_linear_1385_18897" x1="19.0176" y1="40.3145" x2="53.9409" y2="40.3145" gradientUnits="userSpaceOnUse">
<stop stop-color="#FEA35E"/>
<stop offset="1" stop-color="#FCCE5B"/>
</linearGradient>
<linearGradient id="paint18_linear_1385_18897" x1="21.5956" y1="26.0827" x2="49.0219" y2="26.0827" gradientUnits="userSpaceOnUse">
<stop stop-color="#FE825E"/>
<stop offset="1" stop-color="#EFBE3A"/>
</linearGradient>
<linearGradient id="paint19_linear_1385_18897" x1="17.8389" y1="36.3459" x2="52.7622" y2="36.3459" gradientUnits="userSpaceOnUse">
<stop stop-color="#FEA35E"/>
<stop offset="1" stop-color="#FCCE5B"/>
</linearGradient>
<linearGradient id="paint20_linear_1385_18897" x1="21.9882" y1="22.1141" x2="49.4145" y2="22.1141" gradientUnits="userSpaceOnUse">
<stop stop-color="#FEA35E"/>
<stop offset="1" stop-color="#FCCE5B"/>
</linearGradient>
<linearGradient id="paint21_linear_1385_18897" x1="18.2315" y1="32.3695" x2="53.1549" y2="32.3695" gradientUnits="userSpaceOnUse">
<stop stop-color="#FEA35E"/>
<stop offset="1" stop-color="#FCCE5B"/>
</linearGradient>
<linearGradient id="paint22_linear_1385_18897" x1="3.75663" y1="77.0767" x2="31.1751" y2="77.0767" gradientUnits="userSpaceOnUse">
<stop stop-color="#FE825E"/>
<stop offset="1" stop-color="#EFBE3A"/>
</linearGradient>
<linearGradient id="paint23_linear_1385_18897" x1="0" y1="87.3323" x2="34.9234" y2="87.3323" gradientUnits="userSpaceOnUse">
<stop stop-color="#FEA35E"/>
<stop offset="1" stop-color="#FCCE5B"/>
</linearGradient>
<linearGradient id="paint24_linear_1385_18897" x1="3.75663" y1="69.1317" x2="31.1751" y2="69.1317" gradientUnits="userSpaceOnUse">
<stop stop-color="#FE825E"/>
<stop offset="1" stop-color="#EFBE3A"/>
</linearGradient>
<linearGradient id="paint25_linear_1385_18897" x1="0" y1="79.3872" x2="34.9234" y2="79.3872" gradientUnits="userSpaceOnUse">
<stop stop-color="#FEA35E"/>
<stop offset="1" stop-color="#FCCE5B"/>
</linearGradient>
<linearGradient id="paint26_linear_1385_18897" x1="4.5349" y1="65.1553" x2="31.9612" y2="65.1553" gradientUnits="userSpaceOnUse">
<stop stop-color="#FE825E"/>
<stop offset="1" stop-color="#EFBE3A"/>
</linearGradient>
<linearGradient id="paint27_linear_1385_18897" x1="0.786133" y1="75.4107" x2="35.7095" y2="75.4107" gradientUnits="userSpaceOnUse">
<stop stop-color="#FEA35E"/>
<stop offset="1" stop-color="#FCCE5B"/>
</linearGradient>
<linearGradient id="paint28_linear_1385_18897" x1="5.32019" y1="61.5797" x2="32.7465" y2="61.5797" gradientUnits="userSpaceOnUse">
<stop stop-color="#FE825E"/>
<stop offset="1" stop-color="#EFBE3A"/>
</linearGradient>
<linearGradient id="paint29_linear_1385_18897" x1="1.56343" y1="71.835" x2="36.4868" y2="71.835" gradientUnits="userSpaceOnUse">
<stop stop-color="#FEA35E"/>
<stop offset="1" stop-color="#FCCE5B"/>
</linearGradient>
<linearGradient id="paint30_linear_1385_18897" x1="3.75663" y1="57.2182" x2="31.1751" y2="57.2182" gradientUnits="userSpaceOnUse">
<stop stop-color="#FE825E"/>
<stop offset="1" stop-color="#EFBE3A"/>
</linearGradient>
<linearGradient id="paint31_linear_1385_18897" x1="0" y1="67.4737" x2="34.9234" y2="67.4737" gradientUnits="userSpaceOnUse">
<stop stop-color="#FEA35E"/>
<stop offset="1" stop-color="#FCCE5B"/>
</linearGradient>
<linearGradient id="paint32_linear_1385_18897" x1="5.32019" y1="53.2418" x2="32.7465" y2="53.2418" gradientUnits="userSpaceOnUse">
<stop stop-color="#FE825E"/>
<stop offset="1" stop-color="#EFBE3A"/>
</linearGradient>
<linearGradient id="paint33_linear_1385_18897" x1="1.56343" y1="63.4973" x2="36.4868" y2="63.4973" gradientUnits="userSpaceOnUse">
<stop stop-color="#FEA35E"/>
<stop offset="1" stop-color="#FCCE5B"/>
</linearGradient>
<linearGradient id="paint34_linear_1385_18897" x1="4.14921" y1="49.2734" x2="31.5677" y2="49.2734" gradientUnits="userSpaceOnUse">
<stop stop-color="#FE825E"/>
<stop offset="1" stop-color="#EFBE3A"/>
</linearGradient>
<linearGradient id="paint35_linear_1385_18897" x1="0.392605" y1="59.5286" x2="35.316" y2="59.5286" gradientUnits="userSpaceOnUse">
<stop stop-color="#FEA35E"/>
<stop offset="1" stop-color="#FCCE5B"/>
</linearGradient>
<linearGradient id="paint36_linear_1385_18897" x1="4.5349" y1="45.2968" x2="31.9612" y2="45.2968" gradientUnits="userSpaceOnUse">
<stop stop-color="#FEA35E"/>
<stop offset="1" stop-color="#FCCE5B"/>
</linearGradient>
<linearGradient id="paint37_linear_1385_18897" x1="0.786133" y1="55.5522" x2="35.7095" y2="55.5522" gradientUnits="userSpaceOnUse">
<stop stop-color="#FEA35E"/>
<stop offset="1" stop-color="#FCCE5B"/>
</linearGradient>
<clipPath id="clip0_1385_18897">
<rect width="140" height="127.269" fill="white"/>
</clipPath>
</defs>
</svg>
