<svg width="140" height="109" viewBox="0 0 140 109" fill="none" xmlns="http://www.w3.org/2000/svg">
<g clip-path="url(#clip0_1385_18703)">
<path d="M82.1124 98.2755C114.083 98.2755 140 85.5103 140 69.7636C140 54.0169 114.083 41.2517 82.1124 41.2517C50.1418 41.2517 24.2246 54.0169 24.2246 69.7636C24.2246 85.5103 50.1418 98.2755 82.1124 98.2755Z" fill="#E8E4E3"/>
<path d="M25.9851 108.423C40.3363 108.423 51.9702 102.694 51.9702 95.6265C51.9702 88.559 40.3363 82.8296 25.9851 82.8296C11.6339 82.8296 0 88.559 0 95.6265C0 102.694 11.6339 108.423 25.9851 108.423Z" fill="#E8E4E3"/>
<path d="M62.6804 64.9792V77.4338C50.2991 71.7281 43.7295 62.6806 43.7295 53.5434V41.0481C43.7295 50.1853 50.2991 59.2002 62.6804 64.9792Z" fill="#006C77"/>
<path d="M89.6601 11.5334V41.0723L62.6806 64.979C42.1485 55.4261 37.5921 36.9154 52.5083 23.7109C61.4661 15.7882 74.4668 11.5334 89.6601 11.5334Z" fill="#59A2A2"/>
<path d="M89.6928 41.0723V53.5676L62.6807 77.4661V64.9789L89.6928 41.0723Z" fill="#417777"/>
<path d="M89.6602 0C99.8162 0 108.464 1.8095 116.68 5.64043L89.6602 29.547V0Z" fill="#006C77"/>
<path d="M116.713 5.64038V18.1276L89.6924 42.0342V29.547L116.713 5.64038Z" fill="#004F57"/>
<path d="M135.77 37.217V49.7205C135.77 49.8754 135.77 50.0221 135.77 50.1688C135.77 50.3156 135.77 50.3889 135.77 50.4949C135.77 51.0328 135.705 51.5626 135.631 52.1251C135.631 52.3044 135.583 52.4918 135.558 52.6712C135.534 52.8505 135.509 52.9972 135.477 53.1602C135.444 53.3232 135.419 53.4455 135.395 53.5841C135.371 53.7226 135.338 53.8449 135.314 53.9672C135.087 54.9613 134.792 55.939 134.433 56.8933L134.335 57.1297L134.238 57.3742L134.001 57.9285C133.83 58.3279 133.634 58.7436 133.431 59.1348V46.615C133.634 46.2156 133.83 45.7999 134.001 45.4087L134.238 44.8544L134.335 44.6099C134.738 43.5899 135.062 42.5409 135.305 41.4718C135.305 41.3333 135.362 41.1947 135.395 41.0561C135.395 40.9094 135.452 40.7708 135.477 40.6323C135.501 40.4937 135.534 40.3062 135.558 40.1432C135.583 39.9802 135.615 39.7764 135.631 39.5971C135.705 39.0591 135.746 38.5212 135.77 37.9669C135.766 37.9045 135.766 37.8419 135.77 37.7795V37.6409C135.762 37.4942 135.77 37.3719 135.77 37.217Z" fill="#B5A097"/>
<path d="M116.721 13.5876C133.146 21.2577 139.691 34.2013 133.414 46.6151L89.7012 37.4943L116.721 13.5876Z" fill="#F2D5C9"/>
<path d="M133.414 46.6151V59.1023L89.7012 49.9733V37.4861L133.414 46.6151Z" fill="#796B65"/>
<path d="M108.717 77.5967L108.154 77.7515L108.717 77.5967Z" fill="#93624F"/>
<path d="M73.8799 78.4443L74.5972 78.6074L73.8799 78.4443Z" fill="#7D5343"/>
<path d="M67.7588 76.6838L68.4924 76.9365C68.2397 76.855 67.9952 76.7735 67.7588 76.6838Z" fill="#785041"/>
<path d="M73.88 78.4444L73.2197 78.2896L73.88 78.4444Z" fill="#785041"/>
<path d="M89.6602 46.2156L133.373 55.3446C127.097 67.8318 109.076 75.8034 89.7009 75.8034C84.9277 75.8055 80.167 75.3166 75.4939 74.3444C71.0662 73.4546 66.7634 72.0285 62.6807 70.0977L89.6602 46.2156Z" fill="#DF9578"/>
<path d="M133.406 55.3447V67.8319L133.104 68.4106C133.047 68.5247 132.982 68.647 132.917 68.753C132.851 68.8589 132.762 69.0383 132.672 69.1768C132.582 69.3154 132.485 69.5029 132.379 69.6659C131.927 70.3975 131.437 71.1049 130.911 71.7851C130.789 71.9481 130.659 72.1193 130.528 72.2742C130.431 72.4046 130.325 72.5268 130.219 72.6573L129.893 73.0403L129.526 73.456C129.355 73.6517 129.175 73.8473 128.988 74.0348L128.866 74.157C128.758 74.2798 128.643 74.3968 128.523 74.5075C128.425 74.6135 128.328 74.7113 128.222 74.8091C128.116 74.9069 127.904 75.127 127.741 75.2818C126.676 76.2866 125.549 77.2231 124.366 78.0858C124.016 78.3466 123.657 78.5993 123.29 78.8519C122.924 79.1046 122.402 79.4551 121.937 79.7404L121.293 80.1398C120.91 80.3762 120.519 80.6044 120.12 80.8326L119.557 81.1424C118.53 81.6857 117.471 82.2291 116.378 82.7725L115.751 83.0578L115.131 83.3268L114.553 83.5713L113.982 83.7995L112.743 84.2723L111.977 84.5576L110.404 85.0874L109.841 85.2667L108.741 85.6009C108.122 85.7802 107.494 85.9595 106.866 86.1226L106.141 86.3019C105.652 86.4241 105.163 86.5383 104.666 86.6442L104.095 86.7746L103.394 86.9132L102.579 87.0681L101.519 87.2555L100.378 87.443L99.9135 87.5164L98.9354 87.6468L98.3078 87.7283C97.9166 87.7853 97.4927 87.8261 97.1259 87.8669C96.6776 87.9158 96.2293 87.9647 95.781 87.9973H95.6506H95.4468C94.6317 88.0625 93.8166 88.1114 93.0016 88.1521L91.6485 88.201H90.2955H88.4778C87.7361 88.201 86.9943 88.201 86.2526 88.1195L85.193 88.0625H85.0055L83.7992 87.9728L82.5113 87.8505H82.3483L81.3132 87.7283L80.9219 87.6794C80.5633 87.6413 80.2046 87.5924 79.846 87.5327L78.8108 87.3696L77.8327 87.2066H77.6779L76.6916 87.0273L75.632 86.8154C75.0777 86.7013 74.5397 86.579 74.0018 86.4567H73.8469C73.2682 86.3182 72.7058 86.1796 72.1515 86.0329L71.3364 85.8128L70.5213 85.5764L69.7063 85.3401L69.046 85.1281L67.8642 84.7287L67.3751 84.5576L66.8534 84.362C66.3399 84.1745 65.8346 83.9707 65.3211 83.7588L64.8646 83.5713L64.3185 83.3349C64.0821 83.2371 63.8376 83.1312 63.6012 83.0171C63.3648 82.9029 63.0551 82.7725 62.7861 82.6503V70.0979C63.21 70.2935 63.6012 70.4891 64.0577 70.6684L64.6934 70.9456L65.3211 71.2064C65.7449 71.3857 66.1362 71.5487 66.5845 71.7118L67.2202 71.9481L67.8642 72.1764C68.1005 72.266 68.3451 72.3475 68.5977 72.429L69.2987 72.6573C69.6981 72.7877 70.1138 72.9099 70.505 73.024L71.1816 73.2197L71.5973 73.3338L72.4124 73.5457L73.3579 73.7821L74.0181 73.9369L74.7354 74.1L75.632 74.2956L76.6916 74.5075L77.6779 74.6868H77.8327L78.8108 74.8499L79.846 75.0129C80.2046 75.0672 80.5633 75.1161 80.9219 75.1596L81.3132 75.2085L82.3483 75.3308H82.5113L83.4405 75.4204H83.5873C83.7829 75.4204 83.9785 75.4367 84.1741 75.4693L84.9403 75.5264H85.1196L86.2526 75.5916H86.8639H87.679H88.4126H91.5833C91.7952 75.5916 91.999 75.5916 92.2109 75.5916H92.6185H93.3847C93.9797 75.5916 94.5747 75.5264 95.1697 75.4775H95.6914H96.0663L96.9466 75.396L97.5416 75.3308L98.6664 75.2003L99.9461 75.021C100.419 74.9558 100.892 74.8825 101.356 74.8009H101.552L102.139 74.695L102.954 74.5401L103.769 74.3689C104.339 74.2548 104.894 74.1244 105.448 73.994L106.263 73.7902C106.883 73.6435 107.486 73.4805 108.089 73.3012L108.651 73.1463L109.466 72.9099L109.792 72.8121L110.355 72.6328L111.17 72.372L111.757 72.1682L112.499 71.8992C113.727 71.4482 114.922 70.9619 116.085 70.4402L116.778 70.1223C117.723 69.6822 118.644 69.2176 119.533 68.7285L120.095 68.4106L121.269 67.726L121.913 67.3266C122.377 67.0331 122.826 66.7397 123.266 66.43C123.706 66.1202 123.991 65.9328 124.342 65.6719C125.525 64.8065 126.652 63.8673 127.716 62.8599L128.197 62.3953L128.499 62.0937L128.841 61.7432L128.963 61.6128C129.151 61.4253 129.33 61.2297 129.501 61.0341L129.868 60.6184L130.194 60.2271L130.504 59.8522L130.887 59.3631C131.417 58.6703 131.906 57.9693 132.354 57.2439C132.46 57.0809 132.558 56.9179 132.648 56.7467C132.737 56.5755 132.811 56.4696 132.892 56.331C132.974 56.1924 133.023 56.1028 133.08 55.9886L133.406 55.3447Z" fill="#A7705A"/>
<path d="M33.0429 71.7279C31.2765 72.6249 29.8973 74.1345 29.1631 75.9745C29.1631 74.76 29.1631 73.5292 29.1631 72.3311C29.8993 70.4897 31.2816 68.9799 33.0511 68.0844C38.5855 64.8241 47.5923 64.8241 53.1675 68.0844C55.9551 69.7146 57.3489 71.8013 57.3652 73.9042C57.3652 75.1187 57.3652 76.3495 57.3652 77.5476C57.3652 75.4447 55.947 73.3336 53.1675 71.7279C47.5923 68.5246 38.5855 68.5246 33.0429 71.7279Z" fill="#FFCE55"/>
<path d="M29.1638 75.9909C29.0007 76.4883 28.9155 77.0079 28.9111 77.5314V73.8798C28.9188 73.3593 29.0039 72.8428 29.1638 72.3474V75.8034C29.1672 75.8658 29.1672 75.9284 29.1638 75.9909V75.9909Z" fill="#FFCE55"/>
<path d="M57.3738 73.9611V77.6046C57.3738 79.6994 55.9881 81.7942 53.2331 83.3917C47.6987 86.6521 38.6919 86.6521 33.1167 83.3917C30.3128 81.7616 28.9108 79.6505 28.919 77.5312V73.8796C28.919 76.007 30.3209 78.1344 33.1248 79.7483C38.6919 83.0087 47.6987 83.0087 53.2413 79.7483C55.9881 78.1507 57.3656 76.0559 57.3738 73.9611Z" fill="#F3C541"/>
<path d="M57.3652 77.6046C57.3652 76.3902 57.3652 75.1594 57.3652 73.9612C57.3734 75.0534 57.3652 76.5124 57.3652 77.6046Z" fill="#FFCE55"/>
<path d="M53.1758 68.1009C58.7429 71.3123 58.7755 76.5289 53.2411 79.7485C47.7066 82.9681 38.6917 83.0089 33.1246 79.7485C27.5575 76.4882 27.5168 71.3123 33.0594 68.1009C38.602 64.8894 47.6006 64.8813 53.1758 68.1009Z" fill="#F3C541"/>
<path d="M33.0602 70.0976C38.5946 66.8373 47.6014 66.8373 53.1766 70.0976C55.5241 71.4507 56.8853 73.1624 57.252 74.9311C57.7737 72.4859 56.437 69.9346 53.1766 68.0681C47.6014 64.8077 38.5946 64.8077 33.0602 68.0681C29.8568 69.9265 28.5201 72.4533 29.0336 74.8822C29.4085 73.1624 30.7453 71.4751 33.0602 70.0976Z" fill="url(#paint0_linear_1385_18703)"/>
<path d="M61.2536 73.9694V77.621C61.2536 80.2864 59.493 82.9517 55.9881 84.9569C48.9457 89.0323 37.4774 89.0323 30.3861 84.9569C26.816 82.8947 25.0309 80.1886 25.0391 77.4906V73.8472C25.0391 76.5451 26.8078 79.2512 30.3779 81.3134C37.4774 85.3889 48.9375 85.3889 55.9799 81.3134C59.5011 79.3001 61.2454 76.6185 61.2536 73.9694Z" fill="url(#paint1_linear_1385_18703)"/>
<path d="M55.9148 66.5113C63.0061 70.5868 63.0387 77.2461 55.9882 81.3378C48.9376 85.4296 37.4856 85.4133 30.3861 81.3378C23.2867 77.2624 23.2541 70.6031 30.3046 66.5113C37.3552 62.4196 48.8154 62.4114 55.9148 66.5113ZM33.0922 79.7484C38.6593 83.0088 47.6661 83.0088 53.2087 79.7484C58.7513 76.488 58.7106 71.3122 53.1435 68.1008C47.5764 64.8893 38.5615 64.8404 33.027 68.1008C27.4926 71.3611 27.517 76.5288 33.0922 79.7484" fill="#FFCE55"/>
<path d="M33.0429 67.6526C31.2751 68.5516 29.8957 70.0644 29.1631 71.9074C29.1631 70.6929 29.1631 69.4621 29.1631 68.264C29.8977 66.4195 31.2802 64.9066 33.0511 64.0092C38.5855 60.7896 47.5923 60.7896 53.1675 64.0092C55.9551 65.6394 57.3489 67.726 57.3652 69.8371C57.3652 71.0516 57.3652 72.2824 57.3652 73.4805C57.3652 71.3695 55.947 69.2665 53.1675 67.6526C47.5923 64.3923 38.5855 64.3923 33.0429 67.6526Z" fill="#FFCE55"/>
<path d="M29.1638 71.8747C29.0001 72.3691 28.9148 72.8862 28.9111 73.407V69.7636C28.9188 69.2431 29.004 68.7266 29.1638 68.2312V71.6627C29.1679 71.7333 29.1679 71.8041 29.1638 71.8747V71.8747Z" fill="#FFCE55"/>
<path d="M57.3738 69.8452V73.4886C57.3738 75.5834 55.9881 77.6782 53.2331 79.2758C47.6987 82.4954 38.6919 82.4954 33.1167 79.2758C30.3128 77.6456 28.9108 75.5345 28.919 73.4071V69.7637C28.919 71.8829 30.3209 74.0103 33.1248 75.6323C38.6919 78.8519 47.6987 78.8519 53.2413 75.6323C55.9881 74.0347 57.3656 71.94 57.3738 69.8452Z" fill="#F3C541"/>
<path d="M57.3652 73.4887C57.3652 72.2742 57.3652 71.0434 57.3652 69.8452C57.3734 70.913 57.3652 72.3965 57.3652 73.4887Z" fill="#FFCE55"/>
<path d="M53.1758 63.9765C58.7429 67.2368 58.7755 72.4127 53.2411 75.6323C47.7066 78.8519 38.6917 78.8519 33.1246 75.6323C27.5575 72.4127 27.5168 67.1961 33.0594 63.9765C38.602 60.7569 47.6006 60.7569 53.1758 63.9765Z" fill="#F3C541"/>
<path d="M33.0602 66.0224C38.5946 62.762 47.6014 62.762 53.1766 66.0224C55.5241 67.3836 56.8853 69.0953 57.252 70.864C57.7737 68.4188 56.437 65.8675 53.1766 63.9928C47.6014 60.7732 38.5946 60.7732 33.0602 63.9928C29.8568 65.8512 28.5201 68.3862 29.0336 70.807C29.4085 69.0464 30.7453 67.351 33.0602 66.0224Z" fill="url(#paint2_linear_1385_18703)"/>
<path d="M61.2536 69.8534V73.4969C61.2536 76.1622 59.493 78.8276 55.9881 80.8327C48.9457 84.9081 37.4774 84.9081 30.3861 80.8327C26.816 78.7705 25.0309 76.0644 25.0391 73.3665V69.7148C25.0391 72.4209 26.8078 75.127 30.3779 77.1892C37.4774 81.2647 48.9375 81.2647 55.9799 77.1892C59.5011 75.1841 61.2454 72.5432 61.2536 69.8534Z" fill="url(#paint3_linear_1385_18703)"/>
<path d="M55.9148 62.3871C63.0061 66.4625 63.0387 73.1218 55.9882 77.2217C48.9376 81.3216 37.4856 81.2972 30.3861 77.2217C23.2867 73.1463 23.2541 66.487 30.3046 62.3871C37.3552 58.2872 48.8154 58.2953 55.9148 62.3871ZM33.0922 75.6323C38.6593 78.8519 47.6661 78.8519 53.2087 75.6323C58.7513 72.4127 58.7106 67.1961 53.1435 63.9765C47.5764 60.7569 38.5615 60.7569 33.027 63.9765C27.4926 67.1961 27.517 72.4127 33.0922 75.6323" fill="#FFCE55"/>
<path d="M32.2366 63.5038C30.4657 64.4012 29.0832 65.9141 28.3486 67.7585C28.3486 66.5441 28.3486 65.3133 28.3486 64.1151C29.0733 62.2671 30.455 60.7519 32.2285 59.8603C37.7629 56.5999 46.7697 56.5999 52.3449 59.8603C55.1325 61.4905 56.5345 63.5771 56.5426 65.6801C56.5426 66.9027 56.5426 68.1253 56.5426 69.3317C56.5426 67.2206 55.1325 65.1095 52.3449 63.5038C46.7778 60.3168 37.7711 60.3168 32.2366 63.5038Z" fill="#FFCE55"/>
<path d="M28.3484 67.7585C28.1893 68.2513 28.1042 68.765 28.0957 69.2828V65.6393C28.0953 65.1181 28.1807 64.6004 28.3484 64.1069C28.3484 64.7101 28.3484 65.3214 28.3484 65.9246V67.5548C28.3559 67.6225 28.3559 67.6908 28.3484 67.7585Z" fill="#FFCE55"/>
<path d="M56.5593 65.7207V69.3641C56.5593 71.4671 55.1737 73.5537 52.4268 75.1513C46.8842 78.4116 37.8774 78.4116 32.3104 75.1513C29.5064 73.5211 28.1045 71.4019 28.1045 69.2826V65.6392C28.1045 67.7584 29.4983 69.8858 32.3022 71.4997C37.8774 74.76 46.876 74.76 52.4187 71.4997C55.1737 69.9102 56.5512 67.8155 56.5593 65.7207Z" fill="#F3C541"/>
<path d="M56.5508 69.3723C56.5508 68.1578 56.5508 66.927 56.5508 65.7207C56.5589 66.8374 56.5508 68.2719 56.5508 69.3723Z" fill="#FFCE55"/>
<path d="M52.3614 59.8603C57.9366 63.0717 57.961 68.2883 52.4266 71.5079C46.8921 74.7275 37.8854 74.7683 32.3101 71.5079C26.7349 68.2476 26.7105 63.0799 32.2449 59.8603C37.7794 56.6407 46.7861 56.6407 52.3614 59.8603Z" fill="#F3C541"/>
<path d="M32.2447 61.8899C37.7792 58.6295 46.7859 58.6295 52.3612 61.8899C54.7086 63.2429 56.0698 64.9628 56.4366 66.7234C56.9583 64.2781 55.6215 61.735 52.3612 59.8603C46.7859 56.5999 37.7792 56.5999 32.2447 59.8603C29.0414 61.7187 27.7047 64.2455 28.2182 66.6745C28.5931 64.922 29.9299 63.2348 32.2447 61.8899Z" fill="url(#paint4_linear_1385_18703)"/>
<path d="M60.4388 65.7371V69.3805C60.4388 72.0459 58.6782 74.7112 55.1733 76.7163C48.1309 80.7918 36.6707 80.7918 29.5713 76.7163C26.0012 74.6623 24.2243 71.9562 24.2324 69.2501V65.6311C24.2324 68.3291 26.0093 71.0352 29.5794 73.0973C36.6707 77.1728 48.1309 77.1728 55.1814 73.0973C58.6863 71.0678 60.4306 68.4024 60.4388 65.7371Z" fill="url(#paint5_linear_1385_18703)"/>
<path d="M55.0999 58.2708C62.1912 62.3463 62.2238 69.0056 55.1814 73.0974C48.1391 77.1891 36.6707 77.1728 29.5794 73.0974C22.4882 69.0219 22.4474 62.3626 29.4898 58.2708C36.5322 54.1791 48.0005 54.1709 55.0999 58.2708ZM32.2774 71.5079C37.8526 74.7683 46.8512 74.7683 52.3938 71.5079C57.9365 68.2476 57.9039 63.0717 52.3286 59.8603C46.7534 56.6488 37.7467 56.5999 32.2122 59.8603C26.6777 63.1206 26.7022 68.2965 32.2774 71.5079" fill="#FFCE55"/>
<path d="M33.8583 59.3876C32.0892 60.2809 30.7089 61.7918 29.9785 63.6342C29.9785 62.4197 29.9785 61.1889 29.9785 59.9908C30.7111 58.1477 32.0905 56.635 33.8583 55.736C39.401 52.5245 48.4077 52.5245 53.9829 55.736C56.7624 57.3662 58.1644 59.4528 58.1807 61.5639C58.1807 62.7784 58.1807 64.0092 58.1807 65.2073C58.1807 63.1044 56.7706 60.9933 53.9829 59.3794C48.4077 56.168 39.401 56.168 33.8583 59.3876Z" fill="#FFCE55"/>
<path d="M29.9785 63.6342C29.8063 64.1406 29.7209 64.6725 29.7258 65.2073V61.5231C29.7295 61.0022 29.8148 60.4852 29.9785 59.9907C29.9785 60.602 29.9785 61.2052 29.9785 61.8165V63.4467C29.9819 63.5092 29.9819 63.5717 29.9785 63.6342V63.6342Z" fill="#FFCE55"/>
<path d="M58.1889 61.6047V65.2482C58.1889 67.3429 56.8114 69.4377 54.0564 71.0353C48.5219 74.2549 39.5152 74.2549 33.9399 71.0353C31.136 69.4051 29.7341 67.294 29.7422 65.1666V61.5232C29.7422 63.6506 31.136 65.7698 33.9399 67.3918C39.5152 70.6115 48.5219 70.6115 54.0564 67.3918C56.8032 65.7943 58.1807 63.6995 58.1889 61.6047Z" fill="#F3C541"/>
<path d="M58.1729 65.2482C58.1729 64.0337 58.1729 62.8029 58.1729 61.6047C58.181 62.697 58.181 64.156 58.1729 65.2482Z" fill="#FFCE55"/>
<path d="M53.9916 55.7361C59.5587 58.9965 59.5913 64.1723 54.0486 67.3919C48.506 70.6115 39.5074 70.6115 33.9322 67.3919C28.357 64.1723 28.3325 58.9557 33.867 55.7361C39.4015 52.5165 48.4164 52.5247 53.9916 55.7361Z" fill="#F3C541"/>
<path d="M33.8669 57.7737C39.4095 54.5541 48.4163 54.5541 53.9915 57.7737C56.3389 59.1268 57.7001 60.8385 58.0669 62.6072C58.5886 60.1619 57.2518 57.6107 53.9915 55.736C48.4163 52.5245 39.4095 52.5245 33.8669 55.736C30.6636 57.6025 29.335 60.1293 29.8485 62.5502C30.2234 60.8059 31.5602 59.1105 33.8669 57.7737Z" fill="url(#paint6_linear_1385_18703)"/>
<path d="M62.069 61.6127V65.2562C62.069 67.9297 60.3084 70.5868 56.8035 72.592C49.753 76.6674 38.2928 76.6674 31.2015 72.592C27.6314 70.5298 25.8464 67.8237 25.8545 65.1257V61.5149C25.8545 64.2128 27.6314 66.9189 31.2015 68.9811C38.2928 73.0566 49.7611 73.0566 56.8035 68.9811C60.3166 66.9434 62.0609 64.2862 62.069 61.6127Z" fill="url(#paint7_linear_1385_18703)"/>
<path d="M56.7219 54.1466C63.8132 58.222 63.854 64.8813 56.8035 68.9812C49.7529 73.0811 38.2927 73.0567 31.2015 68.9812C24.1102 64.9058 24.0694 58.2465 31.12 54.1466C38.1705 50.0467 49.6307 50.0548 56.7219 54.1466ZM33.8994 67.3918C39.4746 70.6114 48.4814 70.6114 54.0158 67.3918C59.5503 64.1722 59.5259 58.9556 53.9588 55.736C48.3917 52.5164 39.3768 52.5245 33.8342 55.736C28.2916 58.9475 28.3323 64.1722 33.8994 67.3918" fill="#FFCE55"/>
<path d="M32.2366 55.2632C30.4686 56.1566 29.0865 57.6633 28.3486 59.5017C28.3486 58.2872 28.3486 57.0564 28.3486 55.8582C29.076 54.0119 30.4569 52.4975 32.2285 51.6034C37.7629 48.3838 46.7697 48.3838 52.3449 51.6034C55.1325 53.2336 56.5345 55.3202 56.5426 57.4313C56.5426 58.6458 56.5426 59.8766 56.5426 61.0748C56.5426 58.9637 55.1325 56.8526 52.3449 55.2469C46.7778 52.0436 37.7711 52.0436 32.2366 55.2632Z" fill="#FFCE55"/>
<path d="M28.3484 59.5016C28.1885 59.997 28.1034 60.5135 28.0957 61.034V57.3905C28.0953 56.8693 28.1807 56.3516 28.3484 55.8582C28.3484 56.4613 28.3484 57.0726 28.3484 57.6758V59.306C28.3553 59.371 28.3553 59.4366 28.3484 59.5016V59.5016Z" fill="#FFCE55"/>
<path d="M56.5587 57.4885V61.1319C56.5587 63.2267 55.173 65.3134 52.4262 66.9191C46.8754 70.098 37.8686 70.098 32.3016 66.9191C29.4977 65.2889 28.0957 63.1697 28.0957 61.0504V57.407C28.0957 59.5262 29.4895 61.6536 32.2934 63.2756C37.8686 66.4871 46.8672 66.4871 52.4099 63.2756C55.173 61.6699 56.5505 59.5833 56.5587 57.4885Z" fill="#F3C541"/>
<path d="M56.5508 61.132C56.5508 59.9175 56.5508 58.6867 56.5508 57.4885C56.5589 58.5807 56.5508 60.0398 56.5508 61.132Z" fill="#FFCE55"/>
<path d="M52.3614 51.6197C57.9366 54.8801 57.961 60.0559 52.4266 63.2674C46.8921 66.4788 37.8854 66.487 32.3101 63.2674C26.7349 60.0478 26.7105 54.8312 32.2449 51.6116C37.7794 48.392 46.7861 48.4001 52.3614 51.6197Z" fill="#F3C541"/>
<path d="M32.2447 53.6494C37.7792 50.4297 46.7859 50.4297 52.3612 53.6494C54.7086 55.0106 56.0698 56.7223 56.4366 58.491C56.9583 56.0457 55.6215 53.4945 52.3612 51.6198C46.7859 48.4002 37.7792 48.4002 32.2447 51.6198C29.0414 53.4782 27.7047 56.0131 28.2182 58.4339C28.5931 56.6896 29.9299 54.9943 32.2447 53.6494Z" fill="url(#paint8_linear_1385_18703)"/>
<path d="M60.4388 57.4966V61.1319C60.4388 63.7972 58.6782 66.4626 55.1733 68.4677C48.1309 72.5432 36.6707 72.5432 29.5713 68.4677C26.0012 66.4055 24.2243 63.6994 24.2324 60.9933V57.3906C24.2324 60.0967 26.0093 62.8028 29.5794 64.865C36.6707 68.9405 48.1309 68.9405 55.1814 64.865C58.6863 62.8273 60.4306 60.1619 60.4388 57.4966Z" fill="url(#paint9_linear_1385_18703)"/>
<path d="M55.0999 50.0304C62.1912 54.1058 62.2238 60.7651 55.1814 64.865C48.1391 68.9649 36.6707 68.9405 29.5794 64.865C22.4882 60.7896 22.4474 54.1221 29.4898 50.0304C36.5322 45.9386 48.0005 45.9305 55.0999 50.0304ZM32.2774 63.2756C37.8526 66.487 46.8512 66.487 52.3938 63.2756C57.9365 60.0641 57.9039 54.8476 52.3286 51.6279C46.7534 48.4083 37.7467 48.4083 32.2122 51.6279C26.6777 54.8476 26.7022 60.0641 32.2774 63.2837" fill="#FFCE55"/>
<path d="M33.0439 51.1469C31.2716 52.0519 29.8916 53.574 29.1641 55.4262C29.1641 54.2117 29.1641 52.9809 29.1641 51.7827C29.9003 49.9413 31.2826 48.4315 33.052 47.5361C38.5865 44.2757 47.5933 44.2757 53.1685 47.5361C55.9561 49.1663 57.3499 51.2529 57.3662 53.3558C57.3662 54.5703 57.3662 55.8011 57.3662 56.9993C57.3662 54.8964 55.9479 52.7853 53.1685 51.1795C47.5933 47.9273 38.5865 47.9273 33.0439 51.1469Z" fill="#FFCE55"/>
<path d="M29.1638 55.4263C29.0007 55.9237 28.9155 56.4434 28.9111 56.9668V53.2826C28.9188 52.7621 29.0039 52.2457 29.1638 51.7502V55.1899C29.1693 55.2686 29.1693 55.3476 29.1638 55.4263V55.4263Z" fill="#FFCE55"/>
<path d="M57.3741 53.364V57.0074C57.3741 59.1022 55.9885 61.197 53.2335 62.7946C47.6909 66.0223 38.6841 66.0223 33.1089 62.762C30.305 61.1318 28.903 59.0207 28.9112 56.9015V53.2825C28.9112 55.4099 30.3131 57.5372 33.117 59.1511C38.6841 62.4115 47.6909 62.4115 53.2335 59.1511C55.9885 57.5535 57.366 55.4262 57.3741 53.364Z" fill="#F3C541"/>
<path d="M57.3662 57.0075C57.3662 55.793 57.3662 54.5622 57.3662 53.364C57.3744 54.4562 57.3662 55.9153 57.3662 57.0075Z" fill="#FFCE55"/>
<path d="M53.1768 47.5037C58.7439 50.7152 58.7765 55.9317 53.242 59.1513C47.7076 62.371 38.6927 62.4117 33.1256 59.1513C27.5585 55.891 27.5178 50.7152 33.0604 47.5037C38.603 44.2922 47.6016 44.2841 53.1768 47.5037Z" fill="#F3C541"/>
<path d="M33.0602 49.5332C38.5946 46.2728 47.6014 46.2728 53.1766 49.5332C55.5241 50.8862 56.8853 52.5979 57.2521 54.3667C57.7737 51.9214 56.437 49.3783 53.1766 47.5036C47.6014 44.2433 38.5946 44.2433 33.0602 47.5036C29.8568 49.362 28.5201 51.8888 29.0336 54.3178C29.4085 52.5653 30.7453 50.8781 33.0602 49.5332Z" fill="url(#paint10_linear_1385_18703)"/>
<path d="M61.2539 53.3803V57.0563C61.2539 59.7217 59.4933 62.387 55.9884 64.3922C48.9053 68.4676 37.494 68.4676 30.3783 64.3922C26.8082 62.33 25.0231 59.6239 25.0313 56.9259V53.2825C25.0313 55.9804 26.8 58.6865 30.3701 60.7487C37.4696 64.8242 48.9297 64.8242 55.9721 60.7487C59.5015 58.6865 61.2458 56.0456 61.2539 53.3803Z" fill="url(#paint11_linear_1385_18703)"/>
<path d="M55.9148 45.9142C63.0061 49.9896 63.0387 56.6489 55.9882 60.7407C48.9376 64.8324 37.4856 64.8161 30.3861 60.7407C23.2867 56.6652 23.2541 50.0059 30.3046 45.9142C37.3552 41.8224 48.8154 41.8143 55.9148 45.9142ZM33.0922 59.1512C38.6593 62.4116 47.6661 62.4116 53.2087 59.1512C58.7513 55.8909 58.7106 50.715 53.1435 47.5036C47.5764 44.2921 38.5615 44.2432 33.027 47.5036C27.4926 50.7639 27.517 55.9316 33.0922 59.1512" fill="#FFCE55"/>
<path d="M33.8593 47.4302C32.0915 48.3292 30.7121 49.8419 29.9795 51.685C29.9795 50.4705 29.9795 49.2397 29.9795 48.0415C30.7121 46.1985 32.0915 44.6858 33.8593 43.7868C39.4019 40.5672 48.4087 40.5672 53.9839 43.7868C56.7634 45.417 58.1653 47.5036 58.1816 49.6147C58.1816 50.8292 58.1816 52.0599 58.1816 53.2581C58.1816 51.147 56.7715 49.036 53.9839 47.4302C48.4087 44.2106 39.4019 44.2106 33.8593 47.4302Z" fill="#FFCE55"/>
<path d="M29.9792 51.685C29.8115 52.1784 29.7262 52.6961 29.7266 53.2173V49.5739C29.7303 49.053 29.8155 48.536 29.9792 48.0415C29.9792 48.6447 29.9792 49.256 29.9792 49.8592V51.4893C29.9827 51.5545 29.9827 51.6198 29.9792 51.685V51.685Z" fill="#FFCE55"/>
<path d="M58.1889 49.6555V53.2989C58.1889 55.3937 56.8114 57.4885 54.0564 59.0861C48.5219 62.3465 39.5152 62.3465 33.9399 59.0861C31.136 57.4559 29.7341 55.3367 29.7422 53.2174V49.574C29.7422 51.6932 31.136 53.8206 33.9399 55.4426C39.507 58.6867 48.5138 58.6867 54.0482 55.4263C56.8032 53.8369 58.1807 51.7503 58.1889 49.6555Z" fill="#F3C541"/>
<path d="M58.1729 53.299C58.1729 52.0845 58.1729 50.8537 58.1729 49.6555V49.6963C58.181 50.7477 58.181 52.2068 58.1729 53.299Z" fill="#FFCE55"/>
<path d="M53.9916 43.7869C59.5587 47.0473 59.5913 52.2231 54.0486 55.4427C48.506 58.6623 39.5074 58.6868 33.9322 55.4264C28.357 52.166 28.3325 46.9902 33.867 43.7706C39.4015 40.551 48.4164 40.5673 53.9916 43.7869Z" fill="#F3C541"/>
<path d="M33.8673 45.8163C39.4099 42.6049 48.4167 42.6049 53.9919 45.8163C56.3394 47.1775 57.7006 48.8892 58.0673 50.658C58.589 48.2127 57.2523 45.6615 53.9919 43.7868C48.4167 40.5672 39.4099 40.5672 33.8673 43.7868C30.664 45.6452 29.3435 48.1801 29.8489 50.6009C30.2238 48.8566 31.5606 47.1612 33.8673 45.8163Z" fill="url(#paint12_linear_1385_18703)"/>
<path d="M62.069 49.6636V53.307C62.069 55.9724 60.3084 58.6377 56.8035 60.6429C49.753 64.7183 38.2928 64.7183 31.2015 60.6429C27.6314 58.5807 25.8464 55.8746 25.8545 53.1685V49.5576C25.8545 52.2637 27.6314 54.9698 31.2015 57.032C38.2928 61.1075 49.7611 61.1075 56.8035 57.032C60.3166 54.9943 62.0609 52.3289 62.069 49.6636Z" fill="url(#paint13_linear_1385_18703)"/>
<path d="M56.7222 42.1974C63.8135 46.2728 63.8542 52.9321 56.8037 57.032C49.7532 61.1319 38.3093 61.1319 31.2017 57.0565C24.0941 52.981 24.0696 46.3136 31.1202 42.2218C38.1707 38.1301 49.6309 38.0975 56.7222 42.1974ZM33.9322 55.4263C39.5075 58.6867 48.5142 58.6867 54.0487 55.4263C59.5831 52.1659 59.5587 46.9901 53.9916 43.7705C48.4246 40.5509 39.4097 40.5509 33.867 43.7705C28.3244 46.9901 28.3652 52.223 33.9322 55.4263Z" fill="#FFCE55"/>
<path d="M32.2366 42.9064C30.4657 43.8038 29.0832 45.3167 28.3486 47.1611C28.3486 45.9466 28.3486 44.7159 28.3486 43.5177C29.0733 41.6697 30.455 40.1545 32.2285 39.2629C37.7629 36.0025 46.7697 36.0025 52.3449 39.2629C55.1325 40.8931 56.5345 42.9797 56.5426 45.0827C56.5426 46.3053 56.5426 47.5279 56.5426 48.7343C56.5426 46.6232 55.1325 44.5121 52.3449 42.9064C46.7778 39.6867 37.7711 39.6867 32.2366 42.9064Z" fill="#FFCE55"/>
<path d="M28.3484 47.161C28.1885 47.6564 28.1034 48.1729 28.0957 48.6934V45.0499C28.0953 44.5288 28.1807 44.0111 28.3484 43.5176C28.3484 44.1207 28.3484 44.7321 28.3484 45.3352V46.9654C28.3553 47.0304 28.3553 47.096 28.3484 47.161Z" fill="#FFCE55"/>
<path d="M56.5593 45.1233V48.7667C56.5593 50.8697 55.1737 52.9563 52.4268 54.5539C46.8842 57.7735 37.8774 57.7735 32.3104 54.5539C29.5064 52.9237 28.1045 50.8044 28.1045 48.6852V45.0417C28.1045 47.161 29.4983 49.2884 32.3022 50.9023C37.8774 54.1219 46.876 54.1219 52.4187 50.9023C55.1737 49.3128 56.5512 47.218 56.5593 45.1233Z" fill="#F3C541"/>
<path d="M56.5508 48.7749V48.7341C56.5508 47.5196 56.5508 46.2889 56.5508 45.0825C56.5589 46.2236 56.5508 47.6745 56.5508 48.7749Z" fill="#FFCE55"/>
<path d="M52.3614 39.2629C57.9366 42.4743 57.961 47.6909 52.4266 50.9105C46.8921 54.1301 37.8854 54.1301 32.3101 50.9105C26.7349 47.6909 26.7105 42.4825 32.2449 39.2629C37.7794 36.0432 46.7861 36.0432 52.3614 39.2629Z" fill="#F3C541"/>
<path d="M32.2447 41.2925C37.7792 38.0729 46.7859 38.0729 52.3612 41.2925C54.7086 42.6455 56.0698 44.3654 56.4366 46.126C56.9583 43.6807 55.6215 41.1376 52.3612 39.2629C46.7859 36.0025 37.7792 36.0025 32.2447 39.2629C29.0414 41.1213 27.7047 43.6481 28.2182 46.0771C28.5931 44.3246 29.9299 42.6374 32.2447 41.2925Z" fill="url(#paint14_linear_1385_18703)"/>
<path d="M60.4388 45.1397V48.7831C60.4388 51.4485 58.6782 54.1138 55.1733 56.1189C48.1309 60.1944 36.6707 60.1944 29.5713 56.1189C26.0012 54.0649 24.2243 51.3588 24.2324 48.6527V45.0337C24.2324 47.7316 26.0093 50.4378 29.5794 52.4999C36.6707 56.5754 48.1309 56.5754 55.1814 52.4999C58.6863 50.4704 60.4306 47.805 60.4388 45.1397Z" fill="url(#paint15_linear_1385_18703)"/>
<path d="M55.0999 37.6734C62.1912 41.7489 62.2238 48.4082 55.1814 52.4999C48.1391 56.5917 36.6707 56.5754 29.5794 52.4999C22.4882 48.4245 22.4474 41.7652 29.4898 37.6734C36.5322 33.5817 48.0005 33.5735 55.0999 37.6734ZM32.2774 50.9105C37.8526 54.1301 46.8512 54.1301 52.3938 50.9105C57.9365 47.6909 57.9039 42.4743 52.3286 39.2629C46.7534 36.0514 37.7467 36.0025 32.2122 39.2629C26.6777 42.5232 26.7022 47.699 32.2774 50.9105" fill="#FFCE55"/>
<path d="M33.8593 38.7902C32.0902 39.6835 30.7098 41.1944 29.9795 43.0368C29.9795 41.8223 29.9795 40.5915 29.9795 39.3933C30.7121 37.5503 32.0915 36.0376 33.8593 35.1386C39.4019 31.9271 48.4087 31.9271 53.9839 35.1386C56.7634 36.7688 58.1653 38.8554 58.1816 40.9665C58.1816 42.181 58.1816 43.4117 58.1816 44.6099C58.1816 42.507 56.7715 40.3959 53.9839 38.7902C48.4087 35.5706 39.4019 35.5706 33.8593 38.7902Z" fill="#FFCE55"/>
<path d="M29.9792 43.0368C29.8115 43.5302 29.7262 44.048 29.7266 44.5691V40.9257C29.7303 40.4048 29.8155 39.8878 29.9792 39.3933C29.9792 40.0046 29.9792 40.6078 29.9792 41.2191V42.8493C29.9827 42.9117 29.9827 42.9743 29.9792 43.0368V43.0368Z" fill="#FFCE55"/>
<path d="M58.1899 41.0073V44.6507C58.1899 46.7455 56.8124 48.8403 54.0574 50.4379C48.5229 53.6575 39.5161 53.6575 33.9409 50.4379C31.137 48.8077 29.735 46.6966 29.7432 44.5692V40.9258C29.7432 43.0532 31.137 45.1724 33.9409 46.7944C39.5161 50.0548 48.5229 50.0548 54.0574 46.7944C56.8042 45.1969 58.1817 43.1021 58.1899 41.0073Z" fill="#F3C541"/>
<path d="M58.1729 44.6508V44.61C58.1729 43.3955 58.1729 42.1647 58.1729 40.9666V41.0073C58.181 42.0995 58.181 43.5585 58.1729 44.6508Z" fill="#FFCE55"/>
<path d="M53.9916 35.1387C59.5587 38.3991 59.5913 43.5749 54.0486 46.7945C48.506 50.0141 39.5074 50.0549 33.9322 46.7945C28.357 43.5341 28.3325 38.3583 33.867 35.1387C39.4015 31.9191 48.4164 31.9272 53.9916 35.1387Z" fill="#F3C541"/>
<path d="M33.8673 37.1763C39.4099 33.9159 48.4167 33.9159 53.9919 37.1763C56.3393 38.5294 57.7005 40.2411 58.0673 42.0098C58.589 39.5645 57.2522 37.0133 53.9919 35.1386C48.4167 31.9271 39.4099 31.9271 33.8673 35.1386C30.664 37.0051 29.3435 39.5319 29.8489 41.9609C30.2238 40.2084 31.5606 38.5131 33.8673 37.1763Z" fill="url(#paint16_linear_1385_18703)"/>
<path d="M62.0694 41.0153V44.6587C62.0694 47.3322 60.3088 49.9894 56.8039 51.9946C49.7533 56.07 38.2931 56.07 31.2019 51.9946C27.6236 49.965 25.8386 47.2752 25.8467 44.5609V40.9175C25.8467 43.6154 27.6236 46.3215 31.1937 48.3837C38.285 52.4592 49.7533 52.4592 56.7957 48.3837C60.3169 46.346 62.0612 43.6888 62.0694 41.0153Z" fill="url(#paint17_linear_1385_18703)"/>
<path d="M56.7219 33.5492C63.8132 37.6246 63.854 44.2839 56.8035 48.3838C49.7529 52.4837 38.2927 52.4593 31.2015 48.3838C24.1102 44.3084 24.0694 37.6491 31.12 33.5492C38.1705 29.4493 49.6307 29.4574 56.7219 33.5492ZM33.8994 46.7944C39.4746 50.0548 48.4814 50.0548 54.0158 46.7944C59.5503 43.534 59.5259 38.3582 53.9588 35.1386C48.3917 31.919 39.3768 31.9271 33.8342 35.1386C28.2916 38.3501 28.3323 43.5748 33.8994 46.7944" fill="#FFCE55"/>
<path d="M32.6448 34.6659C30.8739 35.5633 29.4914 37.0762 28.7568 38.9207C28.7568 37.7062 28.7568 36.4754 28.7568 35.2772C29.4914 33.4328 30.8739 31.9199 32.6448 31.0224C38.1793 27.7621 47.186 27.7621 52.7613 31.0224C55.5489 32.6526 56.9508 34.7392 56.959 36.8503C56.959 38.0648 56.959 39.2956 56.959 40.4938C56.959 38.3827 55.5489 36.2716 52.7613 34.6659C47.186 31.4463 38.1793 31.4463 32.6448 34.6659Z" fill="#FFCE55"/>
<path d="M28.7567 38.9206C28.6013 39.4163 28.5243 39.9334 28.5285 40.4529V36.8095C28.5294 36.289 28.6119 35.772 28.773 35.2771V38.7086C28.7717 38.7795 28.7662 38.8503 28.7567 38.9206V38.9206Z" fill="#FFCE55"/>
<path d="M56.9665 36.8911V40.5345C56.9665 42.6293 55.5809 44.716 52.834 46.3217C47.2914 49.5331 38.2847 49.5331 32.7176 46.3217C29.9055 44.6915 28.5117 42.5723 28.5117 40.453V36.8096C28.5117 38.9288 29.9055 41.0562 32.7094 42.6782C38.3091 45.8897 47.2751 45.8897 52.834 42.6701C55.5809 41.0725 56.9584 38.9859 56.9665 36.8911Z" fill="#F3C541"/>
<path d="M56.959 40.5346C56.959 39.3201 56.959 38.0893 56.959 36.8911C56.9671 37.9833 56.959 39.4423 56.959 40.5346Z" fill="#FFCE55"/>
<path d="M52.769 31.0225C58.3442 34.2421 58.3686 39.4587 52.8342 42.6701C47.2997 45.8816 38.3092 45.8897 32.7177 42.6783C27.1262 39.4668 27.1099 34.2339 32.6525 31.0225C38.1951 27.811 47.1937 27.8029 52.769 31.0225Z" fill="#F3C541"/>
<path d="M32.6529 33.052C38.1874 29.8324 47.1941 29.8324 52.7694 33.052C55.1168 34.4132 56.478 36.1249 56.8448 37.8936C57.3665 35.4484 56.0297 32.8971 52.7694 31.0224C47.1941 27.7621 38.1874 27.7621 32.6529 31.0224C29.4496 32.8808 28.1129 35.4158 28.6264 37.8366C29.0013 36.0923 30.3381 34.3969 32.6529 33.052Z" fill="url(#paint18_linear_1385_18703)"/>
<path d="M60.8463 36.8993V40.5428C60.8463 43.2081 59.0857 45.8735 55.5809 47.8786C48.5385 51.954 37.0701 51.954 29.9789 47.8786C26.4088 45.8164 24.6237 43.1103 24.6319 40.4042V36.7607C24.6319 39.4668 26.4088 42.1729 29.9789 44.2351C37.0701 48.3106 48.5303 48.3106 55.5809 44.2351C59.0857 42.23 60.8382 39.5647 60.8463 36.8993Z" fill="url(#paint19_linear_1385_18703)"/>
<path d="M55.5077 29.433C62.599 33.5084 62.6316 40.1677 55.5893 44.2676C48.5469 48.3675 37.0785 48.3431 29.9872 44.2676C22.896 40.1922 22.8226 33.5247 29.8976 29.433C36.9726 25.3412 48.4083 25.3331 55.5077 29.433ZM32.6852 42.6782C38.3093 45.8896 47.2753 45.8896 52.8342 42.67C58.3932 39.4504 58.3443 34.2338 52.769 31.0224C47.1938 27.8109 38.1871 27.762 32.6526 31.0224C27.1181 34.2828 27.1426 39.4586 32.7178 42.6782" fill="#FFCE55"/>
<path d="M33.0429 30.5495C31.2765 31.4465 29.8973 32.9561 29.1631 34.7961C29.1631 33.5816 29.1631 32.3508 29.1631 31.1526C29.8997 29.3068 31.2852 27.7937 33.0592 26.8979C38.5937 23.6783 47.6004 23.6783 53.1757 26.8979C55.9633 28.528 57.3571 30.6147 57.3734 32.7176C57.3734 33.9321 57.3734 35.1629 57.3734 36.3611C57.3734 34.2581 55.9551 32.147 53.1757 30.5413C47.5923 27.3299 38.5855 27.3299 33.0429 30.5495Z" fill="#FFCE55"/>
<path d="M29.1638 34.796C29.0007 35.2935 28.9155 35.8131 28.9111 36.3366V32.685C28.9188 32.1645 29.0039 31.648 29.1638 31.1526V34.5923C29.1679 34.6601 29.1679 34.7282 29.1638 34.796V34.796Z" fill="#FFCE55"/>
<path d="M57.3738 32.7666V36.41C57.3738 38.5048 55.9881 40.5996 53.2331 42.1972C47.6987 45.4168 38.6919 45.4168 33.1167 42.1972C30.3128 40.567 28.9108 38.4559 28.919 36.3367V32.6851C28.919 34.8124 30.3209 36.9398 33.1248 38.5537C38.6919 41.8141 47.6987 41.8141 53.2413 38.5537C55.9881 36.9561 57.3656 34.8614 57.3738 32.7666Z" fill="#F3C541"/>
<path d="M57.3652 36.41V36.3693C57.3652 35.1548 57.3652 33.924 57.3652 32.7258V32.7666C57.3734 33.8588 57.3652 35.3178 57.3652 36.41Z" fill="#FFCE55"/>
<path d="M53.1758 26.8979C58.7429 30.1094 58.7755 35.326 53.2411 38.5456C47.7066 41.7652 38.6917 41.8059 33.1246 38.5456C27.5575 35.2852 27.5168 30.1583 33.0594 26.8979C38.602 23.6376 47.6006 23.6865 53.1758 26.8979Z" fill="#FCCE5B"/>
<path d="M33.0602 28.9357C38.5946 25.7161 47.6014 25.7161 53.1766 28.9357C55.5241 30.2888 56.8853 32.0005 57.252 33.7692C57.7737 31.324 56.437 28.7809 53.1766 26.9062C47.6014 23.6866 38.5946 23.6866 33.0602 26.9062C29.8568 28.7646 28.5201 31.2914 29.0336 33.7203C29.4085 31.9679 30.7453 30.2806 33.0602 28.9357Z" fill="url(#paint20_linear_1385_18703)"/>
<path d="M61.2536 32.783V36.4265C61.2536 39.0918 59.493 41.7572 55.9881 43.7623C48.9457 47.8377 37.4774 47.8377 30.3861 43.7623C26.816 41.7001 25.0309 38.994 25.0391 36.296V32.6526C25.0391 35.3505 26.8078 38.0566 30.3779 40.1188C37.4774 44.1943 48.9375 44.1943 55.9799 40.1188C59.5011 38.1055 61.2454 35.4483 61.2536 32.783Z" fill="url(#paint21_linear_1385_18703)"/>
<path d="M55.9148 25.3167C63.0061 29.3921 63.0387 36.0514 55.9882 40.1432C48.9376 44.2349 37.4856 44.2186 30.3861 40.1432C23.2867 36.0677 23.2541 29.4084 30.3046 25.3167C37.3552 21.2249 48.8154 21.1923 55.9148 25.3167ZM33.0922 38.5537C38.6593 41.8141 47.6661 41.8141 53.2087 38.5537C58.7513 35.2934 58.7432 30.1583 53.1761 26.8979C47.609 23.6376 38.5941 23.6783 33.0596 26.8979C27.5252 30.1175 27.5496 35.326 33.1249 38.5456" fill="#FCCE5B"/>
<path d="M14.1337 87.5489C12.3659 88.4479 10.9865 89.9607 10.2539 91.8037C10.2539 90.5892 10.2539 89.3584 10.2539 88.1603C10.9865 86.3172 12.3659 84.8045 14.1337 83.9055C19.6764 80.6451 28.6831 80.6451 34.2583 83.9055C37.0378 85.5357 38.4397 87.6223 38.456 89.7334C38.456 90.9479 38.456 92.1786 38.456 93.3768C38.456 91.2657 37.0459 89.1628 34.2583 87.5489C28.675 84.3293 19.6682 84.3293 14.1337 87.5489Z" fill="#FFCE55"/>
<path d="M10.2537 91.8037C10.086 92.2972 10.0006 92.8149 10.001 93.3361V89.6601C10.0047 89.1392 10.0899 88.6222 10.2537 88.1277C10.2537 88.7309 10.2537 89.3422 10.2537 89.9453V91.5755C10.2584 91.6515 10.2584 91.7277 10.2537 91.8037V91.8037Z" fill="#FFCE55"/>
<path d="M38.4643 89.774V93.4175C38.4643 95.5123 37.0868 97.607 34.3318 99.2046C28.7973 102.465 19.7906 102.465 14.2153 99.2046C11.4114 97.5744 10.0095 95.4552 10.0176 93.336V89.6599C10.0176 91.7791 11.4114 93.9065 14.2153 95.5286C19.7906 98.74 28.7973 98.74 34.3318 95.5286C37.0786 93.9554 38.4561 91.8688 38.4643 89.774Z" fill="#F3C541"/>
<path d="M38.4482 93.4176C38.4482 92.2031 38.4482 90.9724 38.4482 89.7742C38.4564 90.8664 38.4564 92.3254 38.4482 93.4176Z" fill="#FFCE55"/>
<path d="M34.2338 83.9053C39.8008 87.1657 39.8334 92.3415 34.2908 95.5611C28.7482 98.7807 19.7496 98.7726 14.1744 95.5611C8.59917 92.3496 8.57472 87.1249 14.1092 83.9053C19.6436 80.6857 28.6912 80.6938 34.2338 83.9053Z" fill="#EAB642"/>
<path d="M14.1419 85.9351C19.6845 82.7236 28.6912 82.7236 34.2665 85.9351C36.6139 87.2963 37.9751 89.008 38.3419 90.7767C38.8636 88.3314 37.5268 85.7802 34.2665 83.9055C28.6912 80.6451 19.6845 80.6451 14.1419 83.9055C10.9386 85.7639 9.60181 88.2988 10.1235 90.7197C10.4984 88.9754 11.8352 87.28 14.1419 85.9351Z" fill="url(#paint22_linear_1385_18703)"/>
<path d="M42.3851 89.7822V93.4256C42.3851 96.091 40.6245 98.7563 37.1277 100.761C30.0772 104.837 18.617 104.837 11.5257 100.761C7.95564 98.6993 6.17059 95.9932 6.17874 93.2871V89.6599C6.17874 92.366 7.95564 95.0721 11.5257 97.1343C18.617 101.21 30.0854 101.21 37.1277 97.1343C40.5837 95.1129 42.3362 92.4475 42.3851 89.7822Z" fill="url(#paint23_linear_1385_18703)"/>
<path d="M36.9972 82.3242C44.0885 86.3996 44.1293 93.0589 37.0787 97.1588C30.0282 101.259 18.568 101.234 11.4767 97.1588C4.38545 93.0834 4.3447 86.3996 11.4115 82.3242C18.4784 78.2487 29.9059 78.2487 36.9972 82.3242ZM14.1747 95.5694C19.7499 98.7809 28.7567 98.7809 34.2911 95.5694C39.8256 92.3579 39.8011 87.1332 34.2341 83.9136C28.667 80.694 19.6521 80.6532 14.1095 83.9136C8.56687 87.174 8.59947 92.3498 14.1747 95.5694" fill="#FCCE5B"/>
<path d="M14.1337 79.3085C12.3659 80.2075 10.9865 81.7202 10.2539 83.5632C10.2539 82.3487 10.2539 81.118 10.2539 79.9198C10.9865 78.0767 12.3659 76.564 14.1337 75.665C19.6764 72.4046 28.6831 72.4046 34.2583 75.665C37.0378 77.2952 38.4397 79.3818 38.456 81.4929C38.456 82.7074 38.456 83.9382 38.456 85.1363C38.456 83.0253 37.0459 80.9223 34.2583 79.3085C28.675 76.097 19.6682 76.097 14.1337 79.3085Z" fill="#FFCE55"/>
<path d="M10.2537 83.5631C10.086 84.0566 10.0006 84.5743 10.001 85.0955V81.452C10.0047 80.9312 10.0899 80.4141 10.2537 79.9197C10.2537 80.531 10.2537 81.1342 10.2537 81.7455V83.3757C10.2571 83.4381 10.2571 83.5007 10.2537 83.5631Z" fill="#FFCE55"/>
<path d="M38.4643 81.5092V85.1527C38.4643 87.2474 37.0868 89.3422 34.3318 90.9398C28.7973 94.2002 19.7906 94.2002 14.2153 90.9398C11.4114 89.3096 10.0095 87.1985 10.0176 85.0712V81.4521C10.0176 83.5795 11.4114 85.6988 14.2153 87.3208C19.7906 90.5812 28.7973 90.5812 34.3318 87.3208C37.0786 85.7232 38.4561 83.6284 38.4643 81.5092Z" fill="#F3C541"/>
<path d="M38.4473 85.1772C38.4473 83.9627 38.4473 82.7319 38.4473 81.5337C38.4554 82.6259 38.4554 84.0849 38.4473 85.1772Z" fill="#FFCE55"/>
<path d="M34.2338 75.665C39.8008 78.9253 39.8335 84.1011 34.2908 87.3208C28.7482 90.5404 19.7496 90.5811 14.1744 87.3208C8.59917 84.0604 8.57472 78.8846 14.1092 75.665C19.6437 72.4453 28.6912 72.4453 34.2338 75.665Z" fill="#F3C541"/>
<path d="M14.1419 77.7027C19.6845 74.4424 28.6912 74.4424 34.2665 77.7027C36.6139 79.0558 37.9751 80.7675 38.3419 82.5362C38.8636 80.0909 37.5268 77.5397 34.2665 75.665C28.6912 72.4046 19.6845 72.4046 14.1419 75.665C10.9386 77.5315 9.60181 80.0583 10.1235 82.4791C10.4984 80.7348 11.8352 79.0639 14.1419 77.7027Z" fill="url(#paint24_linear_1385_18703)"/>
<path d="M42.3845 81.5091V85.1525C42.3845 87.826 40.6239 90.4832 37.1272 92.4883C30.0766 96.5638 18.6165 96.5638 11.5252 92.4883C7.89802 90.4751 6.11297 87.7853 6.12112 85.0873V81.4438C6.12112 84.1418 7.89802 86.8479 11.4681 88.9101C18.5594 92.9855 30.0277 92.9855 37.0701 88.9101C40.5832 86.8724 42.3356 84.207 42.3845 81.5091Z" fill="url(#paint25_linear_1385_18703)"/>
<path d="M36.9972 74.0755C44.0885 78.151 44.1293 84.8103 37.0787 88.9102C30.0282 93.0101 18.568 92.9857 11.4767 88.9102C4.38545 84.8347 4.3447 78.1754 11.4115 74.0755C18.4784 69.9756 29.9059 69.9838 36.9972 74.0755ZM14.1747 87.3208C19.7499 90.5811 28.7567 90.5811 34.2911 87.3208C39.8256 84.0604 39.8011 78.8846 34.2341 75.665C28.667 72.4454 19.6521 72.4046 14.1095 75.665C8.56687 78.9253 8.59947 84.1012 14.1747 87.3208" fill="#FFCE55"/>
<path d="M14.9485 75.1922C13.1776 76.0897 11.7951 77.6026 11.0605 79.447C11.0605 78.2325 11.0605 77.0017 11.0605 75.8036C11.7879 73.9573 13.1688 72.4429 14.9404 71.5488C20.4748 68.2884 29.4816 68.2884 35.0568 71.5488C37.8444 73.179 39.2464 75.2656 39.2545 77.3767C39.2545 78.5912 39.2545 79.822 39.2545 81.0201C39.2545 78.9091 37.8444 76.798 35.0568 75.1922C29.4897 71.9726 20.483 71.9726 14.9485 75.1922Z" fill="#FFCE55"/>
<path d="M11.0609 79.4469C10.8999 79.9418 10.8173 80.4589 10.8164 80.9793V77.3358C10.8187 76.8142 10.9068 76.2965 11.0772 75.8035C11.0772 76.4066 11.0772 77.018 11.0772 77.6211V79.2513C11.0753 79.3168 11.0698 79.3821 11.0609 79.4469V79.4469Z" fill="#FFCE55"/>
<path d="M39.2709 77.4338V81.0854C39.2709 83.1801 37.8853 85.2668 35.1384 86.8725C29.5958 90.084 20.589 90.084 15.022 86.8725C12.2181 85.2423 10.8161 83.1231 10.8243 81.0038V77.3359C10.8243 79.4552 12.2181 81.5826 15.022 83.2046C20.5972 86.4161 29.6039 86.4161 35.1384 83.2046C37.8934 81.5989 39.2709 79.5122 39.2709 77.4338Z" fill="#F3C541"/>
<path d="M39.2627 81.0609C39.2627 79.8464 39.2627 78.6157 39.2627 77.4175C39.2708 78.5097 39.2627 79.9687 39.2627 81.0609Z" fill="#FFCE55"/>
<path d="M35.0489 71.5487C40.6241 74.809 40.6486 79.9849 35.1141 83.1963C29.5796 86.4078 20.5729 86.4567 14.9976 83.1963C9.42241 79.936 9.39796 74.7601 14.9324 71.5405C20.4669 68.3209 29.4981 68.3291 35.0489 71.5487Z" fill="#F3C541"/>
<path d="M14.9563 73.5784C20.4908 70.318 29.4975 70.318 35.0728 73.5784C37.4202 74.9396 38.7814 76.6513 39.1482 78.42C39.6699 75.9747 38.3331 73.4235 35.0728 71.5488C29.4975 68.2884 20.4908 68.2884 14.9563 71.5488C11.753 73.4072 10.4163 75.9421 10.9379 78.3629C11.3047 76.6186 12.6496 74.9233 14.9563 73.5784Z" fill="url(#paint26_linear_1385_18703)"/>
<path d="M43.1507 77.4337V81.0771C43.1507 83.7425 41.3901 86.4078 37.8934 88.413C30.8428 92.4884 19.3826 92.4884 12.2914 88.413C8.71311 86.3508 6.93621 83.6447 6.94436 80.9386V77.3196C6.94436 80.0257 8.72126 82.7318 12.2914 84.7858C19.3826 88.8613 30.8428 88.8613 37.8934 84.7858C41.3901 82.7562 43.1507 80.0909 43.1507 77.4337Z" fill="url(#paint27_linear_1385_18703)"/>
<path d="M37.8117 69.9593C44.903 74.0348 44.9437 80.6941 37.8932 84.7858C30.8427 88.8776 19.3825 88.8613 12.2912 84.7858C5.19991 80.7104 5.15915 74.0511 12.226 69.9593C19.2928 65.8676 30.7122 65.8594 37.8117 69.9593ZM14.9891 83.2045C20.5644 86.416 29.5711 86.416 35.1056 83.2045C40.64 79.9931 40.6482 74.7684 35.0485 71.5487C29.4488 68.3291 20.4666 68.2884 14.9321 71.5487C9.39762 74.8091 9.42207 79.9849 14.9973 83.2045" fill="#FFCE55"/>
<path d="M15.764 71.4754C13.993 72.3728 12.6106 73.8857 11.876 75.7302C11.876 74.5157 11.876 73.2849 11.876 72.0867C12.6106 70.2423 13.993 68.7294 15.764 67.8319C21.2984 64.6205 30.3052 64.6205 35.8804 67.8319C38.668 69.4621 40.07 71.5487 40.0781 73.6598C40.0781 74.8743 40.0781 76.1051 40.0781 77.3033C40.0781 75.1922 38.668 73.0893 35.8804 71.4754C30.3052 68.2639 21.2984 68.2639 15.764 71.4754Z" fill="#FFCE55"/>
<path d="M11.8767 75.7301C11.713 76.2246 11.6277 76.7416 11.624 77.2625V73.619C11.625 73.0986 11.7075 72.5815 11.8685 72.0867V75.5264C11.8753 75.5941 11.8781 75.6621 11.8767 75.7301V75.7301Z" fill="#FFCE55"/>
<path d="M40.0867 73.7006V77.3441C40.0867 79.4389 38.701 81.5337 35.946 83.1312C30.4115 86.3916 21.4048 86.3916 15.8377 83.1312C13.0256 81.5011 11.6318 79.39 11.6318 77.2626V73.6191C11.6318 75.7465 13.0256 77.8658 15.8296 79.4878C21.3966 82.7482 30.4034 82.7482 35.946 79.4878C38.701 77.8902 40.0785 75.8036 40.0867 73.7006Z" fill="#F3C541"/>
<path d="M40.0781 77.3442C40.0781 76.1297 40.0781 74.8989 40.0781 73.7007C40.0863 74.7929 40.0781 76.2519 40.0781 77.3442Z" fill="#FFCE55"/>
<path d="M35.8643 67.8321C41.4395 71.0924 41.464 76.2682 35.9295 79.4879C30.3951 82.7075 21.3802 82.7482 15.8131 79.4879C10.246 76.2275 10.2053 71.0517 15.7479 67.8321C21.2905 64.6125 30.3136 64.6206 35.8643 67.8321Z" fill="#F3C541"/>
<path d="M15.7721 69.8697C21.3065 66.6093 30.3133 66.6093 35.8885 69.8697C38.236 71.2227 39.5972 72.9344 39.964 74.7031C40.4856 72.2579 39.1489 69.7066 35.8885 67.8319C30.3133 64.6205 21.3065 64.6205 15.7721 67.8319C12.5688 69.6985 11.232 72.2253 11.7455 74.6461C12.1205 72.9018 13.4572 71.2064 15.7721 69.8697Z" fill="url(#paint28_linear_1385_18703)"/>
<path d="M43.9665 73.7088V77.3522C43.9665 80.0257 42.2059 82.6829 38.701 84.6881C31.6586 88.7635 20.1903 88.7635 13.099 84.6881C9.52888 82.6259 7.74383 79.9198 7.75198 77.2218V73.5784C7.75198 76.2763 9.52073 78.9824 13.099 81.0446C20.1903 85.1201 31.6504 85.1201 38.701 81.0446C42.2059 79.0639 43.9583 76.3741 43.9665 73.7088Z" fill="url(#paint29_linear_1385_18703)"/>
<path d="M38.6281 66.2425C45.7194 70.318 45.752 76.9773 38.7096 81.0772C31.6672 85.1771 20.1989 85.1526 13.1076 81.0772C6.01631 77.0017 5.97556 70.3424 13.0424 66.2425C20.1092 62.1426 31.5287 62.1508 38.6281 66.2425ZM15.8056 79.4878C21.3726 82.7481 30.3794 82.7481 35.922 79.4878C41.4646 76.2274 41.432 71.0516 35.8568 67.832C30.2816 64.6124 21.2748 64.6205 15.7403 67.832C10.2059 71.0434 10.2303 76.2681 15.8056 79.4878Z" fill="#FFCE55"/>
<path d="M14.1337 66.9515C12.3659 67.8505 10.9865 69.3632 10.2539 71.2063C10.2539 69.9918 10.2539 68.761 10.2539 67.5628C10.9865 65.7198 12.3659 64.2071 14.1337 63.3081C19.6764 60.0477 28.6831 60.0477 34.2583 63.3081C37.0378 64.9382 38.4397 67.0249 38.456 69.136C38.456 70.3504 38.456 71.5812 38.456 72.7794C38.456 70.6683 37.0459 68.5654 34.2583 66.9515C28.675 63.7319 19.6682 63.7319 14.1337 66.9515Z" fill="#FFCE55"/>
<path d="M10.2537 71.2064C10.086 71.6999 10.0006 72.2176 10.001 72.7388V69.0954C10.0047 68.5745 10.0899 68.0575 10.2537 67.563C10.2537 68.1662 10.2537 68.7775 10.2537 69.3806V71.0108C10.2571 71.076 10.2571 71.1413 10.2537 71.2064V71.2064Z" fill="#FFCE55"/>
<path d="M38.4643 69.1767V72.8202C38.4643 74.915 37.0868 77.0098 34.3318 78.6073C28.7973 81.8677 19.7906 81.8677 14.2153 78.6073C11.4114 76.9771 10.0095 74.8579 10.0176 72.7387V69.0952C10.0176 71.2145 11.4114 73.3418 14.2153 74.9639C19.7906 78.1753 28.7973 78.1753 34.3318 74.9639C37.0786 73.3581 38.4561 71.2715 38.4643 69.1767Z" fill="#F3C541"/>
<path d="M38.4482 72.8202C38.4482 71.6057 38.4482 70.3749 38.4482 69.1768V69.2175C38.4564 70.269 38.4564 71.728 38.4482 72.8202Z" fill="#FFCE55"/>
<path d="M34.2338 63.308C39.8008 66.5684 39.8334 71.7442 34.2908 74.9638C28.7482 78.1834 19.7496 78.1753 14.1744 74.9638C8.59917 71.7524 8.57472 66.5276 14.1092 63.308C19.6436 60.0884 28.6912 60.0884 34.2338 63.308Z" fill="#F3C541"/>
<path d="M14.1419 65.3376C19.6845 62.1262 28.6912 62.1262 34.2665 65.3376C36.6139 66.6988 37.9751 68.4105 38.3419 70.1793C38.8636 67.734 37.5268 65.1828 34.2665 63.3081C28.6912 60.0477 19.6845 60.0477 14.1419 63.3081C10.9386 65.2072 9.60181 67.7014 10.1235 70.0978C10.4984 68.3779 11.8352 66.6825 14.1419 65.3376Z" fill="url(#paint30_linear_1385_18703)"/>
<path d="M42.3851 69.1851V72.8285C42.3851 75.4939 40.6245 78.1592 37.1277 80.1643C30.0772 84.2398 18.617 84.2398 11.5257 80.1643C7.95564 78.1022 6.17059 75.3961 6.17874 72.69V69.0791C6.17874 71.7852 7.95564 74.4913 11.5257 76.5535C18.617 80.6289 30.0854 80.6289 37.1277 76.5535C40.5837 74.5158 42.3362 71.8504 42.3851 69.1851Z" fill="url(#paint31_linear_1385_18703)"/>
<path d="M36.9972 61.7187C44.0885 65.7942 44.1293 72.4535 37.0787 76.5534C30.0282 80.6533 18.568 80.6288 11.4767 76.5534C4.38545 72.4779 4.3447 65.8105 11.4115 61.7187C18.4784 57.627 29.9059 57.627 36.9972 61.7187ZM14.2073 74.9884C19.7825 78.1999 28.7893 78.1999 34.3237 74.9884C39.8582 71.7769 39.8338 66.5522 34.2667 63.3326C28.6996 60.113 19.6847 60.0722 14.1421 63.3326C8.59947 66.593 8.63208 71.728 14.2073 74.9884Z" fill="#FFCE55"/>
<path d="M15.764 62.8353C13.993 63.7327 12.6106 65.2457 11.876 67.0901C11.876 65.8756 11.876 64.6448 11.876 63.4385C12.6122 61.5971 13.9945 60.0873 15.764 59.1919C21.2984 55.9315 30.3052 55.9315 35.8804 59.1919C38.668 60.822 40.07 62.9087 40.0781 65.0116C40.0781 66.2261 40.0781 67.4569 40.0781 68.6632C40.0781 66.5521 38.668 64.441 35.8804 62.8353C30.3052 59.6157 21.2984 59.6157 15.764 62.8353Z" fill="#FFCE55"/>
<path d="M11.8767 67.0901C11.713 67.5845 11.6277 68.1016 11.624 68.6225V64.979C11.6256 64.456 11.7081 63.9363 11.8685 63.4385V66.8782C11.8753 66.9486 11.8781 67.0193 11.8767 67.0901V67.0901Z" fill="#FFCE55"/>
<path d="M40.0867 65.0522V68.6957C40.0867 70.7905 38.701 72.8852 35.946 74.4828C30.4115 77.7432 21.4048 77.7432 15.8377 74.4828C13.0256 72.8526 11.6318 70.7334 11.6318 68.6142V64.9707C11.6318 67.0899 13.0256 69.2173 15.8296 70.8312C21.3966 74.0916 30.4034 74.0916 35.946 70.8312C38.701 69.2825 40.0785 67.147 40.0867 65.0522Z" fill="#F3C541"/>
<path d="M40.0781 68.6958C40.0781 67.4732 40.0781 66.2505 40.0781 65.0442C40.0863 66.1446 40.0781 67.6036 40.0781 68.6958Z" fill="#FFCE55"/>
<path d="M35.8643 59.1918C41.4395 62.4033 41.464 67.6198 35.9295 70.8395C30.3951 74.0591 21.3802 74.0998 15.8131 70.8395C10.246 67.5791 10.2053 62.4114 15.7479 59.1918C21.2905 55.9722 30.3136 55.9722 35.8643 59.1918Z" fill="#F3C541"/>
<path d="M15.7721 61.2214C21.3065 57.9611 30.3133 57.9611 35.8885 61.2214C38.236 62.5745 39.5972 64.2862 39.964 66.0549C40.4856 63.6096 39.1489 61.0666 35.8885 59.1919C30.3133 55.9315 21.3065 55.9315 15.7721 59.1919C12.5688 61.0503 11.232 63.577 11.7455 66.0223C12.1205 64.2536 13.4572 62.5663 15.7721 61.2214Z" fill="url(#paint32_linear_1385_18703)"/>
<path d="M43.9665 65.0686V68.7121C43.9665 71.3775 42.2059 74.0428 38.701 76.0479C31.6586 80.1234 20.1903 80.1234 13.099 76.0479C9.52888 73.9857 7.74383 71.2878 7.75198 68.5817V64.9382C7.75198 67.6362 9.52073 70.3423 13.099 72.4045C20.1903 76.4799 31.6504 76.4799 38.701 72.4045C42.2059 70.3993 43.9583 67.734 43.9665 65.0686Z" fill="url(#paint33_linear_1385_18703)"/>
<path d="M38.6281 57.6024C45.7194 61.6778 45.752 68.3371 38.7096 72.4289C31.6672 76.5207 20.1989 76.5044 13.1076 72.4289C6.01631 68.3534 5.97556 61.6942 13.0424 57.6024C20.1092 53.5106 31.5287 53.5025 38.6281 57.6024ZM15.8056 70.8395C21.3726 74.0998 30.3794 74.0998 35.922 70.8395C41.4646 67.5791 41.4646 62.4033 35.8649 59.1918C30.2653 55.9804 21.283 55.9315 15.7485 59.1918C10.214 62.4522 10.2629 67.6525 15.8382 70.8395" fill="#FFCE55"/>
<path d="M14.541 58.6866C12.7694 59.5807 11.3885 61.0951 10.6611 62.9414C10.6611 61.7269 10.6611 60.4961 10.6611 59.2979C11.3937 57.4549 12.7731 55.9422 14.541 55.0432C20.0836 51.7828 29.0903 51.7828 34.6574 55.0432C37.445 56.6734 38.847 58.76 38.8551 60.8711C38.8551 62.0855 38.8551 63.3163 38.8551 64.5145C38.8551 62.4034 37.445 60.3005 34.6574 58.6866C29.0822 55.4996 20.0754 55.4996 14.541 58.6866Z" fill="#FFCE55"/>
<path d="M10.6609 62.9657C10.4932 63.4592 10.4078 63.9769 10.4082 64.4981V60.8546C10.4078 60.3334 10.4932 59.8157 10.6609 59.3223C10.6609 59.9336 10.6609 60.5367 10.6609 61.1481V62.7782C10.6643 62.8407 10.6643 62.9033 10.6609 62.9657V62.9657Z" fill="#FFCE55"/>
<path d="M38.8637 60.9362V64.5797C38.8637 66.6745 37.478 68.7693 34.7312 70.3669C29.1886 73.6272 20.19 73.6272 14.6147 70.3669C11.8108 68.7367 10.4089 66.6256 10.417 64.4982V60.8547C10.417 62.9821 11.8108 65.1014 14.6147 66.7234C20.19 69.9838 29.1967 69.9838 34.7312 66.7234C37.4943 65.1258 38.8637 63.031 38.8637 60.9362Z" fill="#F3C541"/>
<path d="M38.8555 64.5798C38.8555 63.3653 38.8555 62.1345 38.8555 60.9363V60.977C38.8636 62.0285 38.8636 63.4875 38.8555 64.5798Z" fill="#FFCE55"/>
<path d="M34.6661 55.0675C40.2413 58.3279 40.2739 63.5037 34.7313 66.7233C29.1886 69.9429 20.19 69.9837 14.6148 66.7233C9.0396 63.463 9.01515 58.2871 14.5496 55.0675C20.0841 51.8479 29.099 51.8479 34.6661 55.0675Z" fill="#F3C541"/>
<path d="M14.5491 57.1053C20.0917 53.845 29.0985 53.845 34.6655 57.1053C37.0211 58.4584 38.3742 60.1701 38.741 61.9388C39.2626 59.4935 37.9259 56.9423 34.6655 55.0676C29.0985 51.8072 20.0917 51.8072 14.5491 55.0676C11.3458 56.9341 10.009 59.4609 10.5307 61.8817C10.9056 60.1375 12.2261 58.4421 14.5491 57.1053Z" fill="url(#paint34_linear_1385_18703)"/>
<path d="M42.7513 60.9442V64.5877C42.7513 67.2612 40.9907 69.9184 37.494 71.9235C30.4434 75.999 18.9832 75.999 11.892 71.9235C8.30556 69.8939 6.52051 67.1878 6.52051 64.4899V60.8464C6.52051 63.5444 8.29741 66.2505 11.8675 68.3127C18.9588 72.3881 30.419 72.3881 37.4695 68.3127C40.9907 66.2749 42.7431 63.577 42.7513 60.9442Z" fill="url(#paint35_linear_1385_18703)"/>
<path d="M37.4046 53.4781C44.4959 57.5536 44.5367 64.2129 37.4861 68.3128C30.4356 72.4127 18.9754 72.3882 11.8841 68.3128C4.79284 64.2373 4.75209 57.578 11.7945 53.4781C18.8369 49.3782 30.3133 49.3864 37.4046 53.4781ZM14.5821 66.7234C20.1573 69.9837 29.1641 69.9837 34.6985 66.7234C40.233 63.463 40.2085 58.2872 34.6333 55.0676C29.0581 51.8479 20.0595 51.8072 14.5169 55.0676C8.97426 58.3279 9.00686 63.5037 14.5821 66.7234Z" fill="#FFCE55"/>
<path d="M14.9485 54.6111C13.1776 55.5086 11.7951 57.0215 11.0605 58.8659C11.0605 57.6514 11.0605 56.4206 11.0605 55.2225C11.7931 53.3794 13.1725 51.8667 14.9404 50.9677C20.4748 47.7481 29.4816 47.7481 35.0568 50.9677C37.8444 52.5979 39.2464 54.6845 39.2545 56.7956C39.2545 58.0101 39.2545 59.2409 39.2545 60.439C39.2545 58.3117 37.8526 56.2413 35.0487 54.6111C29.4897 51.3508 20.483 51.3508 14.9485 54.6111Z" fill="#FFCE55"/>
<path d="M11.0609 58.8495C10.8999 59.3444 10.8173 59.8614 10.8164 60.3819V56.7384C10.816 56.2172 10.9014 55.6995 11.0691 55.2061C11.0691 55.8092 11.0691 56.4205 11.0691 57.0237V58.6539C11.0698 58.7192 11.0671 58.7845 11.0609 58.8495V58.8495Z" fill="#FFCE55"/>
<path d="M39.2709 56.8119V60.4635C39.2709 62.5583 37.8853 64.6449 35.1384 66.2506C29.5958 69.4621 20.589 69.4621 15.022 66.2506C12.2181 64.6205 10.8161 62.5012 10.8243 60.382V56.7385C10.8243 58.8578 12.2181 60.9851 15.022 62.6072C20.5972 65.8186 29.6039 65.8186 35.1384 62.6072C37.8934 61.0015 39.2709 58.9148 39.2709 56.8119Z" fill="#F3C541"/>
<path d="M39.2627 60.4635V60.4227C39.2627 59.2083 39.2627 57.9775 39.2627 56.7793C39.2708 57.9123 39.2627 59.3713 39.2627 60.4635Z" fill="#FFCE55"/>
<path d="M35.0489 50.9513C40.6241 54.1709 40.6486 59.3875 35.1141 62.5989C29.5796 65.8104 20.5729 65.8593 14.9976 62.5989C9.42241 59.3385 9.39796 54.1627 14.9324 50.9431C20.4669 47.7235 29.4981 47.7316 35.0489 50.9513Z" fill="#FCCE5B"/>
<path d="M14.9563 52.9809C20.4908 49.7205 29.4975 49.7205 35.0728 52.9809C37.4202 54.3421 38.7814 56.0538 39.1482 57.8225C39.6699 55.3773 38.3331 52.826 35.0728 50.9513C29.4975 47.7317 20.4908 47.7317 14.9563 50.9513C11.753 52.8097 10.4163 55.3447 10.9379 57.7655C11.3047 56.013 12.6496 54.3258 14.9563 52.9809Z" fill="url(#paint36_linear_1385_18703)"/>
<path d="M43.1507 56.8281V60.4716C43.1507 63.1369 41.3901 65.8023 37.8934 67.8074C30.8428 71.8829 19.3826 71.8829 12.2914 67.8074C8.71311 65.7452 6.93621 63.0391 6.94436 60.333V56.7222C6.94436 59.4283 8.72126 62.1344 12.2914 64.1884C19.3826 68.2639 30.8428 68.2639 37.8934 64.1884C41.3901 62.1588 43.1507 59.5016 43.1507 56.8281Z" fill="url(#paint37_linear_1385_18703)"/>
<path d="M37.8117 49.3619C44.903 53.4374 44.9437 60.0967 37.8932 64.1884C30.8427 68.2802 19.3825 68.2639 12.2912 64.1884C5.19991 60.113 5.15915 53.4537 12.226 49.3619C19.2928 45.2702 30.7122 45.262 37.8117 49.3619ZM14.9891 62.6071C20.5644 65.8186 29.5711 65.8186 35.1056 62.6071C40.64 59.3957 40.6482 54.1709 35.0485 50.9513C29.4488 47.7317 20.4666 47.7317 14.9321 50.9513C9.39762 54.1709 9.42207 59.3875 14.9973 62.6071" fill="#FCCE5B"/>
</g>
<defs>
<linearGradient id="paint0_linear_1385_18703" x1="28.9276" y1="70.3259" x2="57.3662" y2="70.3259" gradientUnits="userSpaceOnUse">
<stop stop-color="#FE825E"/>
<stop offset="1" stop-color="#EFBE3A"/>
</linearGradient>
<linearGradient id="paint1_linear_1385_18703" x1="25.0309" y1="80.9629" x2="61.2536" y2="80.9629" gradientUnits="userSpaceOnUse">
<stop stop-color="#FEA35E"/>
<stop offset="1" stop-color="#FCCE5B"/>
</linearGradient>
<linearGradient id="paint2_linear_1385_18703" x1="28.9276" y1="66.2017" x2="57.3662" y2="66.2017" gradientUnits="userSpaceOnUse">
<stop stop-color="#FE825E"/>
<stop offset="1" stop-color="#EFBE3A"/>
</linearGradient>
<linearGradient id="paint3_linear_1385_18703" x1="25.0309" y1="76.8469" x2="61.2536" y2="76.8469" gradientUnits="userSpaceOnUse">
<stop stop-color="#FEA35E"/>
<stop offset="1" stop-color="#FCCE5B"/>
</linearGradient>
<linearGradient id="paint4_linear_1385_18703" x1="28.1122" y1="62.0855" x2="56.5589" y2="62.0855" gradientUnits="userSpaceOnUse">
<stop stop-color="#FE825E"/>
<stop offset="1" stop-color="#EFBE3A"/>
</linearGradient>
<linearGradient id="paint5_linear_1385_18703" x1="24.2243" y1="72.7224" x2="60.4388" y2="72.7224" gradientUnits="userSpaceOnUse">
<stop stop-color="#FEA35E"/>
<stop offset="1" stop-color="#FCCE5B"/>
</linearGradient>
<linearGradient id="paint6_linear_1385_18703" x1="29.7425" y1="57.9693" x2="58.181" y2="57.9693" gradientUnits="userSpaceOnUse">
<stop stop-color="#FE825E"/>
<stop offset="1" stop-color="#EFBE3A"/>
</linearGradient>
<linearGradient id="paint7_linear_1385_18703" x1="25.8464" y1="68.6062" x2="62.069" y2="68.6062" gradientUnits="userSpaceOnUse">
<stop stop-color="#FEA35E"/>
<stop offset="1" stop-color="#FCCE5B"/>
</linearGradient>
<linearGradient id="paint8_linear_1385_18703" x1="28.1122" y1="53.845" x2="56.5589" y2="53.845" gradientUnits="userSpaceOnUse">
<stop stop-color="#FE825E"/>
<stop offset="1" stop-color="#EFBE3A"/>
</linearGradient>
<linearGradient id="paint9_linear_1385_18703" x1="24.2243" y1="64.4819" x2="60.4388" y2="64.4819" gradientUnits="userSpaceOnUse">
<stop stop-color="#FEA35E"/>
<stop offset="1" stop-color="#FCCE5B"/>
</linearGradient>
<linearGradient id="paint10_linear_1385_18703" x1="28.9276" y1="49.7288" x2="57.3662" y2="49.7288" gradientUnits="userSpaceOnUse">
<stop stop-color="#FE825E"/>
<stop offset="1" stop-color="#EFBE3A"/>
</linearGradient>
<linearGradient id="paint11_linear_1385_18703" x1="25.0313" y1="60.3656" x2="61.2539" y2="60.3656" gradientUnits="userSpaceOnUse">
<stop stop-color="#FEA35E"/>
<stop offset="1" stop-color="#FCCE5B"/>
</linearGradient>
<linearGradient id="paint12_linear_1385_18703" x1="29.7429" y1="46.012" x2="58.1815" y2="46.012" gradientUnits="userSpaceOnUse">
<stop stop-color="#FE825E"/>
<stop offset="1" stop-color="#EFBE3A"/>
</linearGradient>
<linearGradient id="paint13_linear_1385_18703" x1="25.8464" y1="56.6489" x2="62.069" y2="56.6489" gradientUnits="userSpaceOnUse">
<stop stop-color="#FEA35E"/>
<stop offset="1" stop-color="#FCCE5B"/>
</linearGradient>
<linearGradient id="paint14_linear_1385_18703" x1="28.1122" y1="41.4881" x2="56.5589" y2="41.4881" gradientUnits="userSpaceOnUse">
<stop stop-color="#FE825E"/>
<stop offset="1" stop-color="#EFBE3A"/>
</linearGradient>
<linearGradient id="paint15_linear_1385_18703" x1="24.2243" y1="52.125" x2="60.4388" y2="52.125" gradientUnits="userSpaceOnUse">
<stop stop-color="#FEA35E"/>
<stop offset="1" stop-color="#FCCE5B"/>
</linearGradient>
<linearGradient id="paint16_linear_1385_18703" x1="29.7429" y1="37.3719" x2="58.1815" y2="37.3719" gradientUnits="userSpaceOnUse">
<stop stop-color="#FE825E"/>
<stop offset="1" stop-color="#EFBE3A"/>
</linearGradient>
<linearGradient id="paint17_linear_1385_18703" x1="25.8467" y1="48.0088" x2="62.0694" y2="48.0088" gradientUnits="userSpaceOnUse">
<stop stop-color="#FEA35E"/>
<stop offset="1" stop-color="#FCCE5B"/>
</linearGradient>
<linearGradient id="paint18_linear_1385_18703" x1="28.5204" y1="33.2476" x2="56.9671" y2="33.2476" gradientUnits="userSpaceOnUse">
<stop stop-color="#FE825E"/>
<stop offset="1" stop-color="#EFBE3A"/>
</linearGradient>
<linearGradient id="paint19_linear_1385_18703" x1="24.6237" y1="43.8846" x2="60.8463" y2="43.8846" gradientUnits="userSpaceOnUse">
<stop stop-color="#FEA35E"/>
<stop offset="1" stop-color="#FCCE5B"/>
</linearGradient>
<linearGradient id="paint20_linear_1385_18703" x1="28.9276" y1="29.1314" x2="57.3662" y2="29.1314" gradientUnits="userSpaceOnUse">
<stop stop-color="#FEA35E"/>
<stop offset="1" stop-color="#FCCE5B"/>
</linearGradient>
<linearGradient id="paint21_linear_1385_18703" x1="25.0309" y1="39.7683" x2="61.2536" y2="39.7683" gradientUnits="userSpaceOnUse">
<stop stop-color="#FEA35E"/>
<stop offset="1" stop-color="#FCCE5B"/>
</linearGradient>
<linearGradient id="paint22_linear_1385_18703" x1="10.0175" y1="86.1307" x2="38.456" y2="86.1307" gradientUnits="userSpaceOnUse">
<stop stop-color="#FE825E"/>
<stop offset="1" stop-color="#EFBE3A"/>
</linearGradient>
<linearGradient id="paint23_linear_1385_18703" x1="6.12168" y1="96.7675" x2="42.3443" y2="96.7675" gradientUnits="userSpaceOnUse">
<stop stop-color="#FEA35E"/>
<stop offset="1" stop-color="#FCCE5B"/>
</linearGradient>
<linearGradient id="paint24_linear_1385_18703" x1="10.0175" y1="77.8983" x2="38.456" y2="77.8983" gradientUnits="userSpaceOnUse">
<stop stop-color="#FE825E"/>
<stop offset="1" stop-color="#EFBE3A"/>
</linearGradient>
<linearGradient id="paint25_linear_1385_18703" x1="6.12112" y1="88.5351" x2="42.3438" y2="88.5351" gradientUnits="userSpaceOnUse">
<stop stop-color="#FEA35E"/>
<stop offset="1" stop-color="#FCCE5B"/>
</linearGradient>
<linearGradient id="paint26_linear_1385_18703" x1="10.8238" y1="73.774" x2="39.2705" y2="73.774" gradientUnits="userSpaceOnUse">
<stop stop-color="#FE825E"/>
<stop offset="1" stop-color="#EFBE3A"/>
</linearGradient>
<linearGradient id="paint27_linear_1385_18703" x1="6.93621" y1="84.4109" x2="43.1507" y2="84.4109" gradientUnits="userSpaceOnUse">
<stop stop-color="#FEA35E"/>
<stop offset="1" stop-color="#FCCE5B"/>
</linearGradient>
<linearGradient id="paint28_linear_1385_18703" x1="11.6396" y1="70.0653" x2="40.0862" y2="70.0653" gradientUnits="userSpaceOnUse">
<stop stop-color="#FE825E"/>
<stop offset="1" stop-color="#EFBE3A"/>
</linearGradient>
<linearGradient id="paint29_linear_1385_18703" x1="7.74383" y1="80.7023" x2="43.9665" y2="80.7023" gradientUnits="userSpaceOnUse">
<stop stop-color="#FEA35E"/>
<stop offset="1" stop-color="#FCCE5B"/>
</linearGradient>
<linearGradient id="paint30_linear_1385_18703" x1="10.0175" y1="65.5333" x2="38.456" y2="65.5333" gradientUnits="userSpaceOnUse">
<stop stop-color="#FE825E"/>
<stop offset="1" stop-color="#EFBE3A"/>
</linearGradient>
<linearGradient id="paint31_linear_1385_18703" x1="6.12168" y1="76.1704" x2="42.3443" y2="76.1704" gradientUnits="userSpaceOnUse">
<stop stop-color="#FEA35E"/>
<stop offset="1" stop-color="#FCCE5B"/>
</linearGradient>
<linearGradient id="paint32_linear_1385_18703" x1="11.6396" y1="61.4171" x2="40.0862" y2="61.4171" gradientUnits="userSpaceOnUse">
<stop stop-color="#FE825E"/>
<stop offset="1" stop-color="#EFBE3A"/>
</linearGradient>
<linearGradient id="paint33_linear_1385_18703" x1="7.74383" y1="72.054" x2="43.9665" y2="72.054" gradientUnits="userSpaceOnUse">
<stop stop-color="#FEA35E"/>
<stop offset="1" stop-color="#FCCE5B"/>
</linearGradient>
<linearGradient id="paint34_linear_1385_18703" x1="10.4166" y1="57.3009" x2="38.8632" y2="57.3009" gradientUnits="userSpaceOnUse">
<stop stop-color="#FE825E"/>
<stop offset="1" stop-color="#EFBE3A"/>
</linearGradient>
<linearGradient id="paint35_linear_1385_18703" x1="6.52866" y1="67.9377" x2="42.7513" y2="67.9377" gradientUnits="userSpaceOnUse">
<stop stop-color="#FEA35E"/>
<stop offset="1" stop-color="#FCCE5B"/>
</linearGradient>
<linearGradient id="paint36_linear_1385_18703" x1="10.8238" y1="53.1765" x2="39.2705" y2="53.1765" gradientUnits="userSpaceOnUse">
<stop stop-color="#FEA35E"/>
<stop offset="1" stop-color="#FCCE5B"/>
</linearGradient>
<linearGradient id="paint37_linear_1385_18703" x1="6.93621" y1="63.8135" x2="43.1507" y2="63.8135" gradientUnits="userSpaceOnUse">
<stop stop-color="#FEA35E"/>
<stop offset="1" stop-color="#FCCE5B"/>
</linearGradient>
<clipPath id="clip0_1385_18703">
<rect width="140" height="108.423" fill="white"/>
</clipPath>
</defs>
</svg>
